<?xml version="1.0" encoding="UTF-8" standalone="no"?>
<!-- Created with Inkscape (http://www.inkscape.org/) -->

<svg
   width="113"
   height="116"
   viewBox="0 0 500 500"
   version="1.1"
   id="svg303"
   xml:space="preserve"
   inkscape:version="1.2.2 (b0a84865, 2022-12-01)"
   sodipodi:docname="public_cloud_providers.svg"
   xmlns:inkscape="http://www.inkscape.org/namespaces/inkscape"
   xmlns:sodipodi="http://sodipodi.sourceforge.net/DTD/sodipodi-0.dtd"
   xmlns="http://www.w3.org/2000/svg"
   xmlns:svg="http://www.w3.org/2000/svg"><sodipodi:namedview
     id="namedview305"
     pagecolor="#505050"
     bordercolor="#eeeeee"
     borderopacity="1"
     inkscape:showpageshadow="0"
     inkscape:pageopacity="0"
     inkscape:pagecheckerboard="0"
     inkscape:deskcolor="#505050"
     inkscape:document-units="mm"
     showgrid="false"
     inkscape:zoom="0.4204826"
     inkscape:cx="1141.5454"
     inkscape:cy="934.64033"
     inkscape:window-width="1728"
     inkscape:window-height="966"
     inkscape:window-x="0"
     inkscape:window-y="38"
     inkscape:window-maximized="1"
     inkscape:current-layer="g465" /><defs
     id="defs300" /><g
     inkscape:label="Layer 1"
     inkscape:groupmode="layer"
     id="layer1"><g
       id="g432"
       transform="matrix(0.82682292,0,0,0.82682292,33.857316,254.70907)"><path
         d="m 170.2517,56.8186 22.253,-22.253 1.483,-9.37 c -40.551,-36.873 -105.012,-32.692 -141.567,8.724 -10.154,11.503 -17.687,25.844 -21.704,40.653 l 7.97,-1.123 44.505,-7.339 3.436,-3.514 c 19.797,-21.742 53.27,-24.667 76.128,-6.168 z"
         fill="#ea4335"
         id="path424" /><path
         d="m 224.2048,73.9182 c -5.115,-18.836 -15.616,-35.769 -30.217,-48.722 l -31.232,31.232 c 13.188,10.776 20.701,27.01 20.379,44.037 v 5.544 c 15.351,0 27.797,12.445 27.797,27.796 0,15.352 -12.446,27.485 -27.797,27.485 h -55.671 l -5.466,5.934 v 33.34 l 5.466,5.231 h 55.671 c 39.93,0.311 72.552,-31.494 72.863,-71.424 0.188,-24.203 -11.745,-46.893 -31.793,-60.453"
         fill="#4285f4"
         id="path426" /><path
         d="m 71.8704,205.7957 h 55.593 v -44.506 h -55.593 c -3.961,-0.001 -7.797,-0.852 -11.399,-2.498 l -7.887,2.42 -22.409,22.253 -1.952,7.574 c 12.567,9.489 27.9,14.825 43.647,14.757"
         fill="#34a853"
         id="path428" /><path
         d="m 71.8704,61.4255 c -39.931,0.238 -72.107,32.802 -71.869,72.732 0.133,22.298 10.547,43.288 28.222,56.881 l 32.248,-32.247 c -13.991,-6.321 -20.208,-22.786 -13.887,-36.776 6.32,-13.99 22.786,-20.207 36.775,-13.887 6.165,2.785 11.102,7.723 13.887,13.887 l 32.248,-32.247 c -13.721,-17.937 -35.041,-28.424 -57.624,-28.343"
         fill="#fbbc05"
         id="path430" /></g><g
       id="g459"
       transform="matrix(6.6145833,0,0,6.6145833,263.97429,242.18391)"><path
         d="m 14.98,25.994 c 3.57,-0.726 6.518,-1.327 6.552,-1.335 l 0.062,-0.015 -3.37,-4.615 c -1.854,-2.538 -3.37,-4.625 -3.37,-4.637 0,-0.012 3.48,-11.056 3.5,-11.095 0.007,-0.013 2.375,4.694 5.741,11.411 l 5.774,11.521 0.044,0.088 H 19.202 8.491 Z"
         style="fill:#0089d6"
         id="path447" /><path
         d="m 2.125,24.586 c 0,-0.006 1.588,-3.18 3.529,-7.053 L 9.183,10.492 13.3,6.52 C 15.562,4.335 17.419,2.544 17.426,2.541 A 0.914,0.914 0 0 1 17.36,2.733 L 12.89,13.759 8.5,24.589 H 5.311 C 3.56,24.6 2.125,24.593 2.125,24.586 Z"
         style="fill:#0089d6"
         id="path449" /></g><g
       id="g465"
       transform="matrix(0.98482759,0,0,0.98482759,124.97603,65.271539)"><path
         d="m 72.392053,55.438411 c 0,3.136423 0.339073,5.67947 0.93245,7.544371 0.678146,1.8649 1.525828,3.899337 2.712583,6.103311 0.423841,0.678145 0.593378,1.356291 0.593378,1.949669 0,0.847682 -0.50861,1.695364 -1.610596,2.543046 l -5.340398,3.560265 c -0.762914,0.508609 -1.525828,0.762914 -2.203973,0.762914 -0.847682,0 -1.695365,-0.423841 -2.543047,-1.186755 -1.186755,-1.271523 -2.203973,-2.627815 -3.051655,-3.984106 -0.847682,-1.44106 -1.695364,-3.051656 -2.627815,-5.001325 -6.61192,7.798676 -14.919205,11.698014 -24.921854,11.698014 -7.12053,0 -12.8,-2.034438 -16.953643,-6.103312 -4.153642,-4.068874 -6.272847,-9.494039 -6.272847,-16.275496 0,-7.205298 2.543046,-13.054305 7.713907,-17.462252 5.170861,-4.407947 12.037086,-6.611921 20.768212,-6.611921 2.882119,0 5.849007,0.254305 8.98543,0.678146 3.136424,0.423841 6.357616,1.101987 9.748345,1.864901 v -6.18808 c 0,-6.442384 -1.356292,-10.935099 -3.984106,-13.562914 -2.712583,-2.627814 -7.290066,-3.899337 -13.817219,-3.899337 -2.966887,0 -6.018543,0.339073 -9.154967,1.101986 -3.136423,0.762914 -6.188079,1.695365 -9.154967,2.88212 -1.356291,0.593377 -2.373509,0.93245 -2.966887,1.101986 -0.593377,0.169537 -1.017218,0.254305 -1.356291,0.254305 -1.186755,0 -1.780133,-0.847682 -1.780133,-2.627814 V 10.42649 c 0,-1.3562913 0.169537,-2.3735099 0.593378,-2.9668874 0.423841,-0.5933774 1.186755,-1.1867549 2.37351,-1.7801324 C 22.039735,4.1536424 25.6,2.8821192 29.753642,1.8649007 c 4.153643,-1.10198679 8.56159,-1.61059606 13.223841,-1.61059606 10.087418,0 17.462252,2.28874176 22.209272,6.86622516 4.662252,4.5774832 7.035762,11.5284772 7.035762,20.8529802 V 55.438411 Z M 37.976159,68.323179 c 2.797351,0 5.67947,-0.508609 8.731126,-1.525828 3.051655,-1.017219 5.764238,-2.882119 8.05298,-5.425166 1.356291,-1.610596 2.37351,-3.390728 2.882119,-5.425165 0.508609,-2.034437 0.847682,-4.492715 0.847682,-7.374835 v -3.560264 c -2.458278,-0.593378 -5.086093,-1.101987 -7.798675,-1.44106 -2.712583,-0.339073 -5.340398,-0.508609 -7.968212,-0.508609 -5.67947,0 -9.833113,1.101986 -12.630464,3.390728 -2.797351,2.288742 -4.153642,5.509934 -4.153642,9.748344 0,3.984107 1.017218,6.950994 3.136424,8.985431 2.034437,2.119205 5.001324,3.136424 8.900662,3.136424 z m 68.068871,9.154967 c -1.52582,0 -2.54304,-0.254305 -3.22119,-0.847682 -0.67814,-0.50861 -1.27152,-1.695365 -1.78013,-3.305961 L 81.123179,7.7986755 C 80.61457,6.1033113 80.360265,5.0013245 80.360265,4.407947 c 0,-1.3562914 0.678146,-2.1192053 2.034437,-2.1192053 h 8.307285 c 1.610596,0 2.712582,0.2543047 3.30596,0.8476821 0.678146,0.5086093 1.186755,1.6953643 1.695364,3.3059603 L 109.94437,62.55894 123.16821,6.4423841 c 0.42384,-1.6953642 0.93245,-2.797351 1.6106,-3.3059603 0.67814,-0.5086092 1.8649,-0.8476821 3.39073,-0.8476821 h 6.78145 c 1.6106,0 2.71259,0.2543047 3.39073,0.8476821 0.67815,0.5086093 1.27152,1.6953643 1.6106,3.3059603 L 153.34569,63.237086 168.0106,6.4423841 c 0.5086,-1.6953642 1.10198,-2.797351 1.69536,-3.3059603 0.67815,-0.5086092 1.78013,-0.8476821 3.30596,-0.8476821 h 7.88344 c 1.3563,0 2.11921,0.6781457 2.11921,2.1192053 0,0.4238411 -0.0848,0.8476821 -0.16954,1.3562914 -0.0848,0.5086093 -0.2543,1.186755 -0.59337,2.1192053 L 161.82252,73.409272 c -0.50861,1.695364 -1.10199,2.79735 -1.78014,3.30596 -0.67814,0.508609 -1.78013,0.847682 -3.22119,0.847682 h -7.29006 c -1.6106,0 -2.71259,-0.254305 -3.39073,-0.847682 -0.67815,-0.593378 -1.27153,-1.695364 -1.6106,-3.390729 L 131.39073,18.649007 118.33642,73.239735 c -0.42384,1.695364 -0.93245,2.797351 -1.61059,3.390729 -0.67815,0.593377 -1.8649,0.847682 -3.39073,0.847682 z m 108.92715,2.288741 c -4.40794,0 -8.81589,-0.508609 -13.0543,-1.525827 -4.23841,-1.017219 -7.54437,-2.119206 -9.74834,-3.390729 -1.3563,-0.762914 -2.28875,-1.610596 -2.62782,-2.37351 -0.33907,-0.762914 -0.50861,-1.610596 -0.50861,-2.37351 v -4.323179 c 0,-1.780132 0.67815,-2.627814 1.94967,-2.627814 0.50861,0 1.01722,0.08477 1.52583,0.254304 0.50861,0.169537 1.27152,0.50861 2.1192,0.847683 2.88212,1.271523 6.01855,2.288741 9.32451,2.966887 3.39073,0.678146 6.69669,1.017219 10.08741,1.017219 5.3404,0 9.49404,-0.932451 12.37616,-2.797351 2.88212,-1.864901 4.40795,-4.577484 4.40795,-8.05298 0,-2.373511 -0.76291,-4.323179 -2.28874,-5.933775 -1.52583,-1.610596 -4.40795,-3.051656 -8.56159,-4.407947 l -12.29139,-3.81457 C 201.49404,41.282119 196.91656,38.4 194.1192,34.58543 c -2.79735,-3.729801 -4.23841,-7.883443 -4.23841,-12.29139 0,-3.560265 0.76292,-6.696689 2.28875,-9.409272 1.52582,-2.712583 3.56026,-5.0860925 6.10331,-6.9509932 2.54304,-1.9496688 5.42516,-3.3907284 8.81589,-4.407947 3.39073,-1.01721853 6.95099,-1.44105959 10.6808,-1.44105959 1.8649,0 3.81457,0.08476821 5.67947,0.33907285 1.94966,0.25430463 3.7298,0.59337744 5.50993,0.93245034 1.69536,0.423841 3.30596,0.8476821 4.83179,1.3562914 1.52583,0.5086093 2.71258,1.0172185 3.56026,1.5258278 1.18676,0.6781457 2.03444,1.3562914 2.54305,2.1192053 0.50861,0.6781457 0.76291,1.610596 0.76291,2.797351 v 3.9841061 c 0,1.780132 -0.67814,2.712583 -1.94966,2.712583 -0.67815,0 -1.78014,-0.339073 -3.2212,-1.017219 -4.83179,-2.203973 -10.25695,-3.30596 -16.27549,-3.30596 -4.83179,0 -8.64636,0.762914 -11.27418,2.37351 -2.62781,1.610596 -3.9841,4.068874 -3.9841,7.544371 0,2.373509 0.84768,4.407947 2.54304,6.018543 1.69537,1.610596 4.83179,3.221192 9.32451,4.662251 l 12.03708,3.81457 c 6.10331,1.949669 10.51126,4.662252 13.13908,8.137748 2.62781,3.475497 3.89933,7.459603 3.89933,11.86755 0,3.645033 -0.76291,6.950993 -2.20397,9.833112 -1.52583,2.88212 -3.56026,5.425166 -6.18808,7.459603 -2.62781,2.119205 -5.76424,3.645033 -9.40927,4.74702 -3.81457,1.186755 -7.79868,1.780132 -12.12186,1.780132 z"
         fill="#252f3e"
         fill-rule="nonzero"
         id="path461"
         style="fill:#ffffff" /><path
         d="m 230.99338,120.96424 c -27.88874,20.59867 -68.40795,31.53377 -103.24769,31.53377 -48.826485,0 -92.821187,-18.05563 -126.0503258,-48.06357 -2.62781453,-2.37351 -0.2543046,-5.594705 2.8821192,-3.7298 35.9417216,20.85298 80.2754966,33.48344 126.1350966,33.48344 30.9404,0 64.93245,-6.44239 96.21192,-19.66623 4.66225,-2.1192 8.64636,3.05166 4.06888,6.44239 z m 11.61324,-13.22384 c -3.56026,-4.57749 -23.56556,-2.20398 -32.63576,-1.10199 -2.71258,0.33907 -3.13642,-2.03444 -0.67815,-3.81457 15.93643,-11.189403 42.12981,-7.968211 45.18146,-4.23841 3.05166,3.81457 -0.84768,30.00795 -15.76688,42.55364 -2.28875,1.94967 -4.49272,0.93245 -3.4755,-1.61059 3.39073,-8.39206 10.9351,-27.29537 7.37483,-31.78808 z"
         fill="#ff9900"
         id="path463" /></g></g></svg>
