<?xml version="1.0" encoding="UTF-8" standalone="no"?>
<!-- Created with Inkscape (http://www.inkscape.org/) -->

<svg
   width="220"
   height="116"
   viewBox="0 0 500 500"
   version="1.1"
   id="svg748"
   xml:space="preserve"
   inkscape:version="1.2.2 (b0a84865, 2022-12-01)"
   sodipodi:docname="cloud_native.svg"
   xmlns:inkscape="http://www.inkscape.org/namespaces/inkscape"
   xmlns:sodipodi="http://sodipodi.sourceforge.net/DTD/sodipodi-0.dtd"
   xmlns:xlink="http://www.w3.org/1999/xlink"
   xmlns="http://www.w3.org/2000/svg"
   xmlns:svg="http://www.w3.org/2000/svg"><sodipodi:namedview
     id="namedview750"
     pagecolor="#505050"
     bordercolor="#eeeeee"
     borderopacity="1"
     inkscape:showpageshadow="0"
     inkscape:pageopacity="0"
     inkscape:pagecheckerboard="0"
     inkscape:deskcolor="#505050"
     inkscape:document-units="mm"
     showgrid="false"
     inkscape:zoom="4.7572176"
     inkscape:cx="131.16911"
     inkscape:cy="53.812969"
     inkscape:window-width="1728"
     inkscape:window-height="966"
     inkscape:window-x="0"
     inkscape:window-y="38"
     inkscape:window-maximized="0"
     inkscape:current-layer="layer1" /><defs
     id="defs745"><style
       id="style869">
      .cls-1 {
        fill: #1d63ed;
        stroke-width: 0px;
      }
    </style><clipPath
       id="argocd-original-e"><path
         d="M42 41h44v51H42zm0 0"
         id="path2269" /></clipPath><clipPath
       id="argocd-original-d"><path
         d="M0 0h128v128H0z"
         id="path2272" /></clipPath><clipPath
       id="argocd-original-c"><path
         d="M0 0h128v128H0z"
         id="path2275" /></clipPath><clipPath
       id="argocd-original-f"><path
         d="M85.695 41.133l-2.55 58.238H44.887l-2.125-58.238"
         id="path2278" /></clipPath><clipPath
       id="argocd-original-b"><path
         d="M0 0h128v128H0z"
         id="path2281" /></clipPath><mask
       id="argocd-original-l"><g
         filter="url(#argocd-original-a)"
         id="g2286"><path
           d="M0 0h128v128H0z"
           fill-opacity=".251"
           id="path2284" /></g></mask><mask
       id="argocd-original-h"><g
         filter="url(#argocd-original-a)"
         id="g2291"><path
           d="M0 0h128v128H0z"
           fill-opacity=".22"
           id="path2289" /></g></mask><mask
       id="argocd-original-j"><g
         filter="url(#argocd-original-a)"
         id="g2296"><path
           d="M0 0h128v128H0z"
           fill-opacity=".502"
           id="path2294" /></g></mask><g
       id="argocd-original-i"
       clip-path="url(#argocd-original-b)"><path
         d="M58.488 30.508a2.974 2.974 0 11-5.948-.003 2.974 2.974 0 015.948.003zm0 0"
         fill="#fbdfc3"
         id="path2299" /></g><g
       id="argocd-original-g"
       clip-path="url(#argocd-original-c)"><path
         d="M84.422 65.363s2.55-22.531-.852-31.031C77.195 19.453 62.316 20.73 62.316 20.73s8.5 3.399 8.926 16.153c.426 8.926 0 22.105 0 22.105zm0 0"
         fill="#e34e3b"
         id="path2302" /></g><g
       id="argocd-original-k"
       clip-path="url(#argocd-original-d)"><path
         d="M83.145 90.867V87.47c-5.95 3.398-12.329 6.8-19.977 6.8-8.504 0-14.031-3.824-19.555-6.8l.422 3.398s6.38 6.805 19.555 6.805c12.328-.426 19.555-6.805 19.555-6.805zm0 0"
         fill="#e9654b"
         id="path2305" /></g><filter
       id="argocd-original-a"
       filterUnits="objectBoundingBox"
       x="0"
       y="0"
       width="1"
       height="1"><feColorMatrix
         in="SourceGraphic"
         values="0 0 0 0 1 0 0 0 0 1 0 0 0 0 1 0 0 0 1 0"
         id="feColorMatrix2308" /></filter></defs><g
     inkscape:label="Layer 1"
     inkscape:groupmode="layer"
     id="layer1"><path
       class="cls-1"
       d="m 252.30125,115.53722 c -5.72625,-3.85456 -20.77385,-5.50078 -31.71362,-2.55427 -0.58991,-10.89655 -6.20806,-20.078925 -16.48688,-28.090706 l -3.80514,-2.554268 -2.53572,3.829856 c -4.98498,7.567024 -7.08523,17.648188 -6.34087,26.812038 0.58683,5.64593 2.55117,11.99298 6.34087,16.59807 -14.23839,8.25887 -27.36179,6.3841 -85.48283,6.3841 H 22.541261 c -0.26252,13.12341 1.84698,38.36952 17.90145,58.92097 1.77285,2.27011 3.71865,4.4661 5.82816,6.58178 13.05237,13.0709 32.77299,22.65478 62.262819,22.68258 44.98836,0.0402 83.53392,-24.27629 106.9794,-83.07371 7.71529,0.12663 28.08142,1.38368 38.0483,-17.87675 0.244,-0.3243 2.53573,-5.10852 2.53573,-5.10852 l -3.79897,-2.55427 z M 81.103951,103.53496 h -25.23375 v 25.23377 h 25.23375 z m 32.600039,0 H 88.470221 v 25.23377 h 25.233769 z m 32.60004,0 h -25.23376 v 25.23377 h 25.23376 z m 32.60003,0 H 153.6703 v 25.23377 h 25.23376 z m -130.400129,0 h -25.23376 v 25.23377 h 25.23376 z m 32.60002,-31.87114 h -25.23375 v 25.233749 h 25.23375 z m 32.600039,0 H 88.470221 v 25.233749 h 25.233769 z m 32.60004,0 h -25.23376 v 25.233749 h 25.23376 z m 0,-31.874217 H 121.07027 V 65.02336 h 25.23376 z"
       id="path873" /><g
       id="g892"
       transform="matrix(0.29282401,0,0,0.29282401,271.28361,20.48303)"><path
         d="M 358.986,10.06 A 46.725,46.342 0 0 0 341.08,14.591 L 96.736,131.341 a 46.725,46.342 0 0 0 -25.28,31.438 l -60.282,262.25 a 46.725,46.342 0 0 0 6.344,35.531 46.725,46.342 0 0 0 2.656,3.688 l 169.125,210.28 a 46.725,46.342 0 0 0 36.531,17.438 l 271.219,-0.062 A 46.725,46.342 0 0 0 533.58,674.498 L 702.643,464.185 a 46.725,46.342 0 0 0 9.03,-39.219 L 651.3,162.716 A 46.725,46.342 0 0 0 626.019,131.279 L 381.643,14.59 a 46.725,46.342 0 0 0 -22.657,-4.53 z"
         fill="#326ce5"
         id="path880" /><path
         d="m 361.408,99.307 c -8.077,0.001 -14.626,7.276 -14.625,16.25 0,0.138 0.028,0.27 0.03,0.406 -0.011,1.22 -0.07,2.689 -0.03,3.75 0.192,5.176 1.32,9.138 2,13.907 1.23,10.206 2.26,18.667 1.625,26.531 -0.62,2.965 -2.803,5.677 -4.75,7.562 l -0.344,6.188 a 190.337,190.337 0 0 0 -26.438,4.062 c -37.974,8.623 -70.67,28.184 -95.562,54.594 a 245.167,245.167 0 0 1 -5.281,-3.75 c -2.612,0.353 -5.25,1.159 -8.688,-0.844 -6.545,-4.405 -12.506,-10.486 -19.719,-17.812 -3.305,-3.504 -5.698,-6.841 -9.625,-10.219 -0.891,-0.767 -2.252,-1.804 -3.25,-2.594 -3.07,-2.447 -6.69,-3.724 -10.187,-3.843 -4.496,-0.154 -8.824,1.604 -11.656,5.156 -5.036,6.315 -3.424,15.968 3.593,21.562 0.071,0.057 0.147,0.101 0.219,0.157 0.964,0.781 2.145,1.783 3.031,2.437 4.167,3.077 7.973,4.652 12.125,7.094 8.747,5.402 15.999,9.88 21.75,15.281 2.246,2.394 2.639,6.613 2.938,8.438 l 4.687,4.187 c -25.093,37.764 -36.707,84.41 -29.843,131.938 l -6.125,1.781 c -1.615,2.085 -3.896,5.365 -6.282,6.344 -7.525,2.37 -15.994,3.24 -26.218,4.312 -4.8,0.4 -8.943,0.161 -14.032,1.125 -1.12,0.212 -2.68,0.619 -3.906,0.906 l -0.125,0.032 c -0.067,0.015 -0.155,0.048 -0.219,0.062 -8.62,2.083 -14.157,10.006 -12.375,17.813 1.783,7.808 10.203,12.556 18.875,10.687 0.063,-0.014 0.154,-0.017 0.219,-0.031 0.098,-0.022 0.184,-0.07 0.281,-0.094 1.21,-0.265 2.724,-0.56 3.782,-0.843 5.003,-1.34 8.626,-3.308 13.125,-5.032 9.676,-3.47 17.691,-6.37 25.5,-7.5 3.26,-0.255 6.697,2.012 8.406,2.969 l 6.375,-1.094 c 14.67,45.483 45.414,82.245 84.344,105.313 l -2.657,6.375 c 0.958,2.475 2.014,5.824 1.3,8.27 -2.838,7.36 -7.7,15.13 -13.237,23.792 -2.681,4.002 -5.425,7.108 -7.844,11.688 -0.579,1.096 -1.316,2.78 -1.875,3.937 -3.759,8.043 -1.002,17.305 6.219,20.782 7.266,3.497 16.284,-0.192 20.187,-8.25 0.006,-0.012 0.026,-0.02 0.031,-0.032 0.004,-0.009 -0.004,-0.022 0,-0.03 0.556,-1.143 1.344,-2.645 1.813,-3.72 2.072,-4.747 2.762,-8.815 4.219,-13.406 3.87,-9.72 5.995,-19.919 11.322,-26.274 1.459,-1.74 3.837,-2.41 6.303,-3.07 l 3.312,-6 c 33.938,13.027 71.927,16.523 109.875,7.907 a 189.77,189.77 0 0 0 25.094,-7.563 c 0.93,1.651 2.661,4.826 3.125,5.625 2.506,0.815 5.24,1.236 7.469,4.531 3.985,6.81 6.71,14.865 10.031,24.594 1.457,4.591 2.178,8.66 4.25,13.406 0.472,1.082 1.256,2.605 1.812,3.75 3.895,8.085 12.943,11.787 20.22,8.282 7.219,-3.478 9.979,-12.74 6.218,-20.782 -0.559,-1.158 -1.327,-2.841 -1.906,-3.937 -2.42,-4.58 -5.163,-7.655 -7.844,-11.656 -5.537,-8.662 -10.13,-15.858 -12.969,-23.22 -1.187,-3.796 0.2,-6.157 1.125,-8.624 -0.554,-0.635 -1.739,-4.22 -2.437,-5.906 40.457,-23.889 70.298,-62.022 84.312,-106.063 1.893,0.298 5.182,0.88 6.25,1.094 2.2,-1.45 4.222,-3.344 8.188,-3.031 7.808,1.129 15.823,4.03 25.5,7.5 4.498,1.723 8.121,3.723 13.125,5.062 1.057,0.283 2.572,0.547 3.781,0.813 0.097,0.023 0.183,0.071 0.281,0.093 0.066,0.015 0.156,0.017 0.219,0.032 8.672,1.866 17.094,-2.88 18.875,-10.688 1.78,-7.807 -3.754,-15.732 -12.375,-17.812 -1.254,-0.286 -3.032,-0.77 -4.25,-1 -5.09,-0.964 -9.231,-0.727 -14.031,-1.125 -10.225,-1.072 -18.694,-1.943 -26.219,-4.313 -3.068,-1.19 -5.251,-4.841 -6.313,-6.344 l -5.906,-1.718 c 3.062,-22.155 2.237,-45.212 -3.062,-68.282 -5.349,-23.284 -14.8,-44.58 -27.407,-63.343 1.515,-1.378 4.377,-3.911 5.188,-4.657 0.237,-2.624 0.033,-5.375 2.75,-8.281 5.751,-5.4 13.003,-9.879 21.75,-15.281 4.152,-2.443 7.99,-4.017 12.156,-7.094 0.942,-0.696 2.23,-1.798 3.219,-2.594 7.015,-5.596 8.63,-15.248 3.594,-21.562 -5.037,-6.314 -14.797,-6.91 -21.813,-1.313 -0.998,0.791 -2.353,1.823 -3.25,2.594 -3.926,3.378 -6.351,6.714 -9.656,10.219 -7.213,7.326 -13.174,13.438 -19.719,17.844 -2.836,1.65 -6.99,1.08 -8.875,0.968 l -5.562,3.969 c -31.72,-33.26 -74.905,-54.525 -121.406,-58.656 -0.13,-1.949 -0.3,-5.471 -0.344,-6.532 -1.904,-1.821 -4.204,-3.376 -4.781,-7.312 -0.637,-7.864 0.426,-16.325 1.656,-26.531 0.679,-4.769 1.807,-8.73 2,-13.907 0.044,-1.176 -0.027,-2.884 -0.031,-4.156 -0.001,-8.974 -6.548,-16.25 -14.625,-16.25 z m -18.313,113.438 -4.344,76.718 -0.312,0.157 c -0.292,6.863 -5.94,12.343 -12.875,12.343 -2.841,0 -5.463,-0.912 -7.594,-2.468 l -0.125,0.062 -62.906,-44.594 c 19.333,-19.01 44.063,-33.06 72.562,-39.53 a 154.125,154.125 0 0 1 15.594,-2.688 z m 36.656,0 c 33.274,4.092 64.045,19.159 87.625,42.25 l -62.5,44.312 -0.218,-0.093 c -5.548,4.051 -13.364,3.046 -17.688,-2.375 a 12.807,12.807 0 0 1 -2.812,-7.47 l -0.063,-0.03 z m -147.625,70.875 57.438,51.375 -0.063,0.312 c 5.185,4.507 5.95,12.328 1.625,17.75 a 12.892,12.892 0 0 1 -6.687,4.406 l -0.063,0.25 -73.625,21.25 c -3.747,-34.265 4.329,-67.573 21.375,-95.343 z m 258.157,0.03 c 8.534,13.833 14.996,29.283 18.843,46.032 3.801,16.548 4.755,33.067 3.188,49.031 l -74,-21.312 -0.063,-0.313 c -6.626,-1.81 -10.699,-8.551 -9.156,-15.312 a 12.786,12.786 0 0 1 4.094,-6.844 l -0.031,-0.156 57.125,-51.125 z m -140.657,55.313 h 23.532 l 14.625,18.282 -5.25,22.812 -21.125,10.156 -21.188,-10.187 -5.25,-22.813 z m 75.438,62.563 c 1,-0.05 1.995,0.04 2.969,0.219 l 0.125,-0.157 76.156,12.875 c -11.146,31.314 -32.473,58.44 -60.969,76.594 l -29.562,-71.406 0.093,-0.125 c -2.715,-6.31 0.002,-13.71 6.25,-16.719 1.6,-0.77 3.271,-1.197 4.938,-1.281 z m -127.906,0.312 c 5.811,0.082 11.024,4.116 12.375,10.032 0.632,2.77 0.324,5.513 -0.72,7.937 l 0.22,0.281 -29.25,70.688 c -27.348,-17.549 -49.13,-43.824 -60.782,-76.063 l 75.5,-12.812 0.125,0.156 c 0.845,-0.155 1.701,-0.23 2.532,-0.219 z m 63.78,30.97 a 12.764,12.764 0 0 1 6.032,1.28 c 2.56,1.233 4.537,3.174 5.781,5.5 h 0.282 l 37.218,67.25 a 154.256,154.256 0 0 1 -14.875,4.157 c -28.464,6.463 -56.838,4.504 -82.53,-4.25 L 349.97,439.62 h 0.063 a 12.91,12.91 0 0 1 10.906,-6.813 z"
         style="line-height:normal;-inkscape-font-specification:Sans;text-indent:0;text-align:start;text-transform:none;marker:none"
         font-weight="400"
         color="#000000"
         fill="#ffffff"
         stroke="#ffffff"
         stroke-width="0.25"
         overflow="visible"
         font-family="Sans"
         id="path882" /></g><g
       id="g2401"
       transform="matrix(1.6539069,0,0,1.6539069,270.68184,258.69619)"><path
         d="m 44.035,89.594 c 0,0 -0.847,2.55 -2.125,3.824 a 3.844,3.844 0 0 1 -2.972,1.277 49.946,49.946 0 0 1 -6.38,1.274 c 0,0 2.977,0.426 6.38,0.851 1.273,0 1.273,0 2.124,0.426 2.126,0 2.973,-1.277 2.973,-1.277 z m 39.11,0 c 0,0 0.851,2.55 2.125,3.824 a 3.858,3.858 0 0 0 2.976,1.277 49.8,49.8 0 0 0 6.375,1.274 c 0,0 -2.973,0.426 -6.8,0.851 -1.274,0 -1.274,0 -2.126,0.426 -2.55,0 -2.976,-1.277 -2.976,-1.277 z m 0,0"
         fill="#e9654b"
         id="path2313" /><path
         d="m 109.926,47.508 c 0,25.355 -20.555,45.91 -45.91,45.91 -25.356,0 -45.91,-20.555 -45.91,-45.91 0,-25.352 20.554,-45.906 45.91,-45.906 25.355,0 45.91,20.554 45.91,45.906 z m 0,0"
         fill="#b6cfea"
         id="path2315" /><path
         d="m 108.227,47.508 c 0,24.418 -19.793,44.21 -44.211,44.21 -24.414,0 -44.207,-19.792 -44.207,-44.21 0,-24.414 19.793,-44.208 44.207,-44.208 24.418,0 44.21,19.793 44.21,44.207 z m 0,0"
         fill="#e6f5f8"
         id="path2317" /><path
         d="m 100.148,48.36 c 0,19.956 -16.175,36.132 -36.132,36.132 -19.954,0 -36.133,-16.176 -36.133,-36.133 0,-19.953 16.18,-36.132 36.133,-36.132 19.957,0 36.132,16.18 36.132,36.132 z m 0,0"
         fill="#d0e8f0"
         id="path2319" /><path
         d="m 42.762,65.363 c 0,0 2.976,48.035 2.976,48.887 0,0.422 0.426,1.273 -1.703,2.125 -2.125,0.848 -8.926,2.55 -8.926,2.55 h 10.203 c 4.676,0 4.676,-3.827 4.676,-4.675 0,-0.852 1.274,-19.129 1.274,-19.129 0,0 0.425,21.68 0.425,22.527 0,0.852 -0.425,2.125 -3.398,2.977 -2.125,0.426 -8.504,1.7 -8.504,1.7 h 9.778 c 5.953,0 5.953,-3.825 5.953,-3.825 l 1.273,-19.129 c 0,0 0.426,19.129 0.426,21.254 0,1.7 -1.274,2.977 -5.953,3.824 -2.973,0.852 -6.801,1.703 -6.801,1.703 h 11.055 c 5.523,-0.425 6.375,-4.254 6.375,-4.254 l 9.351,-47.609 z m 0,0"
         fill="#ee794b"
         id="path2321" /><path
         d="m 85.27,65.363 c 0,0 -2.973,48.035 -2.973,48.887 0,0.422 -0.426,1.273 1.7,2.125 2.124,0.848 8.925,2.55 8.925,2.55 H 82.719 c -4.676,0 -4.676,-3.827 -4.676,-4.675 0,-0.852 -1.273,-19.129 -1.273,-19.129 0,0 -0.426,21.68 -0.426,22.527 0,0.852 0.426,2.125 3.402,2.977 l 8.5,1.7 H 78.47 c -5.95,0 -5.95,-3.825 -5.95,-3.825 L 71.243,99.371 c 0,0 -0.426,19.129 -0.426,21.254 0,1.7 1.278,2.977 5.954,3.824 2.976,0.852 6.8,1.703 6.8,1.703 H 72.52 c -5.528,-0.425 -6.38,-4.254 -6.38,-4.254 L 56.79,74.29 Z m 0.425,-23.379 c 0,11.903 -9.777,21.254 -21.254,21.254 -11.476,0 -21.254,-9.777 -21.254,-21.254 0,-11.476 9.778,-21.254 21.254,-21.254 11.477,0 21.254,9.352 21.254,21.254 z m 0,0"
         fill="#ee794b"
         id="path2323" /><g
         clip-path="url(#argocd-original-e)"
         id="g2329"><g
           clip-path="url(#argocd-original-f)"
           id="g2327"><path
             d="m 102.273,53.46 c 0,20.895 -16.937,37.833 -37.832,37.833 -20.894,0 -37.832,-16.938 -37.832,-37.832 0,-20.895 16.938,-37.832 37.832,-37.832 20.895,0 37.832,16.937 37.832,37.832 z m 0,0"
             fill="#ee794b"
             id="path2325" /></g></g><use
         xlink:href="#argocd-original-g"
         mask="url(#argocd-original-h)"
         id="use2331" /><use
         xlink:href="#argocd-original-i"
         mask="url(#argocd-original-j)"
         id="use2333" /><path
         d="m 71.668,73.863 c 0,7.227 -3.402,11.907 -7.652,11.907 -4.25,0 -7.653,-5.528 -7.653,-12.754 0,0 3.403,6.8 8.078,6.8 4.676,0 7.227,-5.953 7.227,-5.953 z m 0,0"
         fill="#010101"
         id="path2335" /><path
         d="m 71.668,73.863 c 0,4.68 -3.402,7.227 -7.652,7.227 -4.25,0 -7.227,-3.399 -7.227,-7.649 0,0 3.402,4.25 8.078,4.25 4.676,0 6.801,-3.828 6.801,-3.828 z m 0,0"
         fill="#ffffff"
         id="path2337" /><path
         d="m 92.07,53.887 c 0,7.277 -5.898,13.175 -13.175,13.175 -7.278,0 -13.18,-5.898 -13.18,-13.175 0,-7.278 5.902,-13.18 13.18,-13.18 7.277,0 13.175,5.902 13.175,13.18 z m -29.754,0 c 0,7.277 -5.902,13.175 -13.18,13.175 -7.277,0 -13.175,-5.898 -13.175,-13.175 0,-7.278 5.898,-13.18 13.176,-13.18 7.277,0 13.18,5.902 13.18,13.18 z m 0,0"
         fill="#e9654b"
         id="path2339" /><path
         d="m 89.098,53.887 c 0,5.633 -4.57,10.203 -10.203,10.203 -5.633,0 -10.204,-4.57 -10.204,-10.203 0,-5.637 4.57,-10.203 10.204,-10.203 5.632,0 10.203,4.566 10.203,10.203 z m -30.61,0 c 0,5.633 -4.566,10.203 -10.199,10.203 -5.637,0 -10.203,-4.57 -10.203,-10.203 A 10.201,10.201 0 0 1 48.289,43.684 c 5.633,0 10.2,4.566 10.2,10.203 z m 0,0"
         fill="#ffffff"
         id="path2341" /><path
         d="m 51.262,52.61 a 2.9750004,2.9750004 0 1 1 -5.95,0.003 2.9750007,2.9750007 0 0 1 5.95,-0.004 z m 30.609,0 a 2.976,2.976 0 1 1 -5.951,10e-4 2.976,2.976 0 0 1 5.951,-0.002 z m 0,0"
         fill="#010101"
         id="path2343" /><path
         d="M 17.258,58.988 A 2.005,2.005 0 0 1 15.133,56.863 V 39.86 a 2.008,2.008 0 0 1 0.582,-1.543 2.008,2.008 0 0 1 1.543,-0.582 2.005,2.005 0 0 1 2.125,2.125 v 17.004 c 0.035,0.57 -0.18,1.133 -0.586,1.54 a 2.008,2.008 0 0 1 -1.54,0.585 z m 92.668,0 a 2.003,2.003 0 0 1 -1.54,-0.586 2.008,2.008 0 0 1 -0.585,-1.539 V 39.86 a 2.011,2.011 0 0 1 0.586,-1.543 2,2 0 0 1 1.539,-0.582 2,2 0 0 1 1.539,0.582 c 0.41,0.407 0.62,0.97 0.586,1.543 v 17.004 a 1.994,1.994 0 0 1 -0.586,1.54 2.003,2.003 0 0 1 -1.54,0.585 z m 0,0"
         fill="#b6cfea"
         id="path2345" /><path
         d="m 51.688,13.504 a 2.125,2.125 0 1 1 -4.25,0 2.125,2.125 0 0 1 4.25,0 z M 34.262,70.89 A 1.559,1.559 0 0 1 32.984,70.465 C 27.883,64.09 25.332,56.012 25.332,47.934 a 37.933,37.933 0 0 1 5.102,-19.13 41.641,41.641 0 0 1 13.601,-13.6 1.873,1.873 0 0 1 2.13,0.425 1.874,1.874 0 0 1 -0.427,2.125 34.305,34.305 0 0 0 -17.43,29.754 33.487,33.487 0 0 0 7.227,20.832 c 0.426,0.426 0.426,1.7 -0.426,2.125 -0.425,0.426 -0.425,0.426 -0.847,0.426 z m 0,0"
         fill="#ffffff"
         id="path2347" /><use
         xlink:href="#argocd-original-k"
         mask="url(#argocd-original-l)"
         id="use2349" /></g><path
       d="m 48.5391,442.27624 h 140.28251 l -87.65431,26.29179 z m 0,-8.77877 52.6282,-8.77888 v -96.43303 z m 61.36245,-8.77888 78.92006,8.77888 -78.92006,-175.35326 z"
       fill="#466bb0"
       id="path2403"
       style="stroke-width:0.445625;fill:#ffffff" /></g></svg>
