<?xml version="1.0" encoding="UTF-8" standalone="no"?>
<!-- Uploaded to: SVG Repo, www.svgrepo.com, Generator: SVG Repo Mixer Tools -->

<svg
   fill="#000000"
   width="250"
   height="250"
   viewBox="0 0 256 256"
   id="Flat"
   version="1.1"
   sodipodi:docname="git_pull_request.svg"
   inkscape:version="1.2.2 (b0a84865, 2022-12-01)"
   xmlns:inkscape="http://www.inkscape.org/namespaces/inkscape"
   xmlns:sodipodi="http://sodipodi.sourceforge.net/DTD/sodipodi-0.dtd"
   xmlns="http://www.w3.org/2000/svg"
   xmlns:svg="http://www.w3.org/2000/svg">
  <defs
     id="defs2581">
    <inkscape:perspective
       sodipodi:type="inkscape:persp3d"
       inkscape:vp_x="0 : 128 : 1"
       inkscape:vp_y="0 : 1000 : 0"
       inkscape:vp_z="256 : 128 : 1"
       inkscape:persp3d-origin="128 : 85.333333 : 1"
       id="perspective2863" />
  </defs>
  <sodipodi:namedview
     id="namedview2579"
     pagecolor="#505050"
     bordercolor="#eeeeee"
     borderopacity="1"
     inkscape:showpageshadow="0"
     inkscape:pageopacity="0"
     inkscape:pagecheckerboard="0"
     inkscape:deskcolor="#505050"
     showgrid="false"
     inkscape:zoom="1.18"
     inkscape:cx="171.18644"
     inkscape:cy="225.42373"
     inkscape:window-width="1728"
     inkscape:window-height="966"
     inkscape:window-x="0"
     inkscape:window-y="38"
     inkscape:window-maximized="1"
     inkscape:current-layer="Flat" />
  <path
     d="M 94.265157,54.720158 A 39.545408,39.545408 0 1 0 49.776573,93.945606 v 69.844384 a 39.545408,39.545408 0 1 0 9.886352,0 V 93.945606 A 39.596075,39.596075 0 0 0 94.265157,54.720158 Z m -69.204463,0 A 29.659056,29.659056 0 1 1 54.719749,84.379213 29.692644,29.692644 0 0 1 25.060694,54.720158 Z M 84.378805,203.01544 a 29.659056,29.659056 0 1 1 -29.659056,-29.65906 29.692644,29.692644 0 0 1 29.659056,29.65906 z m 123.583025,-39.22545 -0.002,-44.95572 A 63.845813,63.845813 0 0 0 189.13769,73.397119 L 150.68748,34.947454 h 37.49802 a 4.943176,4.943176 0 0 0 0,-9.886352 h -49.43176 c -0.0144,0 -0.0278,0.0041 -0.0422,0.0043 a 4.9682873,4.9682873 0 0 0 -0.92624,0.09337 c -0.14361,0.02859 -0.27696,0.08244 -0.41575,0.123319 a 4.9007881,4.9007881 0 0 0 -0.50747,0.157416 4.8466481,4.8466481 0 0 0 -0.45377,0.238805 c -0.13275,0.07196 -0.27033,0.130636 -0.39704,0.215646 a 4.9723406,4.9723406 0 0 0 -0.74582,0.609247 l -0.007,0.0054 v 1.49e-4 a 4.9457711,4.9457711 0 0 0 -0.61608,0.753969 c -0.0815,0.121961 -0.13758,0.254031 -0.20698,0.381206 a 2.9016443,2.9016443 0 0 0 -0.40368,0.973806 c -0.0411,0.139843 -0.0947,0.27358 -0.1237,0.418242 a 4.9326098,4.9326098 0 0 0 -0.0977,0.968257 v 49.431759 a 4.9431765,4.9431765 0 0 0 9.88635,0 V 41.937797 l 38.45081,38.449802 a 54.024069,54.024069 0 0 1 15.92536,38.447211 l 0.002,44.95525 a 39.54511,39.54511 0 1 0 9.88635,-7e-5 z m -4.94319,68.8845 a 29.659056,29.659056 0 1 1 29.65906,-29.65905 29.692644,29.692644 0 0 1 -29.65906,29.65905 z"
     id="path2576"
     style="fill:#aa87de;stroke-width:1.23579" />
  <path
     style="fill:#ffffff;stroke-width:0.847458"
     d="m 98.728814,472.86586 c -11.847289,-1.29415 -25.251129,-6.2 -34.89263,-12.77081 C 57.917867,456.06164 48.697395,446.99803 44.3792,440.96908 31.607148,423.1371 27.048511,398.97755 32.480076,377.90692 c 7.332528,-28.44501 29.877582,-50.2254 58.409755,-56.42866 l 6.567796,-1.42792 v -68.46135 -68.46134 l -3.177966,-0.52211 C 58.104556,176.66236 30.439216,144.24509 30.373181,107.72219 30.33255,85.250121 38.084802,66.795875 53.930931,51.642925 68.834136,37.391655 86.368203,30.315762 106.77966,30.315762 c 36.15703,0 66.31581,24.140273 75.16009,60.161092 1.89419,7.714665 1.89419,24.890956 0,32.605616 -7.42553,30.24254 -29.76313,52.41388 -59.27026,58.8291 l -6.5678,1.42792 V 251.76475 320.19 l 3.6017,0.59423 c 21.38753,3.52864 41.72952,17.53343 52.98734,36.48004 18.00511,30.3021 13.36295,68.14535 -11.43072,93.1842 -6.20879,6.27019 -16.30085,13.18245 -24.45776,16.75162 -10.59091,4.63422 -26.22225,6.96034 -38.073436,5.66577 z M 123.03728,452.4422 c 23.44261,-6.49628 40.14891,-27.35894 41.92304,-52.35308 0.72957,-10.27823 -1.18809,-19.45398 -6.2137,-29.73172 -3.21554,-6.57599 -5.17465,-9.27937 -10.80473,-14.90946 -5.63009,-5.63008 -8.33347,-7.58919 -14.90946,-10.80473 -18.37707,-8.98602 -38.565072,-8.36002 -55.900792,1.73341 -6.741291,3.92501 -16.403702,13.45602 -20.247894,19.97255 -13.636326,23.1158 -10.011636,52.58822 8.778528,71.37839 14.943014,14.94301 36.552088,20.48497 57.375008,14.71464 z m -4.56935,-288.48295 c 3.91315,-0.7758 9.75253,-2.86772 14.5645,-5.21767 6.59264,-3.21954 9.27208,-5.16231 14.94823,-10.83847 5.70884,-5.70884 7.58976,-8.31087 10.7775,-14.90946 8.95447,-18.53562 8.32898,-38.559786 -1.74495,-55.862012 C 153.10534,70.419775 143.56408,60.731549 137.11952,56.931537 113.98001,43.287397 84.42623,46.898315 65.662272,65.662272 39.877456,91.447089 43.99315,134.80413 74.139609,154.96731 c 13.537405,9.05436 28.600781,12.10994 44.328321,8.99194 z"
     id="path4800"
     transform="scale(0.512)" />
  <path
     style="fill:#ffffff;stroke-width:0.211864"
     d="M 77.648305,178.23584 C 71.047195,175.5725 63.170415,170.81252 57.44415,166.02634 33.767921,146.23708 24.138753,114.10126 33.045886,84.601 c 0.926007,-3.066919 2.949905,-8.421593 3.119134,-8.252364 0.05871,0.05871 -0.274717,1.090195 -0.740946,2.29219 -3.260717,8.406508 -4.804112,16.505105 -5.059756,26.549854 -0.17383,6.83014 0.284062,11.89005 1.639249,18.1144 2.017684,9.2672 5.934641,18.33054 11.445343,26.48306 8.171041,12.08821 20.418516,22.27845 33.351938,27.74972 3.433455,1.45247 3.445375,1.45815 3.072033,1.4631 -0.174788,0.002 -1.175847,-0.34199 -2.224576,-0.76512 z"
     id="path4802"
     transform="scale(0.512)" />
</svg>
