<?xml version="1.0" encoding="UTF-8" standalone="no"?>
<!-- Uploaded to: SVG Repo, www.svgrepo.com, Generator: SVG Repo Mixer Tools -->

<svg
   width="850"
   height="850"
   viewBox="0 0 25.5 25.5"
   fill="none"
   version="1.1"
   id="svg3671"
   sodipodi:docname="cloud_migrate.svg"
   inkscape:version="1.2.2 (b0a84865, 2022-12-01)"
   xmlns:inkscape="http://www.inkscape.org/namespaces/inkscape"
   xmlns:sodipodi="http://sodipodi.sourceforge.net/DTD/sodipodi-0.dtd"
   xmlns="http://www.w3.org/2000/svg"
   xmlns:svg="http://www.w3.org/2000/svg">
  <defs
     id="defs3675" />
  <sodipodi:namedview
     id="namedview3673"
     pagecolor="#505050"
     bordercolor="#eeeeee"
     borderopacity="1"
     inkscape:showpageshadow="0"
     inkscape:pageopacity="0"
     inkscape:pagecheckerboard="0"
     inkscape:deskcolor="#505050"
     showgrid="false"
     inkscape:zoom="0.59"
     inkscape:cx="154.23729"
     inkscape:cy="472.88136"
     inkscape:window-width="1728"
     inkscape:window-height="966"
     inkscape:window-x="0"
     inkscape:window-y="38"
     inkscape:window-maximized="1"
     inkscape:current-layer="svg3671" />
  <path
     d="m 12.711864,16.813559 v 6 m 0,-6 2,2 m -2,-2 -2,2"
     stroke="#1c274c"
     stroke-width="1.5"
     stroke-linecap="round"
     stroke-linejoin="round"
     id="path3667" />
  <path
     d="m 22.711864,14.166459 c 0,2.3429 -1.4438,4.3526 -3.5,5.2075 m -4.119,-10.5331897 c 0.5957,-0.2081 1.2368,-0.32133 1.9047,-0.32133 0.6547,0 1.2836,0.1088 1.8694,0.3091 M 7.8280244,11.422459 c -0.26866,-0.0522 -0.54633,-0.0795 -0.83045,-0.0795 -2.36693,0 -4.28571,1.8962 -4.28571,4.2353 0,1.8964 1.26124,3.5017 3,4.0414 m 2.11616,-8.1972 c -0.2291,-0.6111 -0.35426,-1.27203 -0.35426,-1.9618397 0,-3.11879 2.5583796,-5.64706 5.7142996,-5.64706 2.9397,0 5.3609,2.19371 5.6789,5.01498 M 7.8280244,11.422459 c 0.56443,0.1095 1.08912,0.3285 1.55051,0.6337 M 18.866964,8.8285393 c 0.8895,0.30418 1.6794,0.81938 2.3082,1.4850197"
     stroke="#1c274c"
     stroke-width="1.5"
     stroke-linecap="round"
     id="path3669" />
  <path
     style="fill:#ffffff;stroke-width:0.847458"
     d="m 183.44762,677.60061 c -6.7714,-1.90561 -17.02638,-6.13871 -26.85265,-11.08437 -44.90506,-22.6012 -77.001523,-64.69819 -87.54445,-114.82132 -3.039223,-14.44906 -3.850015,-39.71872 -1.740235,-54.23729 5.328062,-36.66536 20.512126,-67.59272 45.814475,-93.31631 9.70227,-9.86379 16.7742,-15.71861 27.97694,-23.16195 21.89173,-14.54535 49.03383,-24.00462 76.6662,-26.71888 5.34437,-0.52496 9.7991,-1.03652 9.89938,-1.13681 0.10029,-0.10028 -0.37125,-3.79965 -1.04787,-8.22081 -0.67661,-4.42115 -1.46679,-14.33084 -1.75595,-22.02151 -4.62299,-122.95563 97.56187,-224.360105 221.74671,-220.05323 22.93342,0.79536 41.63464,4.14182 62.71186,11.22189 12.37097,4.15554 34.70123,14.69421 44.91526,21.19756 42.59385,27.11984 74.04179,66.94314 89.28006,113.05751 2.54134,7.69067 5.27935,17.10109 6.08444,20.91203 l 1.46382,6.92899 11.11974,5.49581 c 19.88945,9.83015 37.52662,22.16029 54.0766,37.80496 11.38008,10.75758 13.83331,15.13398 13.80145,24.62092 -0.0175,5.20374 -0.42624,7.12406 -2.25484,10.59322 -4.46754,8.47566 -12.21799,13.34718 -21.45263,13.48399 -8.13274,0.12048 -12.1459,-1.95281 -22.37937,-11.56174 -34.29736,-32.20421 -71.79315,-47.49735 -116.60368,-47.55829 -21.20213,-0.0288 -32.46366,1.66105 -53.79959,8.07304 -8.32311,2.50131 -9.22974,2.6108 -14.35218,1.73337 -12.01907,-2.05878 -20.44862,-11.89859 -20.37036,-23.77831 0.0867,-13.16711 5.95834,-20.13188 21.25621,-25.21367 24.98917,-8.30116 56.57534,-12.00017 83.26576,-9.75114 6.4694,0.54514 11.93651,0.81719 12.14914,0.60456 0.71417,-0.71417 -5.61031,-15.12533 -10.54645,-24.03147 C 545.11958,164.75067 456.21342,133.09044 378.81356,163.2454 301.70329,193.28753 259.26336,274.11911 278.51978,354.26616 l 1.33042,5.53734 8.07677,2.76323 c 17.06041,5.83671 37.49906,16.91463 43.23961,23.43624 7.66351,8.7062 7.96516,21.56848 0.72812,31.04654 -4.24035,5.55342 -10.40159,8.59205 -18.30291,9.02672 -7.04065,0.38732 -4.94561,1.18821 -24.90334,-9.5201 -40.17891,-21.55799 -90.18887,-17.52596 -127.34482,10.26712 -8.0488,6.02061 -21.00624,19.64025 -26.5005,27.85484 -8.30981,12.42421 -14.41263,26.94575 -17.62236,41.93208 -1.9448,9.08035 -2.1621,34.57399 -0.37201,43.64407 3.15628,15.99228 11.25447,34.53025 20.68536,47.35191 6.37618,8.66867 17.72744,19.83087 26.64176,26.19804 8.09204,5.77984 20.79917,12.41576 28.83306,15.0572 10.98971,3.61327 16.1862,7.58629 19.84287,15.17102 2.5131,5.2127 2.57972,14.16227 0.14567,19.56997 -5.1214,11.3782 -17.69489,17.33446 -29.54986,13.99823 z"
     id="path3794"
     transform="scale(0.03)" />
  <path
     style="fill:#ffffff;stroke-width:0.847458"
     d="m 633.35992,669.41605 c -4.17935,-1.21127 -10.63082,-5.95972 -13.13359,-9.66667 -6.2913,-9.31829 -5.40231,-21.7492 2.19925,-30.75262 1.57536,-1.86588 6.03613,-4.55545 13.53726,-8.16212 20.97401,-10.08466 36.48484,-21.12611 50.98593,-36.29451 18.72605,-19.58779 32.13131,-42.87923 39.27429,-68.23852 3.53472,-12.54912 5.05494,-22.14269 5.90812,-37.28426 0.64343,-11.41899 0.99167,-13.46935 2.97679,-17.52679 8.89639,-18.18356 34.61683,-18.39411 43.63001,-0.35715 2.48472,4.97237 2.61795,5.75137 2.61795,15.30654 0,16.97533 -2.92317,36.73968 -8.04584,54.40014 -14.14637,48.76978 -45.52072,90.8555 -88.98806,119.36906 -9.90794,6.49938 -28.452,16.22439 -35.91163,18.83305 -4.04973,1.4162 -10.86947,1.58561 -15.05048,0.37385 z"
     id="path3796"
     transform="scale(0.03)" />
  <path
     style="fill:#aa87de;stroke-width:0.847458"
     d="m 415.56953,783.71887 c -4.53118,-1.45958 -10.59014,-6.75605 -13.36717,-11.68497 l -2.62609,-4.66102 -0.23014,-73.67716 -0.23015,-73.67716 -13.7529,13.62047 c -14.83825,14.69536 -18.40546,17.13785 -26.04062,17.83018 -14.47181,1.31227 -26.56585,-9.77328 -26.56585,-24.35057 0,-10.41179 -0.29612,-10.04157 40.79332,-51.00112 40.59261,-40.46429 40.13747,-40.10057 50.17888,-40.10057 10.04141,0 9.58628,-0.36372 50.17889,40.10057 41.08644,40.95657 40.84739,40.65809 40.84739,51.00112 0,18.05228 -19.17685,30.06874 -35.15542,22.02885 -2.2193,-1.11668 -9.37077,-7.45245 -17.50512,-15.50846 l -13.75291,-13.62047 -0.23014,73.67716 -0.23014,73.67716 -2.62609,4.66102 c -2.92448,5.19063 -8.9192,10.27219 -13.86682,11.75454 -3.83636,1.1494 -12.14814,1.11284 -15.81892,-0.0696 z"
     id="path3798"
     transform="scale(0.03)" />
</svg>
