<?xml version="1.0" encoding="UTF-8" standalone="no"?>
<!-- Generator: Adobe Illustrator 27.5.0, SVG Export Plug-In . SVG Version: 6.00 Build 0)  -->

<svg
   version="1.1"
   x="0px"
   y="0px"
   viewBox="0 0 500 450"
   style="enable-background:new 0 0 500 500;"
   xml:space="preserve"
   id="svg4314"
   sodipodi:docname="digital_transformation.svg"
   inkscape:version="1.2.2 (b0a84865, 2022-12-01)"
   xmlns:inkscape="http://www.inkscape.org/namespaces/inkscape"
   xmlns:sodipodi="http://sodipodi.sourceforge.net/DTD/sodipodi-0.dtd"
   xmlns="http://www.w3.org/2000/svg"
   xmlns:svg="http://www.w3.org/2000/svg"><defs
   id="defs4318"><style
     id="style4496">
      .cls-1 {
        fill: #1d63ed;
        stroke-width: 0px;
      }
    </style><style
     id="style4507">
      .cls-1 {
        fill: #fff;
        stroke-width: 0px;
      }
    </style><style
     id="style4518">.cls-1{fill:#fff}</style><style
     id="style5208">
      .cls-1 {
        fill: #fff;
        stroke-width: 0px;
      }
    </style></defs><sodipodi:namedview
   id="namedview4316"
   pagecolor="#505050"
   bordercolor="#eeeeee"
   borderopacity="1"
   inkscape:showpageshadow="0"
   inkscape:pageopacity="0"
   inkscape:pagecheckerboard="0"
   inkscape:deskcolor="#505050"
   showgrid="false"
   inkscape:zoom="1.888"
   inkscape:cx="352.22458"
   inkscape:cy="262.71186"
   inkscape:window-width="1728"
   inkscape:window-height="966"
   inkscape:window-x="0"
   inkscape:window-y="38"
   inkscape:window-maximized="1"
   inkscape:current-layer="svg4314" />
<g
   id="OBJECTS">
	<g
   style="opacity:0.45;"
   id="g3582">
		<circle
   style="fill:#DED7FF;"
   cx="371.5"
   cy="373.5"
   r="82.5"
   id="circle3578" />
		<circle
   style="fill:#DED7FF;"
   cx="189.5"
   cy="209.5"
   r="140.5"
   id="circle3580" />
	</g>
	<path
   style="fill:none;stroke:#0F1B63;stroke-miterlimit:10;"
   d="M445.913,195.421l-4.194,3.84   c-0.14,0.128-0.262,0.267-0.374,0.412c-2.664-1.857-5.593-3.191-8.641-3.996c0.04-0.183,0.07-0.37,0.077-0.562l0.223-5.682   c0.069-1.768-1.313-3.263-3.081-3.332l-5.682-0.223c-1.767-0.069-3.263,1.313-3.332,3.081l-0.223,5.682   c-0.007,0.191,0.008,0.379,0.033,0.564c-3.018,0.548-5.965,1.606-8.705,3.178c-0.099-0.154-0.209-0.303-0.336-0.443l-3.84-4.194   c-1.195-1.305-3.229-1.395-4.534-0.2l-4.194,3.84c-1.305,1.195-1.395,3.229-0.199,4.534l3.84,4.194   c0.128,0.139,0.267,0.262,0.412,0.374c-1.857,2.664-3.191,5.593-3.996,8.641c-0.183-0.04-0.37-0.07-0.561-0.077l-5.682-0.223   c-0.851-0.034-1.665,0.264-2.293,0.839c-0.004,0.003-0.008,0.007-0.011,0.011c-0.629,0.582-0.995,1.374-1.028,2.231l-0.223,5.682   l0,0c-0.069,1.768,1.313,3.263,3.081,3.332l5.682,0.223c0.192,0.008,0.379-0.009,0.564-0.035c0.548,3.019,1.606,5.966,3.178,8.706   c-0.154,0.098-0.303,0.208-0.443,0.336l-4.194,3.84c-1.305,1.195-1.395,3.229-0.199,4.534l3.84,4.194   c1.195,1.305,3.229,1.395,4.534,0.199l4.194-3.84c0.14-0.128,0.262-0.267,0.374-0.412c2.665,1.858,5.594,3.192,8.643,3.997   c-0.04,0.182-0.071,0.368-0.079,0.561l-0.223,5.682c-0.034,0.857,0.268,1.675,0.85,2.304c0.582,0.63,1.374,0.995,2.23,1.028   l5.682,0.223l0,0c0.879,0.034,1.689-0.29,2.292-0.841c0.61-0.558,1.006-1.35,1.041-2.24l0.223-5.682   c0.008-0.192-0.009-0.38-0.035-0.564c3.019-0.548,5.966-1.606,8.706-3.178c0.099,0.154,0.209,0.304,0.337,0.443l3.84,4.194   c1.195,1.305,3.229,1.395,4.534,0.2l4.194-3.84c1.305-1.195,1.395-3.229,0.199-4.534l-3.84-4.194   c-0.128-0.14-0.267-0.262-0.412-0.374c1.858-2.664,3.192-5.594,3.997-8.643c0.182,0.04,0.368,0.071,0.561,0.079l5.682,0.223   c0.879,0.034,1.69-0.29,2.292-0.841c0.61-0.558,1.006-1.35,1.04-2.24l0.224-5.682c0.069-1.768-1.313-3.263-3.081-3.332   l-5.682-0.223c-0.191-0.008-0.379,0.007-0.565,0.032c-0.548-3.018-1.606-5.964-3.178-8.704c0.154-0.098,0.304-0.208,0.443-0.336   l4.194-3.84c1.305-1.195,1.395-3.229,0.199-4.534l-3.84-4.194C449.251,194.315,447.218,194.226,445.913,195.421z M435.839,233.287   c-6.129,5.612-15.681,5.192-21.294-0.937c-5.612-6.129-5.192-15.681,0.937-21.294c6.129-5.612,15.681-5.192,21.294,0.937   C442.388,218.123,441.968,227.675,435.839,233.287z"
   id="path3584" />
	<g
   id="g3604">
		<g
   id="g3602">
			<g
   id="g3590">
				<g
   id="g3588">
					<path
   style="fill:#B19CFE;"
   d="M114.387,415.756h-2.21c-0.408,0-0.739-0.331-0.739-0.739s0.331-0.739,0.739-0.739h2.21       c0.408,0,0.739,0.331,0.739,0.739S114.795,415.756,114.387,415.756z M107.253,415.756h-4.925c-0.408,0-0.739-0.331-0.739-0.739       s0.331-0.739,0.739-0.739h4.925c0.408,0,0.739,0.331,0.739,0.739S107.661,415.756,107.253,415.756z M97.403,415.756h-4.925       c-0.408,0-0.739-0.331-0.739-0.739s0.331-0.739,0.739-0.739h4.925c0.408,0,0.739,0.331,0.739,0.739       S97.811,415.756,97.403,415.756z M87.553,415.756h-4.925c-0.408,0-0.739-0.331-0.739-0.739s0.331-0.739,0.739-0.739h4.925       c0.408,0,0.739,0.331,0.739,0.739S87.961,415.756,87.553,415.756z M77.703,415.756h-4.925c-0.408,0-0.739-0.331-0.739-0.739       s0.331-0.739,0.739-0.739h4.925c0.408,0,0.739,0.331,0.739,0.739S78.111,415.756,77.703,415.756z M67.853,415.756h-4.925       c-0.408,0-0.739-0.331-0.739-0.739s0.331-0.739,0.739-0.739h4.925c0.408,0,0.739,0.331,0.739,0.739       S68.261,415.756,67.853,415.756z M58.003,415.749c-0.007,0-0.013,0-0.02-0.001c-1.717-0.048-3.413-0.328-5.041-0.834       c-0.39-0.121-0.607-0.535-0.486-0.925c0.121-0.389,0.531-0.607,0.924-0.486c1.5,0.466,3.062,0.724,4.644,0.769       c0.407,0.011,0.729,0.351,0.718,0.759C58.731,415.431,58.403,415.749,58.003,415.749z M48.717,412.862       c-0.138,0-0.277-0.039-0.401-0.119c-1.432-0.929-2.735-2.051-3.87-3.336c-0.269-0.306-0.24-0.773,0.065-1.043       c0.304-0.27,0.771-0.242,1.043,0.064c1.046,1.184,2.245,2.218,3.566,3.074c0.342,0.222,0.44,0.68,0.217,1.022       C49.196,412.743,48.96,412.862,48.717,412.862z M42.28,405.57c-0.275,0-0.539-0.153-0.667-0.417       c-0.744-1.544-1.274-3.18-1.574-4.862c-0.071-0.402,0.196-0.785,0.598-0.857c0.399-0.067,0.785,0.196,0.856,0.598       c0.276,1.55,0.764,3.056,1.451,4.478c0.177,0.367,0.023,0.809-0.344,0.986C42.497,405.547,42.388,405.57,42.28,405.57z        M40.488,395.993c-0.408,0-0.739-0.331-0.739-0.739v-4.925c0-0.408,0.331-0.739,0.739-0.739c0.408,0,0.739,0.331,0.739,0.739       v4.925C41.227,395.662,40.896,395.993,40.488,395.993z M40.488,386.143c-0.408,0-0.739-0.331-0.739-0.739v-4.925       c0-0.408,0.331-0.739,0.739-0.739c0.408,0,0.739,0.331,0.739,0.739v4.925C41.227,385.812,40.896,386.143,40.488,386.143z        M40.488,376.293c-0.408,0-0.739-0.331-0.739-0.739v-4.925c0-0.408,0.331-0.739,0.739-0.739c0.408,0,0.739,0.331,0.739,0.739       v4.925C41.227,375.962,40.896,376.293,40.488,376.293z M40.488,366.443c-0.408,0-0.739-0.331-0.739-0.739v-4.925       c0-0.408,0.331-0.739,0.739-0.739c0.408,0,0.739,0.331,0.739,0.739v4.925C41.227,366.112,40.896,366.443,40.488,366.443z        M40.488,356.593c-0.408,0-0.739-0.331-0.739-0.739v-4.925c0-0.408,0.331-0.739,0.739-0.739c0.408,0,0.739,0.331,0.739,0.739       v4.925C41.227,356.262,40.896,356.593,40.488,356.593z M40.488,346.743c-0.408,0-0.739-0.331-0.739-0.739v-4.925       c0-0.408,0.331-0.739,0.739-0.739c0.408,0,0.739,0.331,0.739,0.739v4.925C41.227,346.413,40.896,346.743,40.488,346.743z        M40.488,336.893c-0.408,0-0.739-0.331-0.739-0.739v-4.925c0-0.408,0.331-0.739,0.739-0.739c0.408,0,0.739,0.331,0.739,0.739       v4.925C41.227,336.563,40.896,336.893,40.488,336.893z M40.488,327.044c-0.408,0-0.739-0.331-0.739-0.739v-4.925       c0-0.408,0.331-0.739,0.739-0.739c0.408,0,0.739,0.331,0.739,0.739v4.925C41.227,326.713,40.896,327.044,40.488,327.044z        M40.488,317.194c-0.408,0-0.739-0.331-0.739-0.739v-4.925c0-0.408,0.331-0.739,0.739-0.739c0.408,0,0.739,0.331,0.739,0.739       v4.925C41.227,316.863,40.896,317.194,40.488,317.194z M40.488,307.344c-0.408,0-0.739-0.331-0.739-0.739v-4.925       c0-0.408,0.331-0.739,0.739-0.739c0.408,0,0.739,0.331,0.739,0.739v4.925C41.227,307.013,40.896,307.344,40.488,307.344z        M40.488,297.494c-0.408,0-0.739-0.331-0.739-0.739v-4.925c0-0.408,0.331-0.739,0.739-0.739c0.408,0,0.739,0.331,0.739,0.739       v4.925C41.227,297.163,40.896,297.494,40.488,297.494z M40.488,287.644c-0.408,0-0.739-0.331-0.739-0.739v-4.925       c0-0.408,0.331-0.739,0.739-0.739c0.408,0,0.739,0.331,0.739,0.739v4.925C41.227,287.313,40.896,287.644,40.488,287.644z        M40.488,277.794c-0.408,0-0.739-0.331-0.739-0.739v-0.498c0-1.543,0.188-3.078,0.558-4.56       c0.099-0.396,0.508-0.636,0.896-0.538c0.396,0.099,0.637,0.5,0.538,0.895c-0.34,1.365-0.514,2.779-0.514,4.202v0.498       C41.227,277.463,40.896,277.794,40.488,277.794z M42.854,268.361c-0.124,0-0.25-0.031-0.366-0.097       c-0.354-0.202-0.477-0.654-0.275-1.008c0.847-1.483,1.895-2.846,3.114-4.051c0.291-0.286,0.758-0.284,1.045,0.006       c0.287,0.29,0.285,0.758-0.006,1.045c-1.123,1.11-2.089,2.366-2.869,3.732C43.36,268.227,43.111,268.361,42.854,268.361z        M49.773,261.524c-0.26,0-0.512-0.137-0.646-0.38c-0.198-0.357-0.07-0.806,0.287-1.005c1.498-0.832,3.101-1.453,4.766-1.848       c0.401-0.092,0.794,0.151,0.889,0.549c0.094,0.397-0.151,0.795-0.548,0.889c-1.533,0.363-3.01,0.935-4.389,1.702       C50.018,261.494,49.895,261.524,49.773,261.524z M172.51,259.265h-4.925c-0.408,0-0.739-0.331-0.739-0.739       c0-0.408,0.331-0.739,0.739-0.739h4.925c0.408,0,0.739,0.331,0.739,0.739C173.249,258.934,172.918,259.265,172.51,259.265z        M162.661,259.265h-4.925c-0.408,0-0.739-0.331-0.739-0.739c0-0.408,0.331-0.739,0.739-0.739h4.925       c0.408,0,0.739,0.331,0.739,0.739C163.399,258.934,163.068,259.265,162.661,259.265z M152.811,259.265h-4.925       c-0.408,0-0.739-0.331-0.739-0.739c0-0.408,0.331-0.739,0.739-0.739h4.925c0.408,0,0.739,0.331,0.739,0.739       C153.549,258.934,153.219,259.265,152.811,259.265z M142.961,259.265h-4.925c-0.408,0-0.739-0.331-0.739-0.739       c0-0.408,0.331-0.739,0.739-0.739h4.925c0.408,0,0.739,0.331,0.739,0.739C143.7,258.934,143.369,259.265,142.961,259.265z        M133.111,259.265h-4.925c-0.408,0-0.739-0.331-0.739-0.739c0-0.408,0.331-0.739,0.739-0.739h4.925       c0.408,0,0.739,0.331,0.739,0.739C133.85,258.934,133.519,259.265,133.111,259.265z M123.261,259.265h-4.925       c-0.408,0-0.739-0.331-0.739-0.739c0-0.408,0.331-0.739,0.739-0.739h4.925c0.408,0,0.739,0.331,0.739,0.739       C124,258.934,123.669,259.265,123.261,259.265z M113.411,259.265h-4.925c-0.408,0-0.739-0.331-0.739-0.739       c0-0.408,0.331-0.739,0.739-0.739h4.925c0.408,0,0.739,0.331,0.739,0.739C114.15,258.934,113.819,259.265,113.411,259.265z        M103.561,259.265h-4.925c-0.408,0-0.739-0.331-0.739-0.739c0-0.408,0.331-0.739,0.739-0.739h4.925       c0.408,0,0.739,0.331,0.739,0.739C104.3,258.934,103.969,259.265,103.561,259.265z M93.711,259.265h-4.925       c-0.408,0-0.739-0.331-0.739-0.739c0-0.408,0.331-0.739,0.739-0.739h4.925c0.408,0,0.739,0.331,0.739,0.739       C94.45,258.934,94.119,259.265,93.711,259.265z M83.861,259.265h-4.925c-0.408,0-0.739-0.331-0.739-0.739       c0-0.408,0.331-0.739,0.739-0.739h4.925c0.408,0,0.739,0.331,0.739,0.739C84.6,258.934,84.269,259.265,83.861,259.265z        M74.011,259.265h-4.925c-0.408,0-0.739-0.331-0.739-0.739c0-0.408,0.331-0.739,0.739-0.739h4.925       c0.408,0,0.739,0.331,0.739,0.739C74.75,258.934,74.419,259.265,74.011,259.265z M64.161,259.265h-4.925       c-0.408,0-0.739-0.331-0.739-0.739c0-0.408,0.331-0.739,0.739-0.739h4.925c0.408,0,0.739,0.331,0.739,0.739       C64.9,258.934,64.569,259.265,64.161,259.265z"
   id="path3586" />
				</g>
			</g>
			<g
   id="g3600">
				<g
   id="g3594">
					<circle
   style="fill:#B19CFE;"
   cx="40.488"
   cy="336.99"
   r="3.219"
   id="circle3592" />
				</g>
				<g
   id="g3598">
					<path
   style="fill:#B19CFE;"
   d="M40.488,343.024c-3.326,0-6.033-2.706-6.033-6.033c0-3.327,2.707-6.033,6.033-6.033       c3.326,0,6.033,2.706,6.033,6.033C46.521,340.317,43.814,343.024,40.488,343.024z M40.488,331.696       c-2.919,0-5.294,2.375-5.294,5.294s2.375,5.294,5.294,5.294c2.919,0,5.294-2.375,5.294-5.294S43.408,331.696,40.488,331.696z"
   id="path3596" />
				</g>
			</g>
		</g>
	</g>
	<g
   id="g3626">
		<g
   id="g3610">
			<g
   id="g3608">
				<path
   style="fill:#B19CFE;"
   d="M206.296,236.753c-0.496,0-0.899-0.403-0.899-0.899v-5.992c0-0.496,0.403-0.899,0.899-0.899      c0.496,0,0.899,0.403,0.899,0.899v5.992C207.195,236.35,206.792,236.753,206.296,236.753z M206.296,224.769      c-0.496,0-0.899-0.403-0.899-0.899v-5.992c0-0.496,0.403-0.899,0.899-0.899c0.496,0,0.899,0.403,0.899,0.899v5.992      C207.195,224.366,206.792,224.769,206.296,224.769z M206.296,212.784c-0.496,0-0.899-0.403-0.899-0.899v-5.992      c0-0.496,0.403-0.899,0.899-0.899c0.496,0,0.899,0.403,0.899,0.899v5.992C207.195,212.382,206.792,212.784,206.296,212.784z       M206.296,200.8c-0.496,0-0.899-0.403-0.899-0.899v-5.992c0-0.496,0.403-0.899,0.899-0.899c0.496,0,0.899,0.403,0.899,0.899      v5.992C207.195,200.398,206.792,200.8,206.296,200.8z M206.296,188.816c-0.496,0-0.899-0.403-0.899-0.899v-5.992      c0-0.496,0.403-0.899,0.899-0.899c0.496,0,0.899,0.403,0.899,0.899v5.992C207.195,188.413,206.792,188.816,206.296,188.816z       M206.296,176.832c-0.496,0-0.899-0.403-0.899-0.899v-5.992c0-0.496,0.403-0.899,0.899-0.899c0.496,0,0.899,0.403,0.899,0.899      v5.992C207.195,176.429,206.792,176.832,206.296,176.832z M301.458,166.037c-0.496,0-0.899-0.403-0.899-0.899v-3.326      c0-0.496,0.403-0.899,0.899-0.899c0.496,0,0.899,0.403,0.899,0.899v3.326C302.357,165.634,301.954,166.037,301.458,166.037z       M206.296,164.848c-0.496,0-0.899-0.402-0.899-0.899v-5.992c0-0.496,0.403-0.899,0.899-0.899c0.496,0,0.899,0.403,0.899,0.899      v5.992C207.195,164.445,206.792,164.848,206.296,164.848z M301.458,156.719c-0.496,0-0.899-0.402-0.899-0.899v-5.992      c0-0.496,0.403-0.899,0.899-0.899c0.496,0,0.899,0.403,0.899,0.899v5.992C302.357,156.316,301.954,156.719,301.458,156.719z       M206.296,152.864c-0.496,0-0.899-0.403-0.899-0.899v-5.992c0-0.496,0.403-0.899,0.899-0.899c0.496,0,0.899,0.403,0.899,0.899      v5.992C207.195,152.461,206.792,152.864,206.296,152.864z M301.458,144.734c-0.496,0-0.899-0.403-0.899-0.899v-5.992      c0-0.496,0.403-0.899,0.899-0.899c0.496,0,0.899,0.403,0.899,0.899v5.992C302.357,144.332,301.954,144.734,301.458,144.734z       M206.296,140.879c-0.496,0-0.899-0.403-0.899-0.899v-5.992c0-0.496,0.403-0.899,0.899-0.899c0.496,0,0.899,0.403,0.899,0.899      v5.992C207.195,140.477,206.792,140.879,206.296,140.879z M301.458,132.75c-0.496,0-0.899-0.403-0.899-0.899v-5.992      c0-0.496,0.403-0.899,0.899-0.899c0.496,0,0.899,0.403,0.899,0.899v5.992C302.357,132.348,301.954,132.75,301.458,132.75z       M206.296,128.895c-0.496,0-0.899-0.403-0.899-0.899v-5.992c0-0.496,0.403-0.899,0.899-0.899c0.496,0,0.899,0.403,0.899,0.899      v5.992C207.195,128.493,206.792,128.895,206.296,128.895z M301.458,120.766c-0.496,0-0.899-0.403-0.899-0.899v-5.992      c0-0.496,0.403-0.899,0.899-0.899c0.496,0,0.899,0.403,0.899,0.899v5.992C302.357,120.364,301.954,120.766,301.458,120.766z       M206.296,116.911c-0.496,0-0.899-0.403-0.899-0.899v-5.992c0-0.496,0.403-0.899,0.899-0.899c0.496,0,0.899,0.403,0.899,0.899      v5.992C207.195,116.508,206.792,116.911,206.296,116.911z M301.458,108.782c-0.496,0-0.899-0.403-0.899-0.899v-5.992      c0-0.496,0.403-0.899,0.899-0.899c0.496,0,0.899,0.403,0.899,0.899v5.992C302.357,108.379,301.954,108.782,301.458,108.782z       M206.296,104.927c-0.496,0-0.899-0.403-0.899-0.899v-5.992c0-0.496,0.403-0.899,0.899-0.899c0.496,0,0.899,0.403,0.899,0.899      v5.992C207.195,104.524,206.792,104.927,206.296,104.927z M301.419,96.799c-0.473,0-0.869-0.37-0.896-0.848      c-0.109-1.921-0.479-3.811-1.099-5.62c-0.16-0.469,0.09-0.981,0.559-1.142c0.465-0.16,0.982,0.089,1.141,0.559      c0.674,1.964,1.076,4.017,1.194,6.101c0.028,0.496-0.351,0.92-0.846,0.949C301.454,96.798,301.437,96.799,301.419,96.799z       M206.887,92.99c-0.069,0-0.138-0.008-0.208-0.024c-0.483-0.115-0.782-0.599-0.667-1.082c0.48-2.028,1.237-3.979,2.249-5.799      c0.24-0.434,0.789-0.59,1.222-0.348c0.434,0.241,0.59,0.789,0.349,1.223c-0.933,1.675-1.629,3.472-2.071,5.339      C207.663,92.712,207.294,92.99,206.887,92.99z M297.586,85.61c-0.286,0-0.566-0.135-0.741-0.387      c-1.092-1.58-2.392-3.003-3.866-4.23c-0.38-0.318-0.433-0.885-0.115-1.266c0.318-0.383,0.884-0.432,1.266-0.115      c1.598,1.331,3.008,2.875,4.193,4.588c0.282,0.409,0.18,0.968-0.228,1.251C297.941,85.559,297.762,85.61,297.586,85.61z       M212.629,82.643c-0.228,0-0.456-0.087-0.632-0.26c-0.353-0.349-0.356-0.918-0.007-1.271c1.466-1.483,3.124-2.758,4.927-3.789      c0.429-0.246,0.98-0.096,1.227,0.335c0.246,0.431,0.096,0.98-0.335,1.227c-1.662,0.949-3.189,2.124-4.541,3.492      C213.092,82.554,212.86,82.643,212.629,82.643z M288.492,78.035c-0.123,0-0.248-0.025-0.367-0.078      c-1.751-0.785-3.601-1.325-5.498-1.606c-0.492-0.072-0.831-0.53-0.758-1.021c0.073-0.491,0.525-0.841,1.021-0.757      c2.061,0.304,4.069,0.891,5.971,1.743c0.453,0.203,0.655,0.735,0.453,1.188C289.163,77.837,288.835,78.035,288.492,78.035z       M222.902,76.776c-0.403,0-0.769-0.273-0.871-0.681c-0.12-0.482,0.172-0.97,0.654-1.09c1.803-0.45,3.67-0.679,5.548-0.679h0.606      c0.496,0,0.899,0.403,0.899,0.899c0,0.496-0.403,0.899-0.899,0.899h-0.606c-1.731,0-3.451,0.21-5.113,0.625      C223.048,76.767,222.974,76.776,222.902,76.776z M276.777,76.124h-5.992c-0.496,0-0.899-0.403-0.899-0.899      c0-0.496,0.403-0.899,0.899-0.899h5.992c0.496,0,0.899,0.403,0.899,0.899C277.676,75.721,277.273,76.124,276.777,76.124z       M264.793,76.124h-5.992c-0.496,0-0.899-0.403-0.899-0.899c0-0.496,0.403-0.899,0.899-0.899h5.992      c0.496,0,0.899,0.403,0.899,0.899C265.691,75.721,265.289,76.124,264.793,76.124z M252.808,76.124h-5.992      c-0.496,0-0.899-0.403-0.899-0.899c0-0.496,0.403-0.899,0.899-0.899h5.992c0.496,0,0.899,0.403,0.899,0.899      C253.707,75.721,253.305,76.124,252.808,76.124z M240.824,76.124h-5.992c-0.496,0-0.899-0.403-0.899-0.899      c0-0.496,0.403-0.899,0.899-0.899h5.992c0.496,0,0.899,0.403,0.899,0.899C241.723,75.721,241.321,76.124,240.824,76.124z"
   id="path3606" />
			</g>
		</g>
		<g
   id="g3624">
			<g
   id="g3616">
				<g
   id="g3614">
					<circle
   style="fill:#B19CFE;"
   cx="253.877"
   cy="75.225"
   r="3.377"
   id="circle3612" />
				</g>
			</g>
			<g
   id="g3622">
				<g
   id="g3620">
					<path
   style="fill:#B19CFE;"
   d="M253.877,81.554c-3.49,0-6.329-2.839-6.329-6.329c0-3.49,2.84-6.329,6.329-6.329       c3.49,0,6.329,2.839,6.329,6.329C260.206,78.715,257.367,81.554,253.877,81.554z M253.877,69.671       c-3.063,0-5.554,2.492-5.554,5.554c0,3.063,2.492,5.554,5.554,5.554c3.063,0,5.554-2.492,5.554-5.554       C259.431,72.163,256.94,69.671,253.877,69.671z"
   id="path3618" />
				</g>
			</g>
		</g>
	</g>
	<g
   id="g3632">
		<rect
   x="199.958"
   y="123.914"
   style="fill:#C1C1C1;"
   width="57.954"
   height="9.908"
   id="rect3628" />
		<path
   style="fill:#FFC655;"
   d="M304.733,120.185h-41.427c-3.015,0-5.875,1.012-7.813,2.765l-11.254,8.421h-44.335    c-1.853,0-3.356,1.503-3.356,3.356v61.363c0,1.853,1.503,3.356,3.356,3.356h108.025c1.853,0,3.356-1.502,3.356-3.356v-59.286    v-2.077v-7.084C311.285,123.701,308.352,120.185,304.733,120.185z"
   id="path3630" />
	</g>
	<path
   style="fill:none;stroke:#0F1B63;stroke-miterlimit:10;"
   d="M133.516,305.616l-6.144,5.956   c-0.204,0.198-0.383,0.413-0.545,0.636c-4.087-2.68-8.55-4.561-13.169-5.641c0.052-0.278,0.089-0.56,0.092-0.848l0.092-8.557   c0.028-2.662-2.114-4.852-4.777-4.88l-8.557-0.092c-2.661-0.028-4.852,2.114-4.88,4.777l-0.092,8.557   c-0.003,0.288,0.028,0.57,0.073,0.848c-4.517,0.954-8.903,2.671-12.957,5.153c-0.155-0.228-0.327-0.448-0.525-0.652l-5.956-6.144   c-1.854-1.912-4.917-1.96-6.829-0.106l-6.144,5.956c-1.912,1.854-1.959,4.917-0.106,6.829l5.956,6.144   c0.198,0.204,0.413,0.383,0.635,0.545c-2.68,4.087-4.561,8.55-5.641,13.169c-0.277-0.052-0.559-0.089-0.848-0.092l-8.557-0.092   c-1.282-0.014-2.493,0.469-3.413,1.361c-0.006,0.005-0.011,0.011-0.016,0.017c-0.922,0.902-1.437,2.11-1.451,3.399l-0.092,8.557   l0,0c-0.028,2.662,2.114,4.852,4.777,4.88l8.557,0.092c0.29,0.003,0.57-0.03,0.847-0.076c0.954,4.518,2.671,8.905,5.154,12.959   c-0.228,0.155-0.448,0.327-0.652,0.525l-6.144,5.956c-1.912,1.854-1.959,4.917-0.106,6.828l5.956,6.144   c1.854,1.912,4.917,1.959,6.829,0.106l6.144-5.956c0.204-0.198,0.383-0.413,0.545-0.635c4.088,2.68,8.552,4.561,13.172,5.641   c-0.052,0.276-0.092,0.557-0.095,0.847l-0.092,8.557c-0.014,1.29,0.475,2.508,1.378,3.43c0.902,0.922,2.11,1.437,3.399,1.451   l8.557,0.092l0,0c1.323,0.014,2.529-0.508,3.411-1.363c0.893-0.866,1.455-2.074,1.469-3.413l0.092-8.557   c0.003-0.29-0.03-0.57-0.076-0.847c4.518-0.954,8.905-2.671,12.96-5.154c0.155,0.228,0.327,0.448,0.525,0.652l5.956,6.144   c1.854,1.912,4.917,1.959,6.829,0.106l6.144-5.956c1.912-1.854,1.959-4.917,0.106-6.829l-5.956-6.144   c-0.198-0.204-0.413-0.383-0.636-0.545c2.68-4.088,4.561-8.551,5.641-13.172c0.276,0.052,0.557,0.092,0.847,0.095l8.557,0.092   c1.323,0.014,2.529-0.508,3.412-1.363c0.893-0.866,1.455-2.074,1.469-3.413l0.093-8.557c0.028-2.663-2.115-4.852-4.777-4.881   l-8.557-0.092c-0.288-0.003-0.57,0.027-0.848,0.073c-0.954-4.517-2.671-8.903-5.153-12.957c0.228-0.155,0.448-0.327,0.652-0.525   l6.144-5.956c1.912-1.854,1.959-4.917,0.106-6.828l-5.956-6.144C138.49,303.81,135.427,303.762,133.516,305.616z M119.986,363.006   c-8.979,8.705-23.365,8.482-32.07-0.496c-8.705-8.979-8.482-23.365,0.497-32.07c8.979-8.705,23.365-8.482,32.07,0.497   C129.187,339.915,128.964,354.301,119.986,363.006z"
   id="path3634" />
	<g
   id="g3646">
		<rect
   x="204.512"
   y="375.757"
   style="fill:#C60C88;"
   width="91.971"
   height="44.088"
   id="rect3636" />
		<path
   style="fill:#D42190;"
   d="M403.278,167.604v200.842c0,6.451-5.229,11.68-11.689,11.68H109.405    c-6.451,0-11.689-5.229-11.689-11.68V167.604c0-6.451,5.238-11.689,11.689-11.689h282.184    C398.049,155.915,403.278,161.153,403.278,167.604z"
   id="path3638" />
		<path
   style="opacity:0.5;fill:#FFFFFF;"
   d="M256,366c0,3.314-2.686,6-6,6c-3.314,0-6-2.686-6-6c0-3.314,2.686-6,6-6    C253.314,360,256,362.686,256,366z"
   id="path3640" />
		<path
   style="fill:#DED7FF;"
   d="M399.608,352.765V169.854c0-5.544-4.34-10.038-9.693-10.038H111.08    c-5.353,0-9.693,4.494-9.693,10.038v182.911H399.608z"
   id="path3642" />
		<path
   style="fill:#D42190;"
   d="M314.579,424.595H186.416v-0.307c0-5.078,4.117-9.194,9.194-9.194h109.774    c5.078,0,9.194,4.116,9.194,9.194V424.595z"
   id="path3644" />
	</g>
	<g
   id="g3652">
		<path
   style="fill:#B19CFE;"
   d="M125.432,157.939c0-8.853-6.674-16.138-15.263-17.122c0.066-0.579,0.108-1.165,0.108-1.761    c0-8.488-6.881-15.368-15.368-15.368c-2.274,0-4.425,0.507-6.367,1.393c-4.092-6.379-11.24-10.609-19.382-10.609    c-12.712,0-23.017,10.305-23.017,23.017c0,1.119,0.084,2.219,0.239,3.295c-8.699,0.88-15.488,8.225-15.488,17.156    c0,9.524,7.721,17.245,17.245,17.245h60.903v-0.043C118.166,174.692,125.432,167.174,125.432,157.939z"
   id="path3648" />
		<polygon
   style="fill:#FFC655;"
   points="89.208,188.343 89.208,161.549 67.118,161.549 67.118,188.343 60.213,188.343     78.163,205.16 96.114,188.343   "
   id="polygon3650" />
	</g>
	<g
   id="g3656">
		<path
   style="fill:#542FD0;"
   d="M333.235,170.609h-54.237c-5.015,0-9.081-4.066-9.081-9.081V143.49    c0-5.015,4.066-9.081,9.081-9.081h54.237c5.015,0,9.081,4.066,9.081,9.081v18.037C342.316,166.543,338.25,170.609,333.235,170.609    z"
   id="path3654" />
	</g>
	<g
   id="g3660">
		<path
   style="fill:#542FD0;"
   d="M130.776,431.104H76.54c-5.015,0-9.081-4.066-9.081-9.081v-18.037c0-5.015,4.066-9.081,9.081-9.081    h54.237c5.015,0,9.081,4.066,9.081,9.081v18.037C139.858,427.038,135.792,431.104,130.776,431.104z"
   id="path3658" />
	</g>
	<g
   id="g3664">
		<path
   style="fill:#542FD0;"
   d="M156.857,277.965H102.62c-5.015,0-9.081-4.066-9.081-9.081v-18.037    c0-5.015,4.066-9.081,9.081-9.081h54.237c5.015,0,9.081,4.066,9.081,9.081v18.037    C165.938,273.899,161.872,277.965,156.857,277.965z"
   id="path3662" />
	</g>
	<g
   id="g3678">
		<g
   id="g3668">
			<path
   style="fill:#B19CFE;"
   d="M347.967,393.867h-2.583c-0.428,0-0.775-0.347-0.775-0.775c0-0.428,0.347-0.775,0.775-0.775h2.583     c0.428,0,0.775,0.347,0.775,0.775C348.742,393.52,348.395,393.867,347.967,393.867z"
   id="path3666" />
		</g>
		<g
   id="g3672">
			<path
   style="fill:#B19CFE;"
   d="M409.98,393.867h-5.168c-0.428,0-0.775-0.347-0.775-0.775c0-0.428,0.347-0.775,0.775-0.775h5.168     c0.428,0,0.775,0.347,0.775,0.775C410.755,393.52,410.408,393.867,409.98,393.867z M399.644,393.867h-5.167     c-0.428,0-0.775-0.347-0.775-0.775c0-0.428,0.347-0.775,0.775-0.775h5.167c0.428,0,0.775,0.347,0.775,0.775     C400.419,393.52,400.072,393.867,399.644,393.867z M389.309,393.867h-5.168c-0.428,0-0.775-0.347-0.775-0.775     c0-0.428,0.347-0.775,0.775-0.775h5.168c0.428,0,0.775,0.347,0.775,0.775C390.084,393.52,389.737,393.867,389.309,393.867z      M378.973,393.867h-5.168c-0.428,0-0.775-0.347-0.775-0.775c0-0.428,0.347-0.775,0.775-0.775h5.168     c0.428,0,0.775,0.347,0.775,0.775C379.749,393.52,379.401,393.867,378.973,393.867z M368.638,393.867h-5.167     c-0.428,0-0.775-0.347-0.775-0.775c0-0.428,0.347-0.775,0.775-0.775h5.167c0.428,0,0.775,0.347,0.775,0.775     C369.413,393.52,369.066,393.867,368.638,393.867z M358.303,393.867h-5.168c-0.428,0-0.775-0.347-0.775-0.775     c0-0.428,0.347-0.775,0.775-0.775h5.168c0.428,0,0.775,0.347,0.775,0.775C359.078,393.52,358.731,393.867,358.303,393.867z      M415.097,393.266c-0.349,0-0.666-0.238-0.752-0.593c-0.101-0.416,0.154-0.835,0.57-0.936c1.614-0.391,3.179-0.978,4.65-1.746     c0.38-0.198,0.848-0.051,1.045,0.329c0.198,0.379,0.051,0.847-0.329,1.045c-1.583,0.826-3.266,1.458-5.001,1.878     C415.219,393.259,415.158,393.266,415.097,393.266z M424.175,388.54c-0.215,0-0.429-0.089-0.582-0.263     c-0.283-0.321-0.251-0.811,0.071-1.094c1.248-1.097,2.363-2.343,3.314-3.703c0.244-0.351,0.727-0.437,1.079-0.191     c0.351,0.245,0.436,0.729,0.191,1.079c-1.021,1.461-2.219,2.8-3.56,3.979C424.54,388.476,424.357,388.54,424.175,388.54z      M430.034,380.152c-0.093,0-0.188-0.017-0.279-0.052c-0.399-0.154-0.598-0.603-0.443-1.002c0.598-1.548,1.006-3.168,1.213-4.815     c0.053-0.425,0.427-0.727,0.866-0.672c0.425,0.053,0.726,0.441,0.672,0.866c-0.223,1.772-0.662,3.514-1.306,5.18     C430.639,379.964,430.345,380.152,430.034,380.152z M431.464,369.996c-0.428,0-0.775-0.347-0.775-0.775v-5.168     c0-0.428,0.347-0.775,0.775-0.775c0.428,0,0.775,0.347,0.775,0.775v5.168C432.24,369.649,431.892,369.996,431.464,369.996z      M431.464,359.66c-0.428,0-0.775-0.347-0.775-0.775v-5.167c0-0.428,0.347-0.775,0.775-0.775c0.428,0,0.775,0.347,0.775,0.775     v5.167C432.24,359.313,431.892,359.66,431.464,359.66z M431.464,349.325c-0.428,0-0.775-0.347-0.775-0.775v-5.167     c0-0.428,0.347-0.775,0.775-0.775c0.428,0,0.775,0.347,0.775,0.775v5.167C432.24,348.978,431.892,349.325,431.464,349.325z      M431.464,338.99c-0.428,0-0.775-0.347-0.775-0.775v-5.168c0-0.428,0.347-0.775,0.775-0.775c0.428,0,0.775,0.347,0.775,0.775     v5.168C432.24,338.642,431.892,338.99,431.464,338.99z M431.464,328.655c-0.428,0-0.775-0.347-0.775-0.775v-5.168     c0-0.428,0.347-0.775,0.775-0.775c0.428,0,0.775,0.347,0.775,0.775v5.168C432.24,328.307,431.892,328.655,431.464,328.655z      M431.464,318.319c-0.428,0-0.775-0.347-0.775-0.775v-5.167c0-0.428,0.347-0.775,0.775-0.775c0.428,0,0.775,0.347,0.775,0.775     v5.167C432.24,317.972,431.892,318.319,431.464,318.319z M431.464,307.983c-0.428,0-0.775-0.347-0.775-0.775v-5.168     c0-0.428,0.347-0.775,0.775-0.775c0.428,0,0.775,0.347,0.775,0.775v5.168C432.24,307.636,431.892,307.983,431.464,307.983z"
   id="path3670" />
		</g>
		<g
   id="g3676">
			<path
   style="fill:#B19CFE;"
   d="M431.464,297.625c-0.428,0-0.775-0.347-0.775-0.775v-1.808h-0.65     c-0.428,0-0.775-0.347-0.775-0.775c0-0.428,0.347-0.775,0.775-0.775h1.425c0.428,0,0.775,0.347,0.775,0.775v2.583     C432.24,297.278,431.892,297.625,431.464,297.625z"
   id="path3674" />
		</g>
	</g>
	<g
   id="g3912">
		<path
   style="fill:#B19CFE;"
   d="M407.411,215.995h-67.805c-4.076,0-7.38,3.304-7.38,7.38v140.909c0,4.076,3.304,7.38,7.38,7.38    h67.805c4.076,0,7.38-3.304,7.38-7.38V223.375C414.791,219.299,411.487,215.995,407.411,215.995z"
   id="path3680" />
		<g
   id="g3686">
			<path
   style="fill:#0F1B63;"
   d="M388.67,224.115h-37.297c-0.647,0-1.172-0.525-1.172-1.172v-0.151     c0-0.647,0.525-1.172,1.172-1.172h37.297c0.647,0,1.172,0.525,1.172,1.172v0.151C389.842,223.59,389.317,224.115,388.67,224.115z     "
   id="path3682" />
			<path
   style="fill:#0F1B63;"
   d="M396.816,222.867c0,0.689-0.559,1.248-1.248,1.248c-0.689,0-1.248-0.559-1.248-1.248     c0-0.689,0.559-1.248,1.248-1.248C396.257,221.619,396.816,222.178,396.816,222.867z"
   id="path3684" />
		</g>
		<rect
   x="336.771"
   y="230.131"
   style="fill:#FFFFFF;"
   width="73.475"
   height="45.149"
   id="rect3688" />
		<polygon
   style="fill:#FFC655;"
   points="387.448,248.997 382.061,255.441 368.122,238.766 344.816,266.645 372.695,266.645     391.426,266.645 402.201,266.645   "
   id="polygon3690" />
		<g
   id="g3696">
			<rect
   x="336.771"
   y="335.083"
   style="fill:#FFFFFF;"
   width="34.689"
   height="20.346"
   id="rect3692" />
			<polygon
   style="fill:#FFC655;"
   points="360.697,342.99 358.153,346.032 351.572,338.159 340.569,351.322 353.731,351.322      362.575,351.322 367.662,351.322    "
   id="polygon3694" />
		</g>
		<g
   id="g3740">
			<g
   id="g3738">
				<g
   id="g3702">
					<g
   id="g3700">
						<rect
   x="336.771"
   y="286.893"
   style="fill:#B19CFE;"
   width="34.689"
   height="1.949"
   id="rect3698" />
					</g>
				</g>
				<g
   id="g3706">
					<rect
   x="336.771"
   y="282.809"
   style="fill:#B19CFE;"
   width="34.689"
   height="1.949"
   id="rect3704" />
				</g>
				<g
   id="g3712">
					<g
   id="g3710">
						<rect
   x="336.771"
   y="290.883"
   style="fill:#B19CFE;"
   width="21.934"
   height="1.949"
   id="rect3708" />
					</g>
				</g>
				<g
   id="g3718">
					<g
   id="g3716">
						<rect
   x="360.264"
   y="290.883"
   style="fill:#B19CFE;"
   width="11.195"
   height="1.949"
   id="rect3714" />
					</g>
				</g>
				<g
   id="g3724">
					<g
   id="g3722">
						<rect
   x="336.771"
   y="294.868"
   style="fill:#B19CFE;"
   width="30.69"
   height="1.949"
   id="rect3720" />
					</g>
				</g>
				<g
   id="g3730">
					<g
   id="g3728">
						<rect
   x="336.771"
   y="298.962"
   style="fill:#B19CFE;"
   width="10.659"
   height="1.949"
   id="rect3726" />
					</g>
				</g>
				<g
   id="g3736">
					<g
   id="g3734">
						<rect
   x="349.269"
   y="298.962"
   style="fill:#B19CFE;"
   width="7.677"
   height="1.949"
   id="rect3732" />
					</g>
				</g>
			</g>
		</g>
		<g
   id="g3784">
			<g
   id="g3782">
				<g
   id="g3746">
					<g
   id="g3744">
						<rect
   x="375.557"
   y="314.188"
   style="fill:#B19CFE;"
   width="34.689"
   height="1.949"
   id="rect3742" />
					</g>
				</g>
				<g
   id="g3750">
					<rect
   x="375.557"
   y="310.103"
   style="fill:#B19CFE;"
   width="34.689"
   height="1.949"
   id="rect3748" />
				</g>
				<g
   id="g3756">
					<g
   id="g3754">
						<rect
   x="375.557"
   y="318.177"
   style="fill:#B19CFE;"
   width="21.934"
   height="1.949"
   id="rect3752" />
					</g>
				</g>
				<g
   id="g3762">
					<g
   id="g3760">
						<rect
   x="399.05"
   y="318.177"
   style="fill:#B19CFE;"
   width="11.195"
   height="1.949"
   id="rect3758" />
					</g>
				</g>
				<g
   id="g3768">
					<g
   id="g3766">
						<rect
   x="375.557"
   y="322.162"
   style="fill:#B19CFE;"
   width="30.69"
   height="1.949"
   id="rect3764" />
					</g>
				</g>
				<g
   id="g3774">
					<g
   id="g3772">
						<rect
   x="375.557"
   y="326.256"
   style="fill:#B19CFE;"
   width="10.659"
   height="1.949"
   id="rect3770" />
					</g>
				</g>
				<g
   id="g3780">
					<g
   id="g3778">
						<rect
   x="388.055"
   y="326.256"
   style="fill:#B19CFE;"
   width="7.677"
   height="1.949"
   id="rect3776" />
					</g>
				</g>
			</g>
		</g>
		<g
   id="g3828">
			<g
   id="g3826">
				<g
   id="g3790">
					<g
   id="g3788">
						<rect
   x="375.557"
   y="286.893"
   style="fill:#B19CFE;"
   width="34.689"
   height="1.949"
   id="rect3786" />
					</g>
				</g>
				<g
   id="g3794">
					<rect
   x="375.557"
   y="282.809"
   style="fill:#B19CFE;"
   width="34.689"
   height="1.949"
   id="rect3792" />
				</g>
				<g
   id="g3800">
					<g
   id="g3798">
						<rect
   x="375.557"
   y="290.883"
   style="fill:#B19CFE;"
   width="21.934"
   height="1.949"
   id="rect3796" />
					</g>
				</g>
				<g
   id="g3806">
					<g
   id="g3804">
						<rect
   x="399.05"
   y="290.883"
   style="fill:#B19CFE;"
   width="11.195"
   height="1.949"
   id="rect3802" />
					</g>
				</g>
				<g
   id="g3812">
					<g
   id="g3810">
						<rect
   x="375.557"
   y="294.868"
   style="fill:#B19CFE;"
   width="34.689"
   height="1.949"
   id="rect3808" />
					</g>
				</g>
				<g
   id="g3818">
					<g
   id="g3816">
						<rect
   x="375.557"
   y="298.962"
   style="fill:#B19CFE;"
   width="10.659"
   height="1.949"
   id="rect3814" />
					</g>
				</g>
				<g
   id="g3824">
					<g
   id="g3822">
						<rect
   x="388.055"
   y="298.962"
   style="fill:#B19CFE;"
   width="22.191"
   height="1.949"
   id="rect3820" />
					</g>
				</g>
			</g>
		</g>
		<g
   id="g3860">
			<g
   id="g3858">
				<g
   id="g3834">
					<g
   id="g3832">
						<rect
   x="336.771"
   y="314.188"
   style="fill:#B19CFE;"
   width="34.689"
   height="1.949"
   id="rect3830" />
					</g>
				</g>
				<g
   id="g3838">
					<rect
   x="336.771"
   y="310.103"
   style="fill:#B19CFE;"
   width="34.689"
   height="1.949"
   id="rect3836" />
				</g>
				<g
   id="g3844">
					<g
   id="g3842">
						<rect
   x="336.771"
   y="318.177"
   style="fill:#B19CFE;"
   width="34.689"
   height="1.949"
   id="rect3840" />
					</g>
				</g>
				<g
   id="g3850">
					<g
   id="g3848">
						<rect
   x="336.771"
   y="322.162"
   style="fill:#B19CFE;"
   width="34.689"
   height="1.949"
   id="rect3846" />
					</g>
				</g>
				<g
   id="g3856">
					<g
   id="g3854">
						<rect
   x="336.771"
   y="326.256"
   style="fill:#B19CFE;"
   width="34.689"
   height="1.949"
   id="rect3852" />
					</g>
				</g>
			</g>
		</g>
		<g
   id="g3910">
			<g
   id="g3908">
				<g
   id="g3866">
					<g
   id="g3864">
						<rect
   x="375.557"
   y="339.833"
   style="fill:#B19CFE;"
   width="34.689"
   height="1.949"
   id="rect3862" />
					</g>
				</g>
				<g
   id="g3870">
					<rect
   x="375.557"
   y="335.749"
   style="fill:#B19CFE;"
   width="34.689"
   height="1.949"
   id="rect3868" />
				</g>
				<g
   id="g3876">
					<g
   id="g3874">
						<rect
   x="388.311"
   y="343.822"
   style="fill:#B19CFE;"
   width="21.934"
   height="1.949"
   id="rect3872" />
					</g>
				</g>
				<g
   id="g3882">
					<g
   id="g3880">
						<rect
   x="375.557"
   y="343.822"
   style="fill:#B19CFE;"
   width="11.195"
   height="1.949"
   id="rect3878" />
					</g>
				</g>
				<g
   id="g3888">
					<g
   id="g3886">
						<rect
   x="375.557"
   y="347.807"
   style="fill:#B19CFE;"
   width="26.636"
   height="1.949"
   id="rect3884" />
					</g>
				</g>
				<g
   id="g3894">
					<g
   id="g3892">
						<rect
   x="404.043"
   y="347.807"
   style="fill:#B19CFE;"
   width="6.202"
   height="1.949"
   id="rect3890" />
					</g>
				</g>
				<g
   id="g3900">
					<g
   id="g3898">
						<rect
   x="384.658"
   y="351.901"
   style="fill:#B19CFE;"
   width="25.588"
   height="1.949"
   id="rect3896" />
					</g>
				</g>
				<g
   id="g3906">
					<g
   id="g3904">
						<rect
   x="375.557"
   y="351.901"
   style="fill:#B19CFE;"
   width="7.677"
   height="1.949"
   id="rect3902" />
					</g>
				</g>
			</g>
		</g>
	</g>
	<g
   id="g3916">
		<path
   style="fill:#542FD0;"
   d="M348.653,407.864h-54.237c-5.015,0-9.081-4.066-9.081-9.081v-18.037    c0-5.015,4.066-9.081,9.081-9.081h54.237c5.015,0,9.081,4.066,9.081,9.081v18.037    C357.734,403.798,353.668,407.864,348.653,407.864z"
   id="path3914" />
	</g>
	<g
   id="g3928">
		<g
   id="g3926">
			<g
   id="g3920">
				<path
   style="fill:#B19CFE;"
   d="M434.258,347.825c0,1.865-1.512,3.377-3.377,3.377c-1.865,0-3.377-1.512-3.377-3.377      c0-1.865,1.512-3.377,3.377-3.377C432.746,344.448,434.258,345.96,434.258,347.825z"
   id="path3918" />
			</g>
			<g
   id="g3924">
				<path
   style="fill:#B19CFE;"
   d="M430.88,354.154c-3.49,0-6.329-2.839-6.329-6.329c0-3.49,2.84-6.329,6.329-6.329      c3.49,0,6.329,2.839,6.329,6.329C437.21,351.315,434.37,354.154,430.88,354.154z M430.88,342.27      c-3.063,0-5.554,2.492-5.554,5.554s2.492,5.554,5.554,5.554c3.063,0,5.554-2.492,5.554-5.554S433.943,342.27,430.88,342.27z"
   id="path3922" />
			</g>
		</g>
	</g>
	<g
   id="g3932">
		<path
   style="fill:#542FD0;"
   d="M460.024,298.274h-54.237c-5.015,0-9.081-4.066-9.081-9.081v-18.037    c0-5.015,4.066-9.081,9.081-9.081h54.237c5.015,0,9.081,4.066,9.081,9.081v18.037    C469.105,294.208,465.039,298.274,460.024,298.274z"
   id="path3930" />
	</g>
	<g
   id="g4202">
		<g
   id="g3958">
			<g
   id="g3936">
				<rect
   x="242.526"
   y="304.901"
   style="fill:#0F1B63;"
   width="22.781"
   height="2.067"
   id="rect3934" />
			</g>
			<g
   id="g3940">
				<rect
   x="271.151"
   y="304.901"
   style="fill:#0F1B63;"
   width="52.757"
   height="2.067"
   id="rect3938" />
			</g>
			<g
   id="g3944">
				<path
   style="fill:#0F1B63;"
   d="M296.869,322.686c-9.056,0-18.132-0.011-27.166-0.033l0.004-2.067      c18.066,0.043,36.3,0.043,54.198,0l0.005,2.067C314.96,322.675,305.925,322.686,296.869,322.686z"
   id="path3942" />
			</g>
			<g
   id="g3948">
				<rect
   x="261.403"
   y="312.744"
   style="fill:#0F1B63;"
   width="62.505"
   height="2.067"
   id="rect3946" />
			</g>
			<g
   id="g3952">
				<rect
   x="258.003"
   y="328.462"
   style="fill:#0F1B63;"
   width="65.906"
   height="2.067"
   id="rect3950" />
			</g>
			<g
   id="g3956">
				<rect
   x="248.862"
   y="336.305"
   style="fill:#0F1B63;"
   width="75.047"
   height="2.067"
   id="rect3954" />
			</g>
		</g>
		<g
   id="g4064">
			<g
   id="g3962">
				<rect
   x="119.403"
   y="186.717"
   style="fill:#B19CFE;"
   width="35.285"
   height="2.067"
   id="rect3960" />
			</g>
			<g
   id="g3966">
				<rect
   x="200.285"
   y="186.717"
   style="fill:#B19CFE;"
   width="36.412"
   height="2.067"
   id="rect3964" />
			</g>
			<g
   id="g3974">
				<g
   id="g3972">
					<g
   id="g3970">
						<rect
   x="211.439"
   y="194.56"
   style="fill:#FFC655;"
   width="25.258"
   height="2.067"
   id="rect3968" />
					</g>
				</g>
			</g>
			<g
   id="g3982">
				<g
   id="g3980">
					<g
   id="g3978">
						<rect
   x="201.049"
   y="210.279"
   style="fill:#FFC655;"
   width="35.648"
   height="2.067"
   id="rect3976" />
					</g>
				</g>
			</g>
			<g
   id="g3990">
				<g
   id="g3988">
					<g
   id="g3986">
						<rect
   x="194.067"
   y="218.121"
   style="fill:#FFC655;"
   width="42.63"
   height="2.067"
   id="rect3984" />
					</g>
				</g>
			</g>
			<g
   id="g3998">
				<g
   id="g3996">
					<g
   id="g3994">
						<rect
   x="181.862"
   y="227.291"
   style="fill:#FFC655;"
   width="54.835"
   height="2.067"
   id="rect3992" />
					</g>
				</g>
			</g>
			<g
   id="g4002">
				<rect
   x="160.407"
   y="186.717"
   style="fill:#FFC655;"
   width="35.285"
   height="2.067"
   id="rect4000" />
			</g>
			<g
   id="g4010">
				<g
   id="g4008">
					<g
   id="g4006">
						<path
   style="fill:#FFC655;"
   d="M208.212,204.502c-5.39,0-10.799-0.008-21.617-0.023l-7.033-0.01l0.002-2.067l7.034,0.01        c21.632,0.03,21.634,0.03,43.113,0l6.986-0.01v2.067l-6.983,0.01C218.973,204.495,213.602,204.502,208.212,204.502z"
   id="path4004" />
					</g>
				</g>
			</g>
			<g
   id="g4014">
				<path
   style="fill:#B19CFE;"
   d="M146.442,204.502c-9.056,0-18.091-0.011-27.041-0.032l0.004-2.067      c17.898,0.043,36.134,0.043,54.2,0l0.004,2.067C164.574,204.492,155.497,204.502,146.442,204.502z"
   id="path4012" />
			</g>
			<g
   id="g4018">
				<rect
   x="119.403"
   y="194.56"
   style="fill:#B19CFE;"
   width="87.025"
   height="2.067"
   id="rect4016" />
			</g>
			<g
   id="g4022">
				<rect
   x="119.403"
   y="227.291"
   style="fill:#B19CFE;"
   width="57.628"
   height="2.067"
   id="rect4020" />
			</g>
			<g
   id="g4026">
				<rect
   x="119.403"
   y="210.279"
   style="fill:#B19CFE;"
   width="77.146"
   height="2.067"
   id="rect4024" />
			</g>
			<g
   id="g4030">
				<rect
   x="119.403"
   y="218.121"
   style="fill:#B19CFE;"
   width="69.917"
   height="2.067"
   id="rect4028" />
			</g>
			<g
   id="g4058">
				<g
   id="g4056">
					<g
   id="g4034">
						<circle
   style="fill:#D42190;"
   cx="112.017"
   cy="187.751"
   r="1.425"
   id="circle4032" />
					</g>
					<g
   id="g4038">
						<path
   style="fill:#D42190;"
   d="M113.442,195.594c0,0.787-0.638,1.425-1.425,1.425c-0.787,0-1.425-0.638-1.425-1.425        c0-0.787,0.638-1.425,1.425-1.425C112.804,194.168,113.442,194.806,113.442,195.594z"
   id="path4036" />
					</g>
					<g
   id="g4042">
						<circle
   style="fill:#D42190;"
   cx="112.017"
   cy="203.436"
   r="1.425"
   id="circle4040" />
					</g>
					<g
   id="g4046">
						<path
   style="fill:#D42190;"
   d="M113.442,211.279c0,0.787-0.638,1.425-1.425,1.425c-0.787,0-1.425-0.638-1.425-1.425        c0-0.787,0.638-1.425,1.425-1.425C112.804,209.854,113.442,210.492,113.442,211.279z"
   id="path4044" />
					</g>
					<g
   id="g4050">
						<circle
   style="fill:#D42190;"
   cx="112.017"
   cy="219.155"
   r="1.425"
   id="circle4048" />
					</g>
					<g
   id="g4054">
						<path
   style="fill:#D42190;"
   d="M113.442,228.324c0,0.787-0.638,1.425-1.425,1.425c-0.787,0-1.425-0.638-1.425-1.425        s0.638-1.425,1.425-1.425C112.804,226.899,113.442,227.537,113.442,228.324z"
   id="path4052" />
					</g>
				</g>
			</g>
			<g
   id="g4062">
				<path
   style="fill:#D42190;"
   d="M246.103,232.997c-0.286,0-0.517-0.231-0.517-0.517V186.59c0-0.286,0.231-0.517,0.517-0.517      s0.517,0.231,0.517,0.517v45.891C246.619,232.766,246.388,232.997,246.103,232.997z"
   id="path4060" />
			</g>
		</g>
		<g
   id="g4122">
			<g
   id="g4068">
				<path
   style="fill:#0F1B63;"
   d="M158.137,331.986h-3.177c-0.293,0-0.529-0.237-0.529-0.529c0-0.293,0.237-0.529,0.529-0.529      h3.177c0.293,0,0.529,0.237,0.529,0.529C158.667,331.749,158.43,331.986,158.137,331.986z M151.784,331.986h-3.176      c-0.293,0-0.529-0.237-0.529-0.529c0-0.293,0.237-0.529,0.529-0.529h3.176c0.293,0,0.529,0.237,0.529,0.529      C152.314,331.749,152.077,331.986,151.784,331.986z M145.431,331.986h-1.286c-0.723,0-1.438-0.185-2.067-0.534      c-0.257-0.142-0.348-0.464-0.207-0.72c0.143-0.257,0.468-0.347,0.72-0.206c0.473,0.262,1.01,0.401,1.554,0.401h1.286      c0.293,0,0.529,0.237,0.529,0.529C145.961,331.749,145.724,331.986,145.431,331.986z M140.493,329.048      c-0.243,0-0.462-0.169-0.516-0.417c-0.065-0.299-0.098-0.606-0.098-0.911v-2.371c0-0.293,0.237-0.529,0.529-0.529      s0.529,0.237,0.529,0.529v2.371c0,0.229,0.025,0.461,0.074,0.687c0.062,0.286-0.119,0.568-0.404,0.63      C140.568,329.044,140.53,329.048,140.493,329.048z M140.408,322.702c-0.293,0-0.529-0.237-0.529-0.529v-3.177      c0-0.293,0.237-0.529,0.529-0.529s0.529,0.237,0.529,0.529v3.177C140.937,322.465,140.701,322.702,140.408,322.702z       M140.408,316.349c-0.293,0-0.529-0.237-0.529-0.53v-3.177c0-0.293,0.237-0.529,0.529-0.529s0.529,0.237,0.529,0.529v3.177      C140.937,316.112,140.701,316.349,140.408,316.349z M140.408,309.995c-0.293,0-0.529-0.237-0.529-0.529v-3.177      c0-0.293,0.237-0.529,0.529-0.529s0.529,0.237,0.529,0.529v3.177C140.937,309.759,140.701,309.995,140.408,309.995z       M140.408,303.642c-0.293,0-0.529-0.237-0.529-0.529v-0.387c0-1.077,0.402-2.106,1.133-2.896      c0.199-0.214,0.533-0.228,0.749-0.029c0.214,0.198,0.228,0.534,0.029,0.748c-0.549,0.594-0.852,1.367-0.852,2.178v0.387      C140.937,303.406,140.701,303.642,140.408,303.642z M160.121,299.519h-3.176c-0.293,0-0.529-0.237-0.529-0.529      s0.237-0.529,0.529-0.529h3.176c0.293,0,0.53,0.237,0.53,0.529S160.414,299.519,160.121,299.519z M153.768,299.519h-3.176      c-0.293,0-0.529-0.237-0.529-0.529s0.237-0.529,0.529-0.529h3.176c0.293,0,0.529,0.237,0.529,0.529      S154.061,299.519,153.768,299.519z M147.415,299.519h-3.176c-0.293,0-0.529-0.237-0.529-0.529s0.237-0.529,0.529-0.529h3.176      c0.293,0,0.529,0.237,0.529,0.529S147.708,299.519,147.415,299.519z"
   id="path4066" />
			</g>
			<g
   id="g4072">
				<rect
   x="152.655"
   y="318.238"
   style="fill:#0F1B63;"
   width="17.005"
   height="2.118"
   id="rect4070" />
			</g>
			<g
   id="g4076">
				<rect
   x="174.111"
   y="318.238"
   style="fill:#0F1B63;"
   width="27.472"
   height="2.118"
   id="rect4074" />
			</g>
			<g
   id="g4080">
				<rect
   x="184.578"
   y="336.254"
   style="fill:#0F1B63;"
   width="17.004"
   height="2.118"
   id="rect4078" />
			</g>
			<g
   id="g4084">
				<rect
   x="152.655"
   y="336.254"
   style="fill:#0F1B63;"
   width="27.473"
   height="2.118"
   id="rect4082" />
			</g>
			<g
   id="g4088">
				<rect
   x="152.655"
   y="324.374"
   style="fill:#0F1B63;"
   width="29.909"
   height="2.118"
   id="rect4086" />
			</g>
			<g
   id="g4092">
				<rect
   x="187.014"
   y="324.374"
   style="fill:#0F1B63;"
   width="14.568"
   height="2.118"
   id="rect4090" />
			</g>
			<g
   id="g4096">
				<rect
   x="152.655"
   y="330.398"
   style="fill:#0F1B63;"
   width="24.613"
   height="2.118"
   id="rect4094" />
			</g>
			<g
   id="g4100">
				<rect
   x="184.881"
   y="330.398"
   style="fill:#0F1B63;"
   width="16.701"
   height="2.118"
   id="rect4098" />
			</g>
			<g
   id="g4116">
				<g
   id="g4104">
					<rect
   x="152.655"
   y="292.654"
   style="fill:#FFC655;"
   width="8.902"
   height="16.576"
   id="rect4102" />
				</g>
				<g
   id="g4110">
					<g
   id="g4108">
						<rect
   x="166.621"
   y="286.361"
   style="fill:#D42190;"
   width="8.902"
   height="22.868"
   id="rect4106" />
					</g>
				</g>
				<g
   id="g4114">
					<rect
   x="180.127"
   y="273.315"
   style="fill:#542FD0;"
   width="8.902"
   height="35.914"
   id="rect4112" />
				</g>
			</g>
			<g
   id="g4120">
				<rect
   x="179.62"
   y="330.398"
   style="fill:#0F1B63;"
   width="3.195"
   height="2.118"
   id="rect4118" />
			</g>
		</g>
		<g
   id="g4200">
			<rect
   x="256.468"
   y="217.052"
   style="fill:#B19CFE;"
   width="66.639"
   height="74.35"
   id="rect4124" />
			<g
   id="g4158">
				<g
   id="g4128">
					<rect
   x="261.848"
   y="230.266"
   style="fill:#FFFFFF;"
   width="46.466"
   height="1.55"
   id="rect4126" />
				</g>
				<g
   id="g4132">
					<path
   style="fill:#FFFFFF;"
   d="M285.032,243.098c-7.98,0-15.945-0.008-23.185-0.026l0.004-1.55       c14.478,0.036,31.849,0.036,46.462,0l0.004,1.55C301.008,243.09,293.012,243.098,285.032,243.098z"
   id="path4130" />
				</g>
				<g
   id="g4136">
					<rect
   x="261.848"
   y="235.894"
   style="fill:#FFFFFF;"
   width="46.466"
   height="1.55"
   id="rect4134" />
				</g>
				<g
   id="g4140">
					<rect
   x="261.848"
   y="247.176"
   style="fill:#FFFFFF;"
   width="33.874"
   height="1.55"
   id="rect4138" />
				</g>
				<g
   id="g4144">
					<rect
   x="261.848"
   y="285.061"
   style="fill:#FFFFFF;"
   width="46.466"
   height="1.55"
   id="rect4142" />
				</g>
				<g
   id="g4148">
					<path
   style="fill:#FFFFFF;"
   d="M308.313,275.356c-14.615-0.035-31.985-0.035-46.462,0l-0.004-1.55       c14.481-0.034,31.854-0.034,46.47,0L308.313,275.356z"
   id="path4146" />
				</g>
				<g
   id="g4152">
					<rect
   x="261.848"
   y="279.434"
   style="fill:#FFFFFF;"
   width="46.466"
   height="1.55"
   id="rect4150" />
				</g>
				<g
   id="g4156">
					<rect
   x="261.848"
   y="268.152"
   style="fill:#FFFFFF;"
   width="33.874"
   height="1.55"
   id="rect4154" />
				</g>
			</g>
			<g
   id="g4162">
				<path
   style="fill:#542FD0;"
   d="M324.14,292.435h-68.706v-76.44h68.706V292.435z M256.468,291.402h66.639v-74.374h-66.639      V291.402z"
   id="path4160" />
			</g>
			<g
   id="g4168">
				<g
   id="g4166">
					<rect
   x="255.951"
   y="216.511"
   style="fill:#542FD0;"
   width="67.673"
   height="8.906"
   id="rect4164" />
				</g>
			</g>
			<g
   id="g4178">
				<g
   id="g4172">
					<path
   style="fill:#FFFFFF;"
   d="M304.298,264.192c-0.183,0-0.365-0.064-0.514-0.194l-5.207-4.601       c-0.167-0.147-0.261-0.359-0.261-0.581c0-0.222,0.095-0.434,0.261-0.581l5.207-4.601c0.321-0.283,0.81-0.255,1.095,0.068       c0.283,0.321,0.252,0.81-0.068,1.094l-4.55,4.02l4.55,4.02c0.32,0.284,0.35,0.773,0.068,1.094       C304.726,264.104,304.512,264.192,304.298,264.192z"
   id="path4170" />
				</g>
				<g
   id="g4176">
					<path
   style="fill:#FFFFFF;"
   d="M312.331,264.192c-0.214,0-0.428-0.088-0.581-0.262c-0.283-0.321-0.252-0.81,0.068-1.094       l4.55-4.02l-4.55-4.02c-0.32-0.284-0.35-0.773-0.068-1.094c0.284-0.321,0.773-0.35,1.095-0.068l5.207,4.601       c0.167,0.147,0.261,0.359,0.261,0.581c0,0.222-0.095,0.433-0.261,0.581l-5.207,4.601       C312.697,264.128,312.514,264.192,312.331,264.192z"
   id="path4174" />
				</g>
			</g>
			<g
   id="g4198">
				<g
   id="g4184">
					<g
   id="g4182">
						<path
   style="fill:#FFFFFF;"
   d="M262.36,220.965l1.805-1.805c0.171-0.171,0.171-0.447,0-0.618        c-0.171-0.171-0.447-0.171-0.618,0l-1.805,1.805l-1.805-1.805c-0.171-0.171-0.447-0.171-0.618,0        c-0.171,0.171-0.171,0.447,0,0.618l1.805,1.805l-1.805,1.805c-0.171,0.171-0.171,0.447,0,0.618        c0.085,0.085,0.197,0.128,0.309,0.128c0.112,0,0.224-0.043,0.309-0.128l1.805-1.805l1.805,1.805        c0.085,0.085,0.197,0.128,0.309,0.128c0.112,0,0.224-0.043,0.309-0.128c0.171-0.171,0.171-0.447,0-0.618L262.36,220.965z"
   id="path4180" />
					</g>
				</g>
				<g
   id="g4190">
					<g
   id="g4188">
						<path
   style="fill:#FFFFFF;"
   d="M270.103,223.516c-1.407,0-2.552-1.145-2.552-2.551c0-1.407,1.145-2.551,2.552-2.551        c1.407,0,2.551,1.145,2.551,2.551C272.654,222.372,271.51,223.516,270.103,223.516z M270.103,219.23        c-0.956,0-1.734,0.778-1.734,1.734c0,0.956,0.778,1.734,1.734,1.734s1.734-0.778,1.734-1.734        C271.837,220.008,271.059,219.23,270.103,219.23z"
   id="path4186" />
					</g>
				</g>
				<g
   id="g4196">
					<g
   id="g4194">
						<path
   style="fill:#FFFFFF;"
   d="M279.974,223.516h-4.158c-0.242,0-0.437-0.196-0.437-0.437c0-0.241,0.195-0.437,0.437-0.437        h4.158c0.242,0,0.437,0.196,0.437,0.437C280.411,223.32,280.215,223.516,279.974,223.516z"
   id="path4192" />
					</g>
				</g>
			</g>
		</g>
	</g>
	<path
   style="fill:#0F1B63;"
   d="M235.172,116.956l-6.018,1.904c-0.2,0.063-0.389,0.146-0.569,0.24   c-1.813-3.116-4.137-5.829-6.828-8.065c0.126-0.166,0.243-0.34,0.34-0.529l2.883-5.615c0.897-1.747,0.205-3.898-1.542-4.796   l-5.615-2.883c-1.747-0.896-3.899-0.205-4.796,1.542l-2.883,5.615c-0.097,0.189-0.17,0.385-0.231,0.583   c-3.295-0.861-6.755-1.174-10.249-0.873c-0.027-0.201-0.068-0.403-0.131-0.603l-1.904-6.018c-0.592-1.873-2.598-2.915-4.471-2.322   l-6.018,1.904c-1.873,0.592-2.914,2.598-2.322,4.471l1.904,6.018c0.063,0.2,0.146,0.389,0.24,0.569   c-3.116,1.813-5.829,4.137-8.065,6.828c-0.166-0.126-0.34-0.243-0.529-0.34l-5.615-2.883c-0.841-0.432-1.8-0.513-2.701-0.228   c-0.005,0.002-0.011,0.003-0.016,0.006c-0.906,0.291-1.644,0.918-2.079,1.764l-2.883,5.615l0,0   c-0.897,1.747-0.205,3.898,1.542,4.796l5.615,2.883c0.19,0.098,0.386,0.168,0.584,0.229c-0.861,3.295-1.175,6.756-0.874,10.25   c-0.201,0.027-0.403,0.068-0.603,0.131l-6.018,1.904c-1.873,0.592-2.914,2.598-2.322,4.471l1.904,6.018   c0.592,1.873,2.598,2.914,4.471,2.322l6.018-1.904c0.2-0.063,0.389-0.146,0.569-0.24c1.813,3.117,4.138,5.83,6.83,8.067   c-0.125,0.165-0.244,0.337-0.342,0.527l-2.883,5.615c-0.435,0.846-0.514,1.812-0.223,2.717c0.291,0.906,0.918,1.644,1.764,2.078   l5.615,2.883l0,0c0.868,0.446,1.836,0.499,2.7,0.225c0.875-0.277,1.644-0.889,2.095-1.768l2.883-5.615   c0.098-0.19,0.168-0.386,0.229-0.584c3.295,0.861,6.756,1.174,10.251,0.874c0.027,0.201,0.068,0.403,0.131,0.604l1.904,6.018   c0.592,1.873,2.598,2.914,4.471,2.322l6.018-1.904c1.873-0.592,2.914-2.598,2.322-4.471l-1.904-6.018   c-0.063-0.2-0.146-0.389-0.24-0.569c3.117-1.813,5.83-4.138,8.067-6.83c0.165,0.126,0.337,0.244,0.528,0.342l5.615,2.883   c0.868,0.446,1.836,0.499,2.701,0.226c0.875-0.277,1.644-0.889,2.095-1.768l2.884-5.615c0.897-1.747,0.205-3.899-1.542-4.796   l-5.615-2.883c-0.189-0.097-0.385-0.17-0.584-0.232c0.86-3.295,1.174-6.755,0.873-10.248c0.201-0.027,0.403-0.068,0.604-0.131   l6.018-1.904c1.873-0.592,2.914-2.598,2.322-4.47l-1.904-6.018C239.05,117.406,237.045,116.364,235.172,116.956z M207.317,150.359   c-8.795,2.782-18.214-2.11-20.996-10.905c-2.782-8.795,2.11-18.214,10.905-20.996c8.795-2.782,18.213,2.11,20.995,10.905   C221.003,138.159,216.111,147.577,207.317,150.359z"
   id="path4204" />
	<g
   id="g4210">
		<path
   style="fill:#B19CFE;"
   d="M227.573,256.675l-1.463,3.582c-0.049,0.119-0.084,0.24-0.11,0.362    c-2.179-0.368-4.369-0.336-6.478,0.055c-0.029-0.124-0.065-0.248-0.116-0.368l-1.516-3.56c-0.472-1.108-1.756-1.625-2.864-1.154    l-3.56,1.515c-1.107,0.471-1.625,1.757-1.154,2.864l1.516,3.56c0.051,0.12,0.115,0.231,0.184,0.338    c-1.697,1.215-3.202,2.723-4.43,4.487c-0.105-0.066-0.216-0.126-0.336-0.175l-3.582-1.463c-1.115-0.455-2.392,0.081-2.847,1.196    l-1.463,3.582c-0.455,1.115,0.081,2.392,1.196,2.847l3.582,1.463c0.119,0.049,0.24,0.084,0.362,0.11    c-0.368,2.179-0.336,4.369,0.055,6.478c-0.124,0.029-0.248,0.065-0.368,0.116l-3.56,1.516c-0.534,0.227-0.947,0.647-1.166,1.183    c-0.001,0.003-0.003,0.007-0.004,0.01c-0.218,0.541-0.212,1.135,0.016,1.671l1.516,3.56l0,0c0.472,1.107,1.757,1.625,2.864,1.154    l3.56-1.516c0.12-0.051,0.231-0.116,0.337-0.185c1.215,1.698,2.723,3.203,4.488,4.431c-0.066,0.105-0.126,0.217-0.175,0.336    l-1.463,3.582c-0.455,1.115,0.081,2.392,1.196,2.847l3.582,1.463c1.115,0.455,2.392-0.081,2.847-1.196l1.463-3.582    c0.049-0.119,0.084-0.24,0.11-0.362c2.179,0.368,4.37,0.336,6.479-0.056c0.029,0.124,0.063,0.247,0.115,0.368l1.516,3.56    c0.228,0.537,0.652,0.952,1.193,1.17c0.541,0.218,1.135,0.212,1.671-0.016l3.56-1.516l0,0c0.55-0.234,0.955-0.669,1.165-1.184    c0.213-0.521,0.226-1.123-0.011-1.68l-1.515-3.56c-0.051-0.121-0.116-0.231-0.186-0.337c1.698-1.215,3.203-2.723,4.431-4.488    c0.106,0.066,0.217,0.126,0.336,0.175l3.582,1.463c1.115,0.455,2.392-0.081,2.847-1.196l1.463-3.582    c0.455-1.115-0.081-2.392-1.196-2.847l-3.582-1.463c-0.119-0.049-0.24-0.084-0.362-0.11c0.368-2.179,0.336-4.37-0.056-6.479    c0.124-0.029,0.247-0.063,0.368-0.115l3.56-1.516c0.55-0.234,0.955-0.67,1.165-1.184c0.213-0.521,0.226-1.123-0.012-1.68    l-1.515-3.561c-0.472-1.108-1.757-1.625-2.864-1.154l-3.56,1.516c-0.12,0.051-0.231,0.115-0.338,0.184    c-1.215-1.697-2.723-3.202-4.487-4.43c0.066-0.105,0.126-0.217,0.175-0.336l1.463-3.582c0.455-1.115-0.081-2.392-1.196-2.847    l-3.582-1.463C229.305,255.023,228.028,255.56,227.573,256.675z M232.391,282.898c-2.138,5.235-8.136,7.755-13.371,5.618    c-5.235-2.138-7.755-8.136-5.618-13.371c2.138-5.235,8.136-7.755,13.371-5.617C232.008,271.665,234.528,277.663,232.391,282.898z"
   id="path4206" />
		<path
   style="fill:none;stroke:#B19CFE;stroke-width:0.5;stroke-miterlimit:10;"
   d="M203.848,238.489l-1.904,1.929    c-0.063,0.064-0.118,0.133-0.168,0.205c-1.313-0.82-2.739-1.385-4.21-1.694c0.015-0.088,0.024-0.178,0.023-0.269l-0.03-2.71    c-0.01-0.843-0.704-1.522-1.547-1.512l-2.711,0.031c-0.843,0.01-1.522,0.703-1.512,1.547l0.031,2.71    c0.001,0.091,0.013,0.18,0.029,0.268c-1.424,0.334-2.801,0.908-4.067,1.723c-0.051-0.071-0.106-0.139-0.171-0.203l-1.929-1.904    c-0.6-0.592-1.571-0.586-2.163,0.014l-1.904,1.929c-0.592,0.6-0.586,1.571,0.014,2.163l1.929,1.904    c0.064,0.063,0.133,0.118,0.205,0.168c-0.82,1.313-1.385,2.74-1.694,4.21c-0.088-0.015-0.178-0.024-0.269-0.023l-2.71,0.031    c-0.406,0.005-0.786,0.166-1.071,0.455c-0.002,0.002-0.004,0.003-0.005,0.005c-0.286,0.292-0.44,0.678-0.436,1.087l0.031,2.71l0,0    c0.01,0.843,0.704,1.522,1.547,1.512l2.711-0.031c0.092-0.001,0.18-0.013,0.268-0.03c0.334,1.424,0.908,2.801,1.723,4.068    c-0.071,0.051-0.139,0.107-0.203,0.171l-1.904,1.929c-0.592,0.6-0.586,1.571,0.014,2.163l1.929,1.904    c0.6,0.592,1.571,0.586,2.163-0.014l1.904-1.929c0.063-0.064,0.118-0.133,0.168-0.205c1.313,0.82,2.74,1.385,4.211,1.694    c-0.015,0.088-0.025,0.177-0.024,0.269l0.031,2.71c0.005,0.409,0.168,0.791,0.46,1.077c0.292,0.286,0.678,0.44,1.087,0.436    l2.711-0.03l0,0c0.419-0.005,0.797-0.179,1.071-0.456c0.277-0.28,0.446-0.667,0.441-1.091l-0.031-2.71    c-0.001-0.092-0.014-0.18-0.03-0.268c1.424-0.334,2.801-0.908,4.068-1.723c0.051,0.071,0.107,0.14,0.171,0.203l1.929,1.904    c0.6,0.593,1.571,0.586,2.163-0.014l1.904-1.929c0.592-0.6,0.586-1.571-0.014-2.163l-1.929-1.904    c-0.064-0.063-0.133-0.118-0.205-0.168c0.82-1.313,1.385-2.74,1.695-4.211c0.088,0.015,0.177,0.025,0.269,0.024l2.71-0.031    c0.419-0.005,0.798-0.178,1.071-0.456c0.277-0.281,0.446-0.667,0.441-1.091l-0.03-2.711c-0.01-0.843-0.704-1.522-1.547-1.512    l-2.71,0.031c-0.091,0.001-0.18,0.013-0.268,0.029c-0.334-1.424-0.908-2.801-1.723-4.067c0.071-0.051,0.14-0.107,0.203-0.171    l1.904-1.929c0.592-0.6,0.586-1.571-0.014-2.163l-1.929-1.904C205.411,237.883,204.441,237.889,203.848,238.489z M199.965,256.758    c-2.783,2.82-7.34,2.85-10.16,0.067c-2.82-2.783-2.85-7.34-0.067-10.16c2.782-2.819,7.34-2.849,10.16-0.067    C202.717,249.382,202.747,253.939,199.965,256.758z"
   id="path4208" />
	</g>
	<g
   id="g4288">
		<g
   id="g4248">
			<g
   id="g4214">
				<rect
   x="39.249"
   y="213.29"
   style="fill:#0F1B63;"
   width="12.355"
   height="2.067"
   id="rect4212" />
			</g>
			<g
   id="g4218">
				<rect
   x="56.71"
   y="213.29"
   style="fill:#0F1B63;"
   width="31.514"
   height="2.067"
   id="rect4216" />
			</g>
			<g
   id="g4222">
				<rect
   x="68.717"
   y="235.479"
   style="fill:#0F1B63;"
   width="19.507"
   height="2.067"
   id="rect4220" />
			</g>
			<g
   id="g4226">
				<rect
   x="39.249"
   y="235.479"
   style="fill:#0F1B63;"
   width="24.363"
   height="2.067"
   id="rect4224" />
			</g>
			<g
   id="g4230">
				<rect
   x="39.249"
   y="220.846"
   style="fill:#0F1B63;"
   width="27.158"
   height="2.067"
   id="rect4228" />
			</g>
			<g
   id="g4234">
				<rect
   x="71.512"
   y="220.846"
   style="fill:#0F1B63;"
   width="16.712"
   height="2.067"
   id="rect4232" />
			</g>
			<g
   id="g4238">
				<rect
   x="39.249"
   y="228.266"
   style="fill:#0F1B63;"
   width="21.082"
   height="2.067"
   id="rect4236" />
			</g>
			<g
   id="g4242">
				<rect
   x="69.065"
   y="228.266"
   style="fill:#0F1B63;"
   width="19.159"
   height="2.067"
   id="rect4240" />
			</g>
			<g
   id="g4246">
				<rect
   x="63.029"
   y="228.266"
   style="fill:#0F1B63;"
   width="3.665"
   height="2.067"
   id="rect4244" />
			</g>
		</g>
		<g
   id="g4286">
			<g
   id="g4252">
				<rect
   x="364.877"
   y="406.848"
   style="fill:#0F1B63;"
   width="12.355"
   height="2.067"
   id="rect4250" />
			</g>
			<g
   id="g4256">
				<rect
   x="382.337"
   y="406.848"
   style="fill:#0F1B63;"
   width="31.514"
   height="2.067"
   id="rect4254" />
			</g>
			<g
   id="g4260">
				<rect
   x="394.344"
   y="429.037"
   style="fill:#0F1B63;"
   width="19.507"
   height="2.067"
   id="rect4258" />
			</g>
			<g
   id="g4264">
				<rect
   x="364.877"
   y="429.037"
   style="fill:#0F1B63;"
   width="24.362"
   height="2.067"
   id="rect4262" />
			</g>
			<g
   id="g4268">
				<rect
   x="364.877"
   y="414.405"
   style="fill:#0F1B63;"
   width="27.157"
   height="2.067"
   id="rect4266" />
			</g>
			<g
   id="g4272">
				<rect
   x="397.139"
   y="414.405"
   style="fill:#0F1B63;"
   width="16.712"
   height="2.067"
   id="rect4270" />
			</g>
			<g
   id="g4276">
				<rect
   x="364.877"
   y="421.824"
   style="fill:#0F1B63;"
   width="21.082"
   height="2.067"
   id="rect4274" />
			</g>
			<g
   id="g4280">
				<rect
   x="394.692"
   y="421.824"
   style="fill:#0F1B63;"
   width="19.159"
   height="2.067"
   id="rect4278" />
			</g>
			<g
   id="g4284">
				<rect
   x="388.656"
   y="421.824"
   style="fill:#0F1B63;"
   width="3.665"
   height="2.067"
   id="rect4282" />
			</g>
		</g>
	</g>
	<path
   style="fill:#0F1B63;"
   d="M405.94,151.791l-4.852,1.039c-0.161,0.035-0.315,0.085-0.463,0.145   c-1.185-2.574-2.801-4.871-4.74-6.823c0.111-0.12,0.216-0.248,0.306-0.389l2.677-4.178c0.833-1.3,0.453-3.035-0.847-3.868   l-4.178-2.677c-1.3-0.832-3.035-0.453-3.868,0.848l-2.677,4.178c-0.09,0.14-0.162,0.288-0.225,0.439   c-2.514-0.92-5.198-1.425-7.955-1.451c-0.006-0.16-0.023-0.32-0.057-0.482l-1.039-4.852c-0.323-1.51-1.814-2.475-3.324-2.152   l-4.852,1.039c-1.51,0.323-2.475,1.815-2.152,3.325l1.039,4.852c0.035,0.161,0.085,0.315,0.145,0.463   c-2.574,1.185-4.871,2.801-6.823,4.739c-0.12-0.111-0.248-0.216-0.388-0.306l-4.178-2.677c-0.626-0.401-1.37-0.536-2.096-0.381   c-0.004,0.001-0.009,0.002-0.013,0.003c-0.731,0.16-1.355,0.595-1.759,1.225l-2.677,4.178h0c-0.832,1.3-0.453,3.035,0.848,3.868   l4.178,2.677c0.142,0.091,0.29,0.161,0.44,0.223c-0.92,2.514-1.425,5.199-1.452,7.956c-0.159,0.006-0.32,0.023-0.482,0.057   l-4.852,1.039c-1.51,0.323-2.475,1.814-2.152,3.325l1.039,4.852c0.323,1.51,1.814,2.475,3.324,2.152l4.852-1.039   c0.161-0.035,0.315-0.085,0.463-0.145c1.185,2.575,2.801,4.872,4.741,6.824c-0.111,0.12-0.216,0.245-0.307,0.387l-2.677,4.178   c-0.404,0.63-0.538,1.379-0.378,2.11c0.16,0.731,0.595,1.355,1.225,1.758l4.178,2.677l0,0c0.646,0.414,1.399,0.528,2.096,0.379   c0.705-0.151,1.353-0.572,1.772-1.226l2.677-4.178c0.091-0.141,0.161-0.29,0.223-0.44c2.514,0.92,5.199,1.425,7.956,1.452   c0.006,0.16,0.023,0.321,0.058,0.482l1.039,4.852c0.323,1.51,1.814,2.475,3.324,2.152l4.852-1.039   c1.51-0.323,2.475-1.814,2.152-3.324l-1.039-4.852c-0.035-0.161-0.085-0.315-0.145-0.463c2.575-1.185,4.872-2.801,6.824-4.741   c0.12,0.111,0.246,0.216,0.387,0.307l4.178,2.677c0.646,0.414,1.4,0.528,2.097,0.379c0.705-0.151,1.353-0.572,1.772-1.226   l2.677-4.178c0.833-1.3,0.452-3.035-0.847-3.868l-4.178-2.677c-0.14-0.09-0.289-0.162-0.439-0.225   c0.92-2.514,1.425-5.198,1.451-7.954c0.16-0.006,0.321-0.023,0.482-0.057l4.852-1.039c1.51-0.323,2.475-1.814,2.152-3.324   l-1.039-4.852C408.941,152.433,407.45,151.468,405.94,151.791z M381.641,175.844c-7.091,1.518-14.095-3.015-15.613-10.106   c-1.518-7.091,3.015-14.095,10.106-15.613c7.091-1.518,14.095,3.015,15.613,10.106   C393.265,167.322,388.731,174.326,381.641,175.844z"
   id="path4290" />
</g>

<g
   id="g4533"
   transform="matrix(0.14564722,0,0,0.14564722,113.23785,243.40145)"><path
     d="m 134.358,126.46551 a 3.59023,3.59023 0 0 0 -0.855,-0.065 3.68515,3.68515 0 0 0 -1.425,0.37 3.725,3.725 0 0 0 -1.803,4.825 l -0.026,0.037 8.528,20.603 a 43.53012,43.53012 0 0 0 17.595,-22.102 l -21.976,-3.714 z m -34.194,2.92 a 3.72,3.72 0 0 0 -3.568,-2.894 3.6556,3.6556 0 0 0 -0.733,0.065 l -0.037,-0.045 -21.785,3.698 a 43.69506,43.69506 0 0 0 17.54,21.946 l 8.442,-20.399 -0.066,-0.08 a 3.68318,3.68318 0 0 0 0.207,-2.291 z m 18.245,8 a 3.718,3.718 0 0 0 -6.557,0.008 h -0.018 l -10.713,19.372 a 43.637,43.637 0 0 0 23.815,1.225 q 2.197,-0.5 4.292,-1.199 l -10.738,-19.407 z m 33.914,-45 -16.483,14.753 0.009,0.047 a 3.725,3.725 0 0 0 1.46,6.395 l 0.02,0.089 21.35,6.15 a 44.278,44.278 0 0 0 -6.356,-27.432 z M 121.7,94.0385 a 3.725,3.725 0 0 0 5.913,2.84 l 0.065,0.028 18.036,-12.789 a 43.85,43.85 0 0 0 -25.287,-12.19 l 1.253,22.105 z m -19.1,2.922 a 3.72,3.72 0 0 0 5.904,-2.85 l 0.092,-0.044 1.253,-22.139 a 44.68209,44.68209 0 0 0 -4.501,0.775 43.4669,43.4669 0 0 0 -20.937,11.409 l 18.154,12.869 z m -9.678,16.728 a 3.72,3.72 0 0 0 1.462,-6.396 l 0.018,-0.087 -16.574,-14.825 a 43.454,43.454 0 0 0 -6.168,27.511 l 21.245,-6.13 z m 16.098,6.512 6.114,2.94 6.096,-2.933 1.514,-6.582 -4.219,-5.276 h -6.79 l -4.231,5.268 z"
     class="cls-1"
     id="path4522" /><path
     d="m 216.208,133.16651 -17.422,-75.675 a 13.60207,13.60207 0 0 0 -7.293,-9.073 l -70.521,-33.67 a 13.589,13.589 0 0 0 -11.705,0 l -70.507,33.688 a 13.598,13.598 0 0 0 -7.295,9.072 l -17.394,75.673 a 13.315,13.315 0 0 0 -0.004,5.81 13.50607,13.50607 0 0 0 0.491,1.718 13.0998,13.0998 0 0 0 1.343,2.726 c 0.239,0.365 0.491,0.72 0.765,1.064 l 48.804,60.678 c 0.213,0.264 0.448,0.505 0.681,0.75 a 13.42334,13.42334 0 0 0 2.574,2.133 13.9237,13.9237 0 0 0 3.857,1.677 13.29785,13.29785 0 0 0 3.43,0.473 h 0.759 l 77.504,-0.018 a 12.99345,12.99345 0 0 0 1.41,-0.083 13.46921,13.46921 0 0 0 1.989,-0.378 13.872,13.872 0 0 0 1.381,-0.442 c 0.353,-0.135 0.705,-0.27 1.045,-0.433 a 13.94127,13.94127 0 0 0 1.479,-0.822 13.30347,13.30347 0 0 0 3.237,-2.865 l 1.488,-1.85 47.299,-58.84 a 13.185,13.185 0 0 0 2.108,-3.785 13.67036,13.67036 0 0 0 0.5,-1.724 13.28215,13.28215 0 0 0 -0.004,-5.809 z m -73.147,29.432 a 14.51575,14.51575 0 0 0 0.703,1.703 3.314,3.314 0 0 0 -0.327,2.49 39.37244,39.37244 0 0 0 3.742,6.7 35.06044,35.06044 0 0 1 2.263,3.364 c 0.17,0.315 0.392,0.803 0.553,1.136 a 4.24,4.24 0 1 1 -7.63,3.607 c -0.161,-0.33 -0.385,-0.77 -0.522,-1.082 a 35.27528,35.27528 0 0 1 -1.225,-3.868 39.3046,39.3046 0 0 0 -2.896,-7.097 3.335,3.335 0 0 0 -2.154,-1.307 c -0.135,-0.233 -0.635,-1.149 -0.903,-1.623 a 54.617,54.617 0 0 1 -38.948,-0.1 l -0.955,1.731 a 3.429,3.429 0 0 0 -1.819,0.886 29.51728,29.51728 0 0 0 -3.268,7.582 34.89931,34.89931 0 0 1 -1.218,3.868 c -0.135,0.31 -0.361,0.744 -0.522,1.073 v 0.009 l -0.007,0.008 a 4.238,4.238 0 1 1 -7.619,-3.616 c 0.159,-0.335 0.372,-0.82 0.54,-1.135 a 35.17706,35.17706 0 0 1 2.262,-3.373 41.22786,41.22786 0 0 0 3.82,-6.866 4.18792,4.18792 0 0 0 -0.376,-2.387 l 0.768,-1.84 a 54.922,54.922 0 0 1 -24.338,-30.387 l -1.839,0.313 a 4.68007,4.68007 0 0 0 -2.428,-0.855 39.52352,39.52352 0 0 0 -7.356,2.165 35.58886,35.58886 0 0 1 -3.787,1.45 c -0.305,0.084 -0.745,0.168 -1.093,0.244 -0.028,0.01 -0.052,0.022 -0.08,0.029 a 0.60518,0.60518 0 0 1 -0.065,0.006 4.236,4.236 0 1 1 -1.874,-8.224 l 0.061,-0.015 0.037,-0.01 c 0.353,-0.083 0.805,-0.2 1.127,-0.262 a 35.27,35.27 0 0 1 4.05,-0.326 39.38835,39.38835 0 0 0 7.564,-1.242 5.83506,5.83506 0 0 0 1.814,-1.83 l 1.767,-0.516 a 54.613,54.613 0 0 1 8.613,-38.073 l -1.353,-1.206 a 4.688,4.688 0 0 0 -0.848,-2.436 39.36558,39.36558 0 0 0 -6.277,-4.41 35.2503,35.2503 0 0 1 -3.499,-2.046 c -0.256,-0.191 -0.596,-0.478 -0.874,-0.704 l -0.063,-0.044 a 4.473,4.473 0 0 1 -1.038,-6.222 4.066,4.066 0 0 1 3.363,-1.488 5.03,5.03 0 0 1 2.942,1.11 c 0.287,0.225 0.68,0.526 0.935,0.745 a 35.25285,35.25285 0 0 1 2.78,2.95 39.38314,39.38314 0 0 0 5.69,5.142 3.333,3.333 0 0 0 2.507,0.243 q 0.754,0.55 1.522,1.082 a 54.28892,54.28892 0 0 1 27.577,-15.754 55.05181,55.05181 0 0 1 7.63,-1.173 l 0.1,-1.784 a 4.6001,4.6001 0 0 0 1.37,-2.184 39.47551,39.47551 0 0 0 -0.47,-7.654 35.466,35.466 0 0 1 -0.576,-4.014 c -0.011,-0.307 0.006,-0.731 0.01,-1.081 0,-0.04 -0.01,-0.079 -0.01,-0.118 a 4.242,4.242 0 1 1 8.441,-0.004 c 0,0.37 0.022,0.861 0.009,1.2 a 35.109,35.109 0 0 1 -0.579,4.013 39.53346,39.53346 0 0 0 -0.478,7.656 3.344,3.344 0 0 0 1.379,2.11 c 0.015,0.305 0.065,1.323 0.102,1.884 a 55.309,55.309 0 0 1 35.032,16.927 l 1.606,-1.147 a 4.6901,4.6901 0 0 0 2.56,-0.278 39.53152,39.53152 0 0 0 5.69,-5.148 35.00382,35.00382 0 0 1 2.787,-2.95 c 0.259,-0.222 0.65,-0.52 0.936,-0.746 a 4.242,4.242 0 1 1 5.258,6.598 c -0.283,0.229 -0.657,0.548 -0.929,0.75 a 35.09523,35.09523 0 0 1 -3.507,2.046 39.49476,39.49476 0 0 0 -6.277,4.41 3.337,3.337 0 0 0 -0.792,2.39 c -0.235,0.216 -1.06,0.947 -1.497,1.343 a 54.837,54.837 0 0 1 8.792,37.983 l 1.704,0.496 a 4.7449,4.7449 0 0 0 1.82,1.831 39.46448,39.46448 0 0 0 7.568,1.245 35.64041,35.64041 0 0 1 4.046,0.324 c 0.355,0.065 0.868,0.207 1.23,0.29 a 4.236,4.236 0 1 1 -1.878,8.223 l -0.061,-0.008 c -0.028,-0.007 -0.054,-0.022 -0.083,-0.029 -0.348,-0.076 -0.785,-0.152 -1.09,-0.232 a 35.1407,35.1407 0 0 1 -3.785,-1.462 39.47672,39.47672 0 0 0 -7.363,-2.165 3.337,3.337 0 0 0 -2.362,0.877 q -0.9,-0.171 -1.804,-0.316 a 54.91994,54.91994 0 0 1 -24.328,30.605 z"
     class="cls-1"
     id="path4524" /></g><style
   type="text/css"
   id="style4535">
	.st0{fill:#2DBCAF;}
	.st1{fill:#5DC9E1;}
	.st2{fill:#FDDD00;}
	.st3{fill:#CE3262;}
	.st4{fill:#00ACD7;}
	.st5{fill:#FFFFFF;}
</style><g
   id="g4574"
   transform="matrix(0.30284443,0,0,0.30284443,281.77501,354.3652)">
	<g
   id="g4543">
		<g
   id="g4541">
			<g
   id="g4539">
				<path
   class="st5"
   d="m 40.2,101.1 c -0.4,0 -0.5,-0.2 -0.3,-0.5 L 42,97.9 c 0.2,-0.3 0.7,-0.5 1.1,-0.5 h 35.7 c 0.4,0 0.5,0.3 0.3,0.6 l -1.7,2.6 c -0.2,0.3 -0.7,0.6 -1,0.6 z"
   id="path4537" />
			</g>
		</g>
	</g>
	<g
   id="g4551">
		<g
   id="g4549">
			<g
   id="g4547">
				<path
   class="st5"
   d="m 25.1,110.3 c -0.4,0 -0.5,-0.2 -0.3,-0.5 l 2.1,-2.7 c 0.2,-0.3 0.7,-0.5 1.1,-0.5 h 45.6 c 0.4,0 0.6,0.3 0.5,0.6 l -0.8,2.4 c -0.1,0.4 -0.5,0.6 -0.9,0.6 z"
   id="path4545" />
			</g>
		</g>
	</g>
	<g
   id="g4559">
		<g
   id="g4557">
			<g
   id="g4555">
				<path
   class="st5"
   d="m 49.3,119.5 c -0.4,0 -0.5,-0.3 -0.3,-0.6 l 1.4,-2.5 c 0.2,-0.3 0.6,-0.6 1,-0.6 h 20 c 0.4,0 0.6,0.3 0.6,0.7 l -0.2,2.4 c 0,0.4 -0.4,0.7 -0.7,0.7 z"
   id="path4553" />
			</g>
		</g>
	</g>
	<g
   id="g4572">
		<g
   id="CXHf1q_2_">
			<g
   id="g4569">
				<g
   id="g4563">
					<path
   class="st5"
   d="m 153.1,99.3 c -6.3,1.6 -10.6,2.8 -16.8,4.4 -1.5,0.4 -1.6,0.5 -2.9,-1 -1.5,-1.7 -2.6,-2.8 -4.7,-3.8 -6.3,-3.1 -12.4,-2.2 -18.1,1.5 -6.8,4.4 -10.3,10.9 -10.2,19 0.1,8 5.6,14.6 13.5,15.7 6.8,0.9 12.5,-1.5 17,-6.6 0.9,-1.1 1.7,-2.3 2.7,-3.7 -3.6,0 -8.1,0 -19.3,0 -2.1,0 -2.6,-1.3 -1.9,-3 1.3,-3.1 3.7,-8.3 5.1,-10.9 0.3,-0.6 1,-1.6 2.5,-1.6 5.1,0 23.9,0 36.4,0 -0.2,2.7 -0.2,5.4 -0.6,8.1 -1.1,7.2 -3.8,13.8 -8.2,19.6 -7.2,9.5 -16.6,15.4 -28.5,17 -9.8,1.3 -18.9,-0.6 -26.9,-6.6 -7.4,-5.6 -11.6,-13 -12.7,-22.2 -1.3,-10.9 1.9,-20.7 8.5,-29.3 7.1,-9.3 16.5,-15.2 28,-17.3 9.4,-1.7 18.4,-0.6 26.5,4.9 5.3,3.5 9.1,8.3 11.6,14.1 0.6,0.9 0.2,1.4 -1,1.7 z"
   id="path4561" />
				</g>
				<g
   id="g4567">
					<path
   class="st5"
   d="m 186.2,154.6 c -9.1,-0.2 -17.4,-2.8 -24.4,-8.8 -5.9,-5.1 -9.6,-11.6 -10.8,-19.3 -1.8,-11.3 1.3,-21.3 8.1,-30.2 7.3,-9.6 16.1,-14.6 28,-16.7 10.2,-1.8 19.8,-0.8 28.5,5.1 7.9,5.4 12.8,12.7 14.1,22.3 1.7,13.5 -2.2,24.5 -11.5,33.9 -6.6,6.7 -14.7,10.9 -24,12.8 -2.7,0.5 -5.4,0.6 -8,0.9 z M 210,114.2 c -0.1,-1.3 -0.1,-2.3 -0.3,-3.3 -1.8,-9.9 -10.9,-15.5 -20.4,-13.3 -9.3,2.1 -15.3,8 -17.5,17.4 -1.8,7.8 2,15.7 9.2,18.9 5.5,2.4 11,2.1 16.3,-0.6 7.9,-4.1 12.2,-10.5 12.7,-19.1 z"
   id="path4565" />
				</g>
			</g>
		</g>
	</g>
</g><g
   style="fill:#ffffff"
   id="g4770"
   transform="matrix(0.06629497,0,0,0.06629497,414.70755,264.02236)"><path
     d="m 410.66,180.72 v 0 q -7.67,-2.62 -15.45,-4.88 1.29,-5.25 2.38,-10.56 c 11.7,-56.9 4.05,-102.74 -22.06,-117.83 -25,-14.48 -66,0.61 -107.36,36.69 q -6.1,5.34 -11.95,11 -3.9,-3.76 -8,-7.36 C 204.87,49.2 161.42,32.95 135.34,48.09 c -25,14.51 -32.43,57.6 -21.9,111.53 q 1.58,8 3.55,15.93 c -6.15,1.75 -12.09,3.62 -17.77,5.6 C 48.46,198.9 16,226.73 16,255.59 c 0,29.82 34.84,59.72 87.77,77.85 q 6.44,2.19 13,4.07 -2.13,8.49 -3.77,17.17 c -10,53 -2.2,95.07 22.75,109.49 25.77,14.89 69,-0.41 111.14,-37.31 q 5,-4.38 10,-9.25 6.32,6.11 13,11.86 c 40.8,35.18 81.09,49.39 106,34.93 25.75,-14.94 34.12,-60.14 23.25,-115.13 q -1.25,-6.3 -2.88,-12.86 4.56,-1.35 8.93,-2.79 c 55,-18.27 90.83,-47.81 90.83,-78 -0.02,-29 -33.52,-57.01 -85.36,-74.9 z m -129,-81.08 c 35.43,-30.91 68.55,-43.11 83.65,-34.39 v 0 c 16.07,9.29 22.32,46.75 12.22,95.88 q -1,4.8 -2.16,9.57 A 487.83,487.83 0 0 0 311.19,160.54 481.27,481.27 0 0 0 270.62,109.79 Q 276,104.57 281.64,99.64 Z M 157.73,280.25 q 6.51,12.6 13.61,24.89 7.23,12.54 15.07,24.71 a 435.28,435.28 0 0 1 -44.24,-7.13 c 4.24,-13.72 9.46,-27.97 15.56,-42.47 z m 0,-48.33 c -6,-14.19 -11.08,-28.15 -15.25,-41.63 13.7,-3.07 28.3,-5.58 43.52,-7.48 q -7.65,11.94 -14.72,24.23 -7.07,12.29 -13.58,24.88 z m 10.9,24.17 q 9.48,-19.77 20.42,-38.78 v 0 q 10.93,-19 23.27,-37.13 c 14.28,-1.08 28.92,-1.65 43.71,-1.65 14.79,0 29.52,0.57 43.79,1.66 q 12.21,18.09 23.13,37 10.92,18.91 20.69,38.6 Q 334,275.63 323,294.73 v 0 q -10.91,19 -23,37.24 c -14.25,1 -29,1.55 -44,1.55 -15,0 -29.47,-0.47 -43.46,-1.38 Q 200.11,313.95 189.08,294.85 178.05,275.75 168.6,256.09 Z M 340.75,305 q 7.25,-12.58 13.92,-25.49 v 0 a 440.41,440.41 0 0 1 16.12,42.32 434.44,434.44 0 0 1 -44.79,7.65 q 7.62,-12.09 14.75,-24.48 z m 13.72,-73.07 q -6.64,-12.65 -13.81,-25 v 0 q -7,-12.18 -14.59,-24.06 c 15.31,1.94 30,4.52 43.77,7.67 a 439.89,439.89 0 0 1 -15.37,41.39 z M 256.23,124.48 v 0 a 439.75,439.75 0 0 1 28.25,34.18 q -28.35,-1.35 -56.74,0 c 9.33,-12.34 18.88,-23.79 28.49,-34.18 z M 145.66,65.86 c 16.06,-9.32 51.57,4 89,37.27 2.39,2.13 4.8,4.36 7.2,6.67 a 491.37,491.37 0 0 0 -40.86,50.71 499.12,499.12 0 0 0 -64.06,10 q -1.83,-7.36 -3.3,-14.82 v 0 c -9.05,-46.23 -3.06,-81.08 12.02,-89.83 z M 122.25,317.71 Q 116.25,316 110.4,314 C 87,306 67.67,295.56 54.4,284.19 42.52,274 36.5,263.83 36.5,255.59 c 0,-17.51 26.06,-39.85 69.52,-55 q 8.19,-2.85 16.52,-5.21 a 493.54,493.54 0 0 0 23.4,60.75 502.46,502.46 0 0 0 -23.69,61.58 z m 111.13,93.67 c -18.63,16.32 -37.29,27.89 -53.74,33.72 v 0 c -14.78,5.23 -26.55,5.38 -33.66,1.27 -15.14,-8.75 -21.44,-42.54 -12.85,-87.86 q 1.53,-8 3.5,-16 a 480.85,480.85 0 0 0 64.69,9.39 501.2,501.2 0 0 0 41.2,51 c -2.98,2.93 -6.03,5.75 -9.14,8.48 z m 23.42,-23.22 c -9.72,-10.51 -19.42,-22.14 -28.88,-34.64 q 13.79,0.54 28.08,0.54 c 9.78,0 19.46,-0.21 29,-0.64 a 439.33,439.33 0 0 1 -28.2,34.74 z m 124.52,28.59 c -2.86,15.44 -8.61,25.74 -15.72,29.86 -15.13,8.78 -47.48,-2.63 -82.36,-32.72 -4,-3.44 -8,-7.13 -12.07,-11 a 484.54,484.54 0 0 0 40.23,-51.2 477.84,477.84 0 0 0 65,-10.05 q 1.47,5.94 2.6,11.64 v 0 c 4.81,24.3 5.5,46.28 2.32,63.47 z m 17.4,-102.64 v 0 c -2.62,0.87 -5.32,1.71 -8.06,2.53 a 483.26,483.26 0 0 0 -24.31,-60.94 481.52,481.52 0 0 0 23.36,-60.06 c 4.91,1.43 9.68,2.93 14.27,4.52 44.42,15.32 71.52,38 71.52,55.43 0,18.6 -29.27,42.74 -76.78,58.52 z"
     id="path4758"
     style="fill:#ffffff" /><path
     d="m 256,298.55 a 43,43 0 1 0 -42.86,-43 42.91,42.91 0 0 0 42.86,43 z"
     id="path4760"
     style="fill:#ffffff" /></g><g
   style="fill:#ffffff"
   id="g4790"
   transform="matrix(2.237596,0,0,2.237596,279.14257,125.88169)"><path
     d="m 7.636,10.344 c 0,0.246 0.027,0.446 0.073,0.592 0.053,0.146 0.12,0.306 0.213,0.479 a 0.29,0.29 0 0 1 0.047,0.153 c 0,0.067 -0.04,0.133 -0.126,0.2 l -0.419,0.279 a 0.32,0.32 0 0 1 -0.173,0.06 c -0.067,0 -0.133,-0.033 -0.2,-0.093 A 2.015,2.015 0 0 1 6.812,11.701 4.898,4.898 0 0 1 6.606,11.309 c -0.519,0.612 -1.171,0.918 -1.956,0.918 -0.559,0 -1.004,-0.16 -1.33,-0.479 -0.326,-0.319 -0.492,-0.745 -0.492,-1.277 0,-0.565 0.2,-1.024 0.605,-1.37 0.405,-0.346 0.945,-0.519 1.63,-0.519 0.226,0 0.459,0.02 0.705,0.053 0.245,0.032 0.498,0.086 0.764,0.145 V 8.295 C 6.532,7.789 6.426,7.437 6.219,7.231 6.007,7.024 5.647,6.925 5.135,6.925 4.902,6.925 4.663,6.952 4.417,7.011 A 5.3,5.3 0 0 0 3.699,7.237 2.063,2.063 0 0 1 3.466,7.324 0.427,0.427 0 0 1 3.36,7.344 C 3.267,7.344 3.22,7.277 3.22,7.138 V 6.812 C 3.22,6.706 3.233,6.626 3.267,6.579 A 0.496,0.496 0 0 1 3.453,6.439 C 3.685,6.319 3.964,6.22 4.29,6.14 A 4.056,4.056 0 0 1 5.328,6.014 c 0.792,0 1.37,0.18 1.743,0.539 0.366,0.359 0.552,0.905 0.552,1.636 v 2.155 z m -2.7,1.011 c 0.22,0 0.446,-0.04 0.685,-0.12 0.239,-0.08 0.452,-0.226 0.632,-0.426 0.106,-0.126 0.186,-0.266 0.226,-0.426 0.04,-0.16 0.067,-0.353 0.067,-0.579 V 9.525 A 5.855,5.855 0 0 0 5.933,9.412 4.938,4.938 0 0 0 5.308,9.372 c -0.446,0 -0.772,0.086 -0.991,0.266 -0.22,0.18 -0.326,0.432 -0.326,0.765 0,0.313 0.08,0.545 0.246,0.705 0.16,0.167 0.393,0.247 0.699,0.247 z m 5.341,0.718 c -0.12,0 -0.2,-0.02 -0.253,-0.067 -0.053,-0.04 -0.1,-0.133 -0.14,-0.259 L 8.321,6.605 c -0.04,-0.133 -0.06,-0.22 -0.06,-0.266 0,-0.106 0.053,-0.166 0.16,-0.166 h 0.652 c 0.126,0 0.213,0.02 0.259,0.067 0.053,0.04 0.093,0.133 0.133,0.259 l 1.118,4.403 1.038,-4.403 c 0.033,-0.133 0.073,-0.22 0.126,-0.259 a 0.455,0.455 0 0 1 0.266,-0.067 h 0.532 c 0.126,0 0.213,0.02 0.266,0.067 0.053,0.04 0.1,0.133 0.126,0.259 l 1.051,4.457 1.151,-4.457 c 0.04,-0.133 0.086,-0.22 0.133,-0.259 a 0.433,0.433 0 0 1 0.259,-0.067 h 0.619 c 0.106,0 0.166,0.053 0.166,0.166 0,0.033 -0.007,0.067 -0.013,0.106 a 0.944,0.944 0 0 1 -0.047,0.166 l -1.603,5.142 c -0.04,0.133 -0.086,0.22 -0.14,0.259 a 0.425,0.425 0 0 1 -0.253,0.067 h -0.572 c -0.126,0 -0.213,-0.02 -0.266,-0.067 -0.053,-0.047 -0.1,-0.133 -0.126,-0.266 l -1.031,-4.29 -1.024,4.284 c -0.033,0.133 -0.073,0.22 -0.126,0.266 -0.053,0.046 -0.146,0.067 -0.266,0.067 z m 8.548,0.18 c -0.346,0 -0.692,-0.04 -1.024,-0.12 -0.333,-0.08 -0.592,-0.166 -0.765,-0.266 -0.106,-0.06 -0.18,-0.126 -0.206,-0.186 a 0.462,0.462 0 0 1 -0.04,-0.186 v -0.339 c 0,-0.14 0.053,-0.206 0.153,-0.206 0.04,0 0.08,0.007 0.12,0.02 0.04,0.013 0.1,0.04 0.166,0.067 0.226,0.1 0.472,0.18 0.732,0.233 0.266,0.053 0.525,0.08 0.792,0.08 0.419,0 0.745,-0.073 0.971,-0.22 A 0.716,0.716 0 0 0 20.07,10.498 0.65,0.65 0 0 0 19.89,10.032 C 19.77,9.906 19.544,9.793 19.218,9.686 L 18.253,9.387 C 17.767,9.234 17.408,9.008 17.189,8.709 A 1.584,1.584 0 0 1 16.856,7.744 c 0,-0.279 0.06,-0.525 0.18,-0.738 0.12,-0.213 0.279,-0.399 0.479,-0.545 0.2,-0.153 0.426,-0.266 0.692,-0.346 C 18.472,6.033 18.751,6 19.044,6 c 0.146,0 0.299,0.007 0.446,0.027 0.153,0.02 0.293,0.047 0.432,0.073 0.133,0.033 0.259,0.067 0.379,0.106 0.12,0.04 0.213,0.08 0.279,0.12 0.093,0.053 0.16,0.106 0.2,0.166 0.04,0.053 0.06,0.126 0.06,0.22 v 0.313 c 0,0.14 -0.053,0.213 -0.153,0.213 A 0.7,0.7 0 0 1 20.434,7.158 3.042,3.042 0 0 0 19.157,6.899 c -0.379,0 -0.678,0.06 -0.885,0.186 -0.206,0.126 -0.313,0.319 -0.313,0.592 0,0.186 0.067,0.346 0.2,0.472 0.133,0.126 0.379,0.253 0.732,0.366 l 0.945,0.299 c 0.479,0.153 0.825,0.366 1.031,0.639 0.206,0.273 0.306,0.585 0.306,0.931 0,0.286 -0.06,0.545 -0.173,0.772 -0.12,0.226 -0.279,0.426 -0.486,0.585 a 2.137,2.137 0 0 1 -0.738,0.372 c -0.3,0.093 -0.612,0.14 -0.951,0.14 z"
     id="path4772"
     style="fill:#ffffff" /><g
     fill-rule="evenodd"
     clip-rule="evenodd"
     id="g4778"
     style="fill:#ffffff">

<path
   d="m 20.082,15.485 c -2.188,1.616 -5.368,2.474 -8.102,2.474 -3.831,0 -7.284,-1.417 -9.891,-3.772 -0.206,-0.186 -0.02,-0.439 0.226,-0.293 2.82,1.636 6.299,2.627 9.898,2.627 2.428,0 5.095,-0.506 7.55,-1.543 0.365,-0.164 0.678,0.241 0.319,0.507 z"
   id="path4774"
   style="fill:#ffffff" />

<path
   d="m 20.993,14.448 c -0.279,-0.359 -1.849,-0.173 -2.561,-0.086 -0.213,0.027 -0.246,-0.16 -0.053,-0.299 1.251,-0.878 3.306,-0.625 3.545,-0.333 0.239,0.299 -0.067,2.355 -1.237,3.339 -0.18,0.153 -0.353,0.073 -0.273,-0.126 0.266,-0.659 0.858,-2.143 0.579,-2.495 z"
   id="path4776"
   style="fill:#ffffff" />

</g></g><path
   class="cls-1"
   d="m 122.7009,410.20035 c -0.91821,-0.61809 -3.3311,-0.88206 -5.0853,-0.40959 -0.0946,-1.74727 -0.99547,-3.21966 -2.6437,-4.50436 l -0.61015,-0.40958 -0.40661,0.61412 c -0.79934,1.21338 -1.13612,2.8299 -1.01676,4.29934 0.0941,0.90532 0.40908,1.92308 1.01676,2.66151 -2.28313,1.32432 -4.38749,1.02369 -13.70724,1.02369 H 85.858681 c -0.04209,2.10435 0.296162,6.15259 2.870511,9.44803 0.28428,0.36402 0.596291,0.71615 0.934551,1.0554 2.092961,2.09593 5.25518,3.63272 9.983901,3.63718 7.213916,0.007 13.394746,-3.89273 17.154236,-13.32095 1.23716,0.0202 4.50289,0.22187 6.10109,-2.86656 0.0391,-0.052 0.4066,-0.81915 0.4066,-0.81915 l -0.60916,-0.40958 z m -27.451638,-1.92457 h -4.046256 v 4.04625 h 4.046256 z m 5.227438,0 h -4.046252 v 4.04625 h 4.046252 z m 5.22744,0 h -4.04625 v 4.04625 h 4.04625 z m 5.22745,0 h -4.04626 v 4.04625 h 4.04626 z m -20.909777,0 h -4.046252 v 4.04625 h 4.046252 z m 5.227449,-5.11057 h -4.046256 v 4.04625 h 4.046256 z m 5.227438,0 h -4.046252 v 4.04625 h 4.046252 z m 5.22744,0 h -4.04625 v 4.04625 h 4.04625 z m 0,-5.11106 h -4.04625 v 4.04625 h 4.04625 z"
   id="path5212" /></svg>
