<?xml version="1.0" encoding="UTF-8" standalone="no"?>
<!-- Uploaded to: SVG Repo, www.svgrepo.com, Generator: SVG Repo Mixer Tools -->

<svg
   width="850"
   height="850"
   viewBox="0 0 25.5 25.5"
   fill="none"
   version="1.1"
   id="svg3814"
   sodipodi:docname="heart_users.svg"
   inkscape:version="1.2.2 (b0a84865, 2022-12-01)"
   xmlns:inkscape="http://www.inkscape.org/namespaces/inkscape"
   xmlns:sodipodi="http://sodipodi.sourceforge.net/DTD/sodipodi-0.dtd"
   xmlns="http://www.w3.org/2000/svg"
   xmlns:svg="http://www.w3.org/2000/svg">
  <defs
     id="defs3818" />
  <sodipodi:namedview
     id="namedview3816"
     pagecolor="#505050"
     bordercolor="#eeeeee"
     borderopacity="1"
     inkscape:showpageshadow="0"
     inkscape:pageopacity="0"
     inkscape:pagecheckerboard="0"
     inkscape:deskcolor="#505050"
     showgrid="false"
     inkscape:zoom="0.59"
     inkscape:cx="701.69492"
     inkscape:cy="367.79661"
     inkscape:window-width="1728"
     inkscape:window-height="966"
     inkscape:window-x="0"
     inkscape:window-y="38"
     inkscape:window-maximized="1"
     inkscape:current-layer="svg3814" />
  <circle
     cx="11.016949"
     cy="6.8135595"
     r="4"
     stroke="#1c274c"
     stroke-width="1.5"
     id="circle3808" />
  <path
     d="m 19.059849,13.179159 0.4436,-0.6047 v 0 z m 0.9571,-3.6742497 -0.5187,0.5417197 c 0.29,0.2777 0.7474,0.2777 1.0374,0 z m 0.9571,3.6742497 -0.4436,-0.6047 v 0 z m -0.9571,0.462 v 0.75 0 z m -0.5135,-1.0667 c -0.4179,-0.3067 -0.8784,-0.6897 -1.227,-1.0928 -0.3683,-0.4258 -0.5095,-0.75679 -0.5095,-0.97137 h -1.5 c 0,0.76987 0.4412,1.45117 0.8749,1.95257 0.4533,0.5242 1.0142,0.9834 1.4743,1.321 z m -1.7365,-2.06417 c 0,-0.5760497 0.2626,-0.8267097 0.4919,-0.9070897 0.2503,-0.08775 0.7139,-0.05978 1.2394,0.4434297 l 1.0374,-1.0834397 c -0.8244,-0.78935 -1.8608,-1.09531 -2.773,-0.77553 -0.9332,0.32713 -1.4957,1.22545 -1.4957,2.3226297 z m 3.6508,3.27357 c 0.4601,-0.3376 1.021,-0.7968 1.4743,-1.321 0.4337,-0.5014 0.8749,-1.1827 0.8749,-1.95258 h -1.5 c 0,0.2146 -0.1412,0.54568 -0.5095,0.97138 -0.3486,0.4032 -0.8091,0.7861 -1.227,1.0928 z m 2.3492,-3.27358 c 0,-1.0971797 -0.5625,-1.9954897 -1.4957,-2.3226297 -0.9122,-0.31977 -1.9486,-0.01381 -2.773,0.77554 l 1.0374,1.0834397 c 0.5255,-0.5032097 0.9891,-0.5311797 1.2394,-0.4434297 0.2293,0.08038 0.4919,0.33104 0.4919,0.9070797 z m -5.1508,3.27358 c 0.3686,0.2704 0.7824,0.6073 1.4008,0.6073 v -1.5 c -0.0244,0 -0.0395,-10e-5 -0.0939,-0.0288 -0.0859,-0.0454 -0.1933,-0.1219 -0.4196,-0.2879 z m 1.9143,-1.2094 c -0.2263,0.166 -0.3337,0.2425 -0.4196,0.2879 -0.0544,0.0287 -0.0695,0.0288 -0.0939,0.0288 v 1.5 c 0.6184,0 1.0322,-0.3369 1.4008,-0.6073 z"
     fill="#1c274c"
     id="path3810" />
  <path
     d="m 19.014449,18.813559 c 0.0025,-0.1642 0.0025,-0.331 0.0025,-0.5 0,-2.4853 -3.5817,-4.5 -8,-4.5 -4.4182798,0 -7.9999998,2.0147 -7.9999998,4.5 0,2.4853 0,4.5 7.9999998,4.5 2.231,0 3.8398,-0.1567 5,-0.4366"
     stroke="#1c274c"
     stroke-width="1.5"
     stroke-linecap="round"
     id="path3812" />
  <path
     style="fill:#ffffff;stroke-width:3.38983"
     d="m 321.34813,376.50575 c -57.33678,-18.3328 -98.16127,-65.42814 -108.38182,-125.02981 -8.21266,-47.89252 8.20227,-98.72929 43.00089,-133.17311 32.63639,-32.303624 67.81137,-47.116389 111.88446,-47.116389 134.26513,0 205.13681,160.268639 115.13709,260.370009 -40.38077,44.91313 -105.29601,62.96487 -161.64062,44.9493 z m 93.64479,-50.85526 c 67.48754,-33.07561 82.60865,-124.15228 29.2154,-175.96866 -23.63865,-22.94053 -40.68074,-29.34285 -78.10663,-29.34285 -29.75636,0 -33.62009,0.79948 -50.84745,10.5213 -80.88258,45.64402 -74.06621,164.16573 11.37813,197.8409 24.6458,9.71336 65.17163,8.31418 88.36055,-3.05069 z"
     id="path3937"
     transform="scale(0.03)" />
  <path
     style="fill:#ffffff;stroke-width:3.38983"
     d="M 250.61706,778.17275 C 179.22974,769.12253 133.52178,751.06156 106.80641,721.34764 84.890629,696.97201 79.661017,678.48127 79.661017,625.36755 c 0,-43.02309 0.277807,-44.68866 11.134588,-66.75664 C 146.96091,444.4468 389.22826,399.5634 547.01837,474.08929 c 69.36716,32.76282 106.24987,77.99566 109.89363,134.77322 1.4658,22.84039 0.98302,25.07606 -7.17719,33.23626 -10.97091,10.97091 -20.57054,11.10247 -31.24481,0.4282 -6.72688,-6.72688 -8.32685,-11.75858 -8.35363,-26.27119 -0.0959,-52.00021 -52.22983,-96.47125 -141.07942,-120.34296 -30.93993,-8.3128 -38.57685,-8.99088 -101.26034,-8.99088 -62.64672,0 -70.37156,0.6849 -101.69492,9.01644 -64.82773,17.24321 -116.67712,50.03136 -134.6011,85.11808 -5.84521,11.44216 -6.6091,18.44749 -5.57246,51.10317 1.09201,34.40034 2.03645,39.10531 10.38079,51.71445 12.02926,18.17744 41.4115,32.68344 85.89614,42.40687 30.62743,6.69454 43.69657,7.38334 142.20172,7.49471 90.76766,0.10261 113.84088,-0.88057 141.34922,-6.02313 36.69119,-6.85927 45.10569,-5.12067 48.92824,10.10949 8.44101,33.63168 -23.51641,41.67405 -173.32831,43.61964 -66.04969,0.8578 -105.80991,-0.14847 -130.73887,-3.30891 z"
     id="path3939"
     transform="scale(0.03)" />
  <path
     style="fill:#aa87de;stroke-width:3.38983"
     d="m 642.10039,471.30719 c -19.79173,-10.07338 -56.61626,-41.30965 -72.725,-61.68874 -18.47136,-23.36802 -24.36412,-38.09839 -24.34634,-60.85949 0.046,-58.93962 52.18379,-93.54264 106.03746,-70.37542 l 16.7301,7.1971 16.73011,-7.1971 c 54.17731,-23.30646 105.30379,12.15505 105.30379,73.03909 0,23.64872 -13.62808,48.98096 -40.72246,75.69601 -47.68328,47.01573 -77.36827,59.27407 -107.00766,44.18855 z m 48.83505,-55.71466 c 36.75595,-28.50413 51.43744,-48.16677 51.43744,-68.88916 0,-28.75356 -27.21294,-38.01911 -52.54237,-17.88981 -16.09965,12.79439 -26.52628,12.74412 -45.66129,-0.22014 -11.81857,-8.00725 -18.15876,-10.04491 -28.81356,-9.26035 -12.01687,0.88487 -14.40739,2.53391 -19.86539,13.70367 -8.47151,17.3369 -5.2027,29.06695 14.08161,50.53157 18.1409,20.19191 50.97832,46.93488 57.63475,46.93804 2.47212,10e-4 13.15009,-6.71005 23.72881,-14.91382 z"
     id="path3941"
     transform="scale(0.03)" />
  <path
     style="fill:#aa87de;fill-opacity:1;stroke-width:3.38983"
     d="m 644.01113,412.43337 c -25.94577,-20.36872 -46.84856,-45.02468 -49.31445,-58.16903 -1.34456,-7.16709 -0.14786,-14.79714 3.39545,-21.64915 4.6798,-9.04973 7.34798,-10.58129 18.43397,-10.58129 8.78985,0 17.76368,3.25354 27.87905,10.1078 18.94477,12.83714 28.72839,12.80287 46.35836,-0.16236 38.10749,-28.02456 66.03137,6.43015 36.52736,45.07037 -12.84398,16.82126 -52.6728,50.07018 -59.97491,50.0668 -2.53225,-0.001 -13.01943,-6.60859 -23.30483,-14.68314 z"
     id="path5491"
     transform="scale(0.03)" />
  <path
     style="fill:#aa87de;fill-opacity:1;stroke-width:0.03"
     id="path5607"
     d="m 17.195679,10.460718 c 0.01042,0.006 0.02098,0.01181 0.03125,0.01809 0.03293,0.02016 0.06393,0.04342 0.09736,0.06273 0.311903,0.180117 0.623365,0.361039 0.93739,0.537431 0.01692,0.0095 0.03623,0.01397 0.05473,0.01985 0.01891,0.006 0.03827,0.01055 0.0574,0.01583 0.05185,0.01272 0.103693,0.02615 0.156416,0.03489 0.02102,0.0035 0.05285,0.0084 0.07496,0.0054 0.01033,-0.0014 0.02004,-0.0058 0.03005,-0.0087 0.0096,-0.0089 0.02094,-0.0162 0.02882,-0.02665 0.04277,-0.05676 0.03149,-0.127913 0.0089,-0.19001 -0.0076,-0.0208 -0.01777,-0.04055 -0.02666,-0.06083 -0.03327,-0.07668 -0.08628,-0.144996 -0.113224,-0.224476 -0.0046,-0.0096 -0.0011,-0.01564 0.0027,-0.02471 -0.32435,-0.184708 -0.648699,-0.369415 -0.973049,-0.554123 0,0 0.890214,0.687819 0.890214,0.687819 v 0 c -0.321229,-0.183759 -0.643855,-0.365095 -0.963687,-0.551276 -0.0031,-0.0018 0.0063,-0.004 0.0099,-0.004 0.0045,3e-5 0.0091,0.0017 0.01295,0.0042 0.0061,0.0039 0.01079,0.0097 0.01618,0.01456 0.07399,0.05879 0.132919,0.138026 0.178571,0.220138 0.01167,0.02837 0.01933,0.0415 0.02411,0.07037 0.001,0.0063 1.8e-4,0.01277 6.12e-4,0.01914 1.2e-4,0.0016 -3.78e-4,0.0054 9.93e-4,0.0046 0.0017,-9.96e-4 0.0031,-0.01394 0.0032,-0.01447 -0.01681,-0.0034 -0.03395,-0.0024 -0.051,-0.0045 -0.04181,-0.0052 -0.08288,-0.0153 -0.12252,-0.02956 -0.01732,-0.0074 -0.03494,-0.01404 -0.05195,-0.02209 -0.01755,-0.0083 -0.06841,-0.03671 -0.05163,-0.02694 0.278428,0.162143 0.557829,0.322613 0.836645,0.484089 0.01157,0.0067 -0.02387,-0.01222 -0.03491,-0.01976 -0.01551,-0.0106 -0.01697,-0.01425 -0.02563,-0.02667 0,0 -1.038958,-0.410383 -1.038958,-0.410383 z" />
  <path
     style="fill:#aa87de;fill-opacity:1;stroke-width:0.03"
     id="path5609"
     d="m 17.506809,10.096161 c -0.0161,0.02596 -0.03972,0.04586 -0.05978,0.06853 -0.0097,0.01101 -0.01856,0.0228 -0.02791,0.03415 -0.008,0.0088 -0.01543,0.0225 -0.02877,0.02366 -0.0025,2.1e-4 -0.0058,0.0015 -0.0074,-4.08e-4 -0.0026,-0.0031 -0.0064,-0.01385 -0.0028,-0.01195 0.32211,0.169809 0.641322,0.345062 0.961982,0.517593 -0.008,-0.002 -0.01742,-9.72e-4 -0.02405,-0.0059 -0.008,-0.0059 -0.01243,-0.01566 -0.01695,-0.0245 -0.0228,-0.04463 -0.02486,-0.09531 -0.02386,-0.144178 -0.0011,-0.07667 0.03721,-0.142332 0.07569,-0.205712 0.03833,-0.05575 0.08704,-0.102748 0.133951,-0.151037 0.04105,-0.04229 0.09023,-0.07503 0.133933,-0.114191 0.04512,-0.04391 0.100329,-0.07516 0.156859,-0.1018903 0.0512,-0.029658 0.10676,-0.047236 0.164628,-0.057853 0.06349,-0.00823 0.128378,-0.011958 0.191932,-0.00305 0.03264,0.00242 0.06424,0.011152 0.09652,0.015701 0.04781,0.00674 -0.0044,-0.00271 0.04707,0.00729 0.06955,0.0063 0.138122,0.020865 0.207099,0.031806 0.03785,0.00815 0.07632,0.013528 0.114058,0.022187 0.0308,0.00862 0.01542,0.00486 0.04613,0.011345 0.007,0.0018 0.01391,0.0038 0.02095,0.0054 0.02182,0.0048 0.04396,0.0072 0.06551,0.01331 0.0077,0.0022 0.01514,0.005 0.02271,0.0075 0.0079,0.0022 0.0158,0.0044 0.02369,0.0066 0.02334,0.008 0.04724,0.01719 0.06842,0.03013 0.0064,0.0039 0.02463,0.01695 0.01813,0.01325 -0.985496,-0.5608966 -1.229691,-0.6877471 -0.898925,-0.5154877 0.02983,0.011869 0.06079,0.025925 0.07823,0.054517 0.005,0.00823 0.0084,0.017357 0.01261,0.026036 0.01947,0.061566 0.03447,0.1271067 0.02719,0.192174 -0.006,0.053228 -0.01456,0.063229 -0.03555,0.1116474 -0.01198,0.016533 -0.02248,0.034246 -0.03593,0.0496 -0.05008,0.05715 -0.120382,0.101382 -0.191728,0.126596 -0.0126,0.0045 -0.02579,0.007 -0.03868,0.01056 -0.0093,-2.4e-5 -0.02115,-0.0065 -0.02786,-6e-5 -0.02283,0.02183 -0.08014,0.06081 -0.0537,0.07808 0.313544,0.204729 0.655265,0.362986 0.989073,0.53268 0.0084,0.0043 0.01213,-0.01498 0.02037,-0.01952 0.01489,-0.0082 0.07878,-0.02479 0.09179,-0.02841 0.07213,-0.0219 0.04041,-0.0076 0.109515,-0.04929 0.02012,-0.01213 0.04109,-0.02303 0.06008,-0.03686 0.02201,-0.01603 0.04099,-0.03591 0.06261,-0.05247 0.04742,-0.03631 0.09186,-0.06304 0.142139,-0.095 0.05846,-0.03176 0.07201,-0.04144 0.131794,-0.06553 0.02939,-0.01184 0.06706,-0.02604 0.09994,-0.02695 0.02948,-8.16e-4 0.03835,0.0067 0.06293,0.01841 0.383662,0.294 -1.255276,-0.6539794 -0.826836,-0.4677889 0.0026,-0.00943 0.02564,-0.00216 0.0235,0.00561 -0.01159,0.041913 -0.06399,0.1042789 -0.08718,0.1334969 -0.05059,0.06375 -0.10325,0.125841 -0.154777,0.188841 -0.113543,0.135706 -0.226312,0.272289 -0.330905,0.415074 -0.02111,0.02882 -0.04272,0.05732 -0.06257,0.08703 -0.01755,0.02628 -0.03303,0.0539 -0.04955,0.08084 -0.03216,0.06346 -0.04438,0.07978 -0.06372,0.147308 -0.02119,0.07398 -0.02784,0.157751 -0.02409,0.234391 0.0017,0.0355 0.0068,0.07076 0.01022,0.106132 0.0091,0.164303 0.0082,0.08746 0.0034,0.256593 -0.0039,0.136361 -7.65e-4,0.150654 -0.02027,0.283918 -0.01184,0.08091 -0.02752,0.145821 -0.04497,0.224822 -0.0168,0.0684 -0.03722,0.136906 -0.04385,0.207385 -0.0022,0.02368 -0.0032,0.06364 0.004,0.08757 0.0049,0.01613 0.01386,0.03073 0.02079,0.04609 0.03832,0.05814 0.07789,0.116877 0.09982,0.183504 0.08116,0.374041 0.03609,0.183119 0.972837,0.55836 0.04516,0.01809 0.01416,-0.09808 0.03642,-0.141337 0.02207,-0.04289 0.05843,-0.07728 0.09325,-0.110652 0.0775,-0.07427 0.149259,-0.111507 0.239352,-0.166246 0.03466,-0.01618 0.06843,-0.03442 0.103974,-0.04855 0.02265,-0.009 0.103367,-0.03711 0.137153,-0.0294 0.01108,0.0025 0.03524,0.02838 0.02534,0.02281 -0.968353,-0.545161 -1.265336,-0.350578 -0.938172,-0.557166 -0.0013,0.0053 -0.0015,0.01106 -0.0038,0.01605 -0.008,0.01728 -0.0193,0.0282 -0.03199,0.04205 -0.01731,0.01888 -0.03489,0.03462 -0.05533,0.04992 0.0093,-0.01239 -0.02246,0.02003 -0.02187,0.01177 7.86e-4,-0.01102 0.01176,-0.02042 0.01056,-0.0314 -6.84e-4,-0.0063 -0.0095,-0.0087 -0.01521,-0.01137 -0.01161,-0.0053 -0.02432,-0.0078 -0.03631,-0.01218 -0.01902,-0.007 -0.03778,-0.01458 -0.05668,-0.02187 -0.0248,-0.01028 -0.04972,-0.02026 -0.07438,-0.03084 -0.0794,-0.03407 -0.110738,-0.04812 -0.189519,-0.09012 -0.03762,-0.02005 -0.148619,-0.0836 -0.111685,-0.06231 0.676362,0.389892 0.801849,0.473761 0.508166,0.28361 -0.09817,-0.06194 -0.182187,-0.141436 -0.26659,-0.220157 -0.07462,-0.06949 -0.03151,-0.02828 -0.112217,-0.108459 -0.06957,-0.06912 -0.07909,-0.07662 -0.144936,-0.148557 -0.05887,-0.06432 -0.06519,-0.07355 -0.11846,-0.138097 -0.04644,-0.05383 -0.0822,-0.116073 -0.129344,-0.169321 -0.02622,-0.02961 -0.03331,-0.03395 -0.06357,-0.06011 -0.01202,-0.0094 -0.02395,-0.01897 -0.03605,-0.02829 -0.03203,-0.02467 -0.05328,-0.03923 -0.08428,-0.06609 -0.04534,-0.03929 -0.08586,-0.08261 -0.125197,-0.127747 -0.04417,-0.05625 -0.08312,-0.11688 -0.109851,-0.183353 -0.01588,-0.03631 -0.01666,-0.07528 -0.01768,-0.114084 -0.0022,-0.03647 -0.0057,-0.07323 -0.0013,-0.109632 1.2e-4,-0.0042 0.0018,-0.0086 3.84e-4,-0.01262 -6.99e-4,-0.002 -0.0022,0.0037 -0.0028,0.0058 -0.0048,0.01626 -0.0066,0.01695 0.01065,0.02798 0.01689,0.0108 0.07009,0.03897 0.05267,0.02905 -0.177548,-0.101098 -0.355367,-0.201724 -0.53305,-0.302585 0.239936,0.158951 0.451078,0.354596 0.634941,0.575563 0.05753,0.06914 0.109983,0.142382 0.163202,0.214897 0.185076,0.252177 0.171304,0.239782 0.339103,0.501802 0.119955,0.219198 0.118196,0.220625 0.24263,0.43042 0.07075,0.119275 0.124483,0.214911 0.213968,0.320301 0.08582,0.101074 0.120914,0.121076 0.220299,0.198648 0.342471,0.196379 0.687469,0.483567 1.094511,0.553785 0.04634,0.008 0.105842,0.01362 0.153898,0.01175 0.0173,-6.72e-4 0.03438,-0.0041 0.05157,-0.0061 0.02394,-0.007 0.04764,-0.01103 0.06796,-0.02668 0.03095,-0.02384 0.04705,-0.06401 0.04728,-0.102373 9e-5,-0.01277 -0.0036,-0.02529 -0.0054,-0.03794 -0.02224,-0.08076 -0.07067,-0.149971 -0.113532,-0.220746 -0.01398,-0.01979 -0.02492,-0.04174 -0.0387,-0.06165 -0.0047,-0.0069 -0.01047,-0.01307 -0.0152,-0.02001 -0.0106,-0.01343 -0.0038,-0.0047 -0.02013,-0.02624 0,0 -1.024925,-0.415671 -1.024925,-0.415671 v 0 c 0.01148,0.0013 0.0067,-0.0011 0.01461,0.0067 0.01111,0.01154 0.02216,0.02407 0.03427,0.03452 0.02319,0.02 0.04938,0.03675 0.07011,0.05966 0.04601,0.05147 0.08708,0.108607 0.116771,0.171123 0.0019,0.0048 0.0032,0.0181 0.01231,0.01815 0.0023,1.3e-5 0.004,-0.0024 0.0061,-0.0033 6.39e-4,-2.7e-4 -0.001,9.51e-4 -0.0016,0.0014 -0.0112,0.0084 -0.0079,0.0058 -0.02235,0.01402 -0.06136,0.0212 -0.114061,0.0223 -0.17857,0.0076 -0.02866,-0.0065 -0.109062,-0.04153 -0.08439,-0.02557 0.205665,0.133073 0.419931,0.252354 0.629897,0.378531 -0.135698,-0.07995 -0.184377,-0.09982 -0.30487,-0.209163 -0.05402,-0.04902 -0.103911,-0.102573 -0.151989,-0.157426 -0.177539,-0.202553 -0.321268,-0.431162 -0.471013,-0.654049 -0.05105,-0.08366 -0.102176,-0.167264 -0.153146,-0.250967 -0.04854,-0.07971 -0.09284,-0.162134 -0.145378,-0.239262 -0.05233,-0.07682 -0.110765,-0.149357 -0.168805,-0.221963 -0.153718,-0.192296 -0.320133,-0.374367 -0.501476,-0.540991 -0.290331,-0.176371 -0.577624,-0.357842 -0.870993,-0.529112 -0.08857,-0.05171 -0.180361,-0.118589 -0.287219,-0.08783 -0.0305,0.0088 -0.05184,0.04177 -0.06155,0.06954 -0.0022,0.0063 -0.0013,0.01328 -0.002,0.01992 0.0037,0.03814 -5.25e-4,0.07624 -0.0012,0.11446 0.0029,0.05216 0.01265,0.103633 0.02471,0.154397 0.0079,0.02373 0.0147,0.04663 0.02561,0.0693 0.0298,0.06194 0.07712,0.113933 0.117984,0.168453 0.06413,0.08229 0.126802,0.168712 0.211052,0.23176 0.02418,0.01744 0.04896,0.03406 0.07265,0.05215 0.07458,0.05693 0.138557,0.126256 0.204594,0.192473 0.108563,0.116047 0.215518,0.235001 0.302224,0.368682 0.01058,0.01236 0.02044,0.02538 0.03175,0.03708 0.03027,0.0313 0.06098,0.05503 0.09605,0.08125 0.0886,0.06625 0.182714,0.12434 0.276415,0.182985 0.412557,0.25325 0.06423,0.0408 0.990571,0.580088 0.04977,0.02897 0.09877,0.05927 0.149049,0.08734 0.109047,0.06088 0.222396,0.113951 0.334645,0.168523 0.03468,0.01576 0.121896,0.05751 0.162548,0.06865 0.0182,0.005 0.03775,0.01137 0.05615,0.0072 0.04003,-0.0091 0.05152,-0.02815 0.06415,-0.05786 0.02754,-0.05271 0.06818,-0.09356 0.109019,-0.136172 0.245847,-0.34658 0.06628,-0.06158 -0.927513,-0.609031 -0.0093,-0.0051 -0.0047,0.02067 -0.008,0.03075 -0.01253,0.039 -0.02344,0.06195 -0.04812,0.09808 -0.01836,0.02688 -0.03961,0.05166 -0.05941,0.07749 -0.07481,0.07638 -0.114634,0.125421 -0.209171,0.18358 -0.04689,0.02885 -0.09455,0.06097 -0.148374,0.07254 -0.04912,0.01056 -0.191984,-0.03661 -0.150494,-0.0083 1.415202,0.966373 1.19927,0.777189 0.922367,0.532401 -0.04904,-0.06346 -0.09567,-0.128947 -0.134814,-0.199063 -0.02649,-0.03262 -0.05234,-0.06568 -0.06872,-0.104924 -0.03097,-0.07417 -0.04016,-0.15524 -0.04826,-0.234355 -0.005,-0.104011 -0.0093,-0.140682 -0.0036,-0.247693 0.0075,-0.140678 0.01283,-0.1376 0.03767,-0.275187 0.03228,-0.178804 0.0086,-0.06787 0.04756,-0.234818 0.0069,-0.0301 0.01555,-0.05985 0.02071,-0.0903 0.0042,-0.0247 0.0047,-0.04987 0.0073,-0.07479 0.0098,-0.0957 0.02003,-0.191717 0.0435,-0.285249 0.02285,-0.07491 0.03031,-0.107658 0.06391,-0.180966 0.07311,-0.159504 0.172389,-0.290136 0.301205,-0.408962 0.09317,-0.07631 0.1026,-0.08871 0.201499,-0.152242 0.02986,-0.01919 0.06061,-0.037 0.09168,-0.05416 0.05962,-0.03292 0.110107,-0.04618 0.155415,-0.101498 0.009,-0.01095 0.0062,-0.02761 0.0093,-0.04142 -0.0018,-0.009 -0.0024,-0.01824 -0.0053,-0.02693 -0.0032,-0.0097 -0.01765,-0.03821 -0.02728,-0.04382 -0.316813,-0.184656 -0.634942,-0.3671033 -0.955222,-0.5456795 -0.0082,-0.00459 -0.01874,-0.0029 -0.02816,-0.00262 -0.01092,3.18e-4 -0.02164,0.00293 -0.03247,0.00439 -0.01149,0.00398 -0.02347,0.00676 -0.03447,0.011941 -0.022,0.010372 -0.05192,0.03274 -0.07032,0.047371 -0.04931,0.039201 -0.09515,0.082776 -0.146136,0.1199322 -0.04691,0.032498 -0.08986,0.064685 -0.141276,0.090247 -0.0078,0.0039 -0.125687,0.05177 -0.142281,0.05681 -0.03731,0.01133 -0.07681,0.0143 -0.114142,0.02565 -0.03752,0.0059 -0.07478,0.01304 -0.112931,0.01391 -0.01931,4.41e-4 -0.07446,-0.01247 -0.05788,-0.0026 0.344999,0.206212 1.234712,0.278868 0.901082,0.614611 -0.0042,0.0042 4.29e-4,-0.01184 6.42e-4,-0.01777 0.0067,-0.0087 0.01286,-0.01797 0.02021,-0.02618 0.02025,-0.02262 0.05579,-0.05437 0.07674,-0.0743 0.03704,-0.03524 0.06765,-0.06367 0.100385,-0.103475 0.01649,-0.02005 0.03095,-0.04168 0.04643,-0.06253 0.01279,-0.0225 0.02748,-0.04402 0.03838,-0.06749 0.0099,-0.02131 0.01655,-0.044 0.02378,-0.06635 0.02091,-0.06462 0.03591,-0.13059 0.0384,-0.198631 0.0016,-0.03935 0.0033,-0.08046 -0.01345,-0.117434 -0.0063,-0.013835 -0.01843,-0.027223 -0.02782,-0.038772 -0.325217,-0.2450565 -0.669894,-0.49746 -1.068484,-0.5856495 -0.04738,-0.012578 -0.09586,-0.021264 -0.143963,-0.030603 -0.04892,-0.00817 -0.0985,-0.012189 -0.147708,-0.018356 -0.07155,-0.00945 -0.142773,-0.022046 -0.212906,-0.039125 -0.01938,-0.00286 -0.03864,-0.00659 -0.05809,-0.0089 -0.03104,-0.00369 -0.06261,-8.76e-4 -0.09366,7.05e-4 -0.0676,0.00802 -0.135817,0.01268 -0.202111,0.029114 -0.02339,0.0069 -0.04405,0.012419 -0.06674,0.021388 -0.03999,0.015808 -0.07753,0.037472 -0.114677,0.058883 -0.05941,0.036353 -0.115125,0.078265 -0.173031,0.1169337 -0.04867,0.038343 -0.08912,0.085536 -0.133211,0.1289091 -0.05074,0.054376 -0.09773,0.1125777 -0.13554,0.1768065 -0.0074,0.01225 -0.01538,0.024205 -0.0223,0.036751 -0.03702,0.06711 -0.05931,0.1416027 -0.08097,0.2146825 -8.88e-4,0.01447 -0.0023,0.02893 -0.0027,0.04342 -0.0016,0.06403 0.0051,0.128947 -0.0094,0.192094 1.230425,0.674585 0.723609,0.809803 0.998003,0.520737 0.01398,-0.01473 0.01529,-0.01423 0.02788,-0.03098 0.0068,-0.0091 0.01196,-0.01936 0.01911,-0.02822 0.01341,-0.01787 0.03212,-0.04311 0.05779,-0.04154 0.0044,2.7e-4 0.0084,0.0028 0.01262,0.0042 0,0 -0.928062,-0.629681 -0.928062,-0.629681 z" />
  <path
     style="fill:#aa87de;fill-opacity:1;stroke-width:0.03"
     id="path5611"
     d="m 20.952841,12.97671 c -0.0078,-0.02153 -0.01855,-0.04221 -0.02337,-0.0646 -0.0093,-0.04336 -0.01772,-0.08738 -0.01886,-0.131725 -0.0034,-0.131007 0.01902,-0.24352 0.05378,-0.369778 0.01855,-0.06738 0.03907,-0.134464 0.0654,-0.199204 0.02456,-0.06039 0.05791,-0.116826 0.08687,-0.175239 0.03026,-0.04915 0.05869,-0.09947 0.09077,-0.147446 0.0522,-0.07808 0.102737,-0.139373 0.163576,-0.209506 0.0015,-0.0017 0.112703,-0.124256 0.119409,-0.133699 0.01648,-0.02322 0.02813,-0.04951 0.0422,-0.07427 0.09797,-0.158878 -0.0058,0.0144 0.09047,-0.163493 0.0162,-0.02993 0.03382,-0.05907 0.05141,-0.0882 0.0175,-0.029 0.03793,-0.05628 0.05385,-0.08618 0.01766,-0.03316 0.03081,-0.06854 0.04667,-0.1026 0.01613,-0.03463 0.03286,-0.06898 0.04929,-0.103465 0.02633,-0.05627 0.06674,-0.143287 0.09428,-0.199604 0.01447,-0.02958 0.03013,-0.05857 0.04433,-0.08828 0.03673,-0.07685 0.0705,-0.155362 0.105532,-0.233005 0.03647,-0.112419 0.06836,-0.226065 0.09182,-0.341894 0.009,-0.05484 0.0309,-0.1058948 0.04778,-0.1584236 0.0067,-0.025823 0.0053,-0.051438 -9.99e-4,-0.077139 -0.0021,-0.00871 -3e-6,-0.021162 -0.0077,-0.02578 -1.034005,-0.6211596 -0.65344,-0.6778998 -1.082561,-0.6067164 -0.03022,0.00277 -0.06283,-0.010544 -0.09217,0.00225 -0.04761,0.020757 -0.0761,0.07205 -0.10397,0.112212 -0.09162,0.123927 -0.203425,0.2316567 -0.328017,0.3222036 -0.02787,0.020254 -0.05712,0.03853 -0.08568,0.057794 -0.06908,0.041832 -0.08939,0.05628 -0.160347,0.091247 -0.02294,0.011308 -0.04686,0.020544 -0.06994,0.031571 -0.0028,0.00133 -0.109526,0.055683 -0.114921,0.058696 -0.01652,0.00923 -0.03232,0.019707 -0.04847,0.02956 -0.08084,0.046564 -0.1417,0.1162094 -0.199085,0.1881344 -0.01727,0.02388 -0.03447,0.04782 -0.05158,0.07181 -0.0042,0.0058 -0.0089,0.01132 -0.01218,0.01769 -0.216404,0.421155 0.283995,0.223643 1.057131,0.63144 0.0097,-0.01403 0.01843,-0.02872 0.02897,-0.04211 0.0139,-0.01765 0.02922,-0.03416 0.04424,-0.05087 0.05805,-0.06459 0.08839,-0.09838 0.159104,-0.156008 0.08143,-0.06637 0.173569,-0.125387 0.260359,-0.183902 0.154977,-0.09215 0.315412,-0.176609 0.485519,-0.237617 0.05386,-0.01932 0.108899,-0.03533 0.164103,-0.05039 0.128182,-0.03498 0.158382,-0.03676 0.285086,-0.05753 0.09383,-0.009 0.193648,-0.02252 0.287406,-0.0022 0.01936,0.0042 0.03842,0.0107 0.05607,0.01968 0.01426,0.0073 0.0526,0.03629 0.03862,0.02851 -0.326102,-0.1816616 -0.650213,-0.3668747 -0.97532,-0.5503124 0.0102,0.00457 0.0217,0.00697 0.03061,0.013718 0.02369,0.017951 0.03684,0.045219 0.04597,0.072528 0.01474,0.044088 0.01891,0.082531 0.01501,0.1296837 -0.0024,0.02946 -0.01,0.058276 -0.01494,0.087414 -0.0096,0.033189 -0.01645,0.067314 -0.02884,0.099568 -0.01266,0.032945 -0.02937,0.064239 -0.04606,0.095339 -0.05809,0.108256 -0.133614,0.20593 -0.208839,0.302548 -0.05104,0.06579 -0.0988,0.134522 -0.13529,0.209605 -0.01785,0.03674 -0.03226,0.07514 -0.04734,0.11304 -0.0083,0.02201 -0.01752,0.04373 -0.02503,0.06603 -0.0094,0.02782 -0.01495,0.05692 -0.02561,0.08428 -0.02358,0.06051 -0.04984,0.100648 -0.08429,0.154981 -0.03703,0.0584 -0.04993,0.076 -0.08851,0.131956 -0.06517,0.08577 -0.128848,0.172695 -0.19164,0.260228 -0.0073,0.01032 -0.01536,0.02009 -0.02178,0.03096 -0.01418,0.02401 -0.025,0.04986 -0.03756,0.07475 -0.01845,0.03656 -0.03732,0.07289 -0.05573,0.109472 -0.0259,0.04848 -0.04403,0.100533 -0.06878,0.149553 -0.01561,0.03091 -0.02179,0.03992 -0.03942,0.06908 -0.03541,0.05825 -0.08006,0.109584 -0.126399,0.15923 -0.01987,0.01657 -0.04052,0.03443 -0.06523,0.04356 -0.0036,0.0013 -0.0074,0.0017 -0.01112,0.0026 -0.0038,0.0016 -0.0076,0.0031 -0.01135,0.0047 -0.02029,0.01296 -0.04489,0.01259 -0.06831,0.01318 -0.02181,0.0053 -0.04428,0.0074 -0.0667,0.0068 -0.0038,-9e-5 -0.008,0.0011 -0.01139,-6.63e-4 -0.0029,-0.0016 -0.0036,-0.0056 -0.0054,-0.0084 0.05514,-0.418496 -8.04e-4,-0.03324 1.059748,0.58563 0.0038,0.0022 -0.0055,0.0068 -0.0083,0.01015 -0.0023,0.0027 -0.01227,0.0165 -0.01895,0.01435 -0.0044,-0.0014 -0.0059,-0.0071 -0.0089,-0.01059 0,0 -1.089411,-0.548019 -1.089411,-0.548019 v 0 c -0.0051,0.0117 -0.01136,0.02538 -0.01507,0.03752 -1.7e-5,6e-5 -0.0094,0.0363 -0.0065,0.03799 1.05899,0.624173 0.753642,0.872784 1.082086,0.596657 0.0039,-0.0028 0.0076,-0.006 0.01181,-0.0083 0.0031,-0.0017 0.0067,-0.0023 0.01006,-0.0036 0.01856,-0.0067 0.03754,-0.01246 0.05725,-0.01463 0.03745,-0.0099 0.07387,-0.02284 0.104036,-0.04794 0.03342,-0.02853 0.05768,-0.06524 0.08001,-0.102767 0.0409,-0.06087 0.08537,-0.119499 0.117961,-0.185571 0.03939,-0.07381 0.07675,-0.148785 0.114292,-0.223551 0.01674,-0.03561 0.03196,-0.07223 0.05038,-0.10701 0.05449,-0.102871 -0.01433,0.03113 0.04066,-0.06786 0.0063,-0.01125 0.01125,-0.02316 0.01688,-0.03474 0.04466,-0.09804 0.08804,-0.19657 0.130581,-0.295557 0.02944,-0.06168 0.03869,-0.08191 0.07005,-0.143953 0.02789,-0.05517 0.05303,-0.106175 0.08802,-0.157448 0.01651,-0.02419 0.03674,-0.04565 0.0537,-0.06951 0.01379,-0.0194 0.02564,-0.04011 0.03846,-0.06017 0.017,-0.02919 0.04458,-0.07529 0.05969,-0.106067 0.0081,-0.01641 0.01465,-0.0335 0.02202,-0.05023 0.02523,-0.05729 0.04901,-0.115097 0.0722,-0.17325 0.07584,-0.183008 0.160683,-0.362745 0.269325,-0.528923 0.0391,-0.07258 0.08645,-0.14725 0.09968,-0.23039 0.0029,-0.01841 0.0017,-0.03728 0.0011,-0.05591 -0.0017,-0.05421 -0.0038,-0.04997 -0.0183,-0.1011945 -0.345356,-0.197937 -0.687057,-0.4023903 -1.036066,-0.593811 -0.0118,-0.00647 -0.02698,0.0011 -0.04022,0.0035 -0.03191,0.00578 -0.06751,0.019691 -0.09693,0.031846 -0.05273,0.02179 -0.09699,0.043558 -0.149139,0.068134 -0.09165,0.042967 -0.132549,0.061454 -0.225975,0.1084035 -0.04638,0.023306 -0.09193,0.048238 -0.138458,0.071242 -0.164931,0.081544 -0.333052,0.1566777 -0.497244,0.2397681 -0.07673,0.035357 -0.240781,0.1125169 -0.322068,0.1440659 -0.04829,0.01874 -0.09758,0.03492 -0.147102,0.05015 -0.01912,0.0059 -0.168183,0.04636 -0.204599,0.05068 -0.01862,0.0022 -0.03749,-0.0011 -0.05623,-0.0016 0.346339,0.194794 0.702974,0.372322 1.039018,0.584383 0.01713,0.01081 -0.02313,0.03387 -0.03864,0.04691 -0.003,0.0026 -0.0034,-0.0073 -0.0037,-0.0113 -0.0014,-0.02254 0.0087,-0.04512 0.01629,-0.06554 0.01295,-0.02474 0.01595,-0.03246 0.03248,-0.05568 0.0312,-0.04384 0.07072,-0.08082 0.111847,-0.115149 0.02697,-0.02188 0.05335,-0.04448 0.08045,-0.06619 0.0166,-0.0133 0.03435,-0.02517 0.05047,-0.03905 0.01723,-0.01484 0.03263,-0.03168 0.04945,-0.04698 0.04625,-0.04207 0.08435,-0.07311 0.132687,-0.113642 0.02605,-0.02122 0.05154,-0.04315 0.07816,-0.06365 0.03404,-0.02622 0.140435,-0.101877 0.17567,-0.126678 0.05924,-0.0417 0.100303,-0.071615 0.16283,-0.1071567 0.0233,-0.013243 0.04768,-0.024475 0.07153,-0.036713 0.03575,-0.011882 0.05757,-0.02454 0.09422,-0.021333 0.0073,6.36e-4 0.01362,0.00524 0.0206,0.00736 0.0236,0.00718 0.04856,0.00766 0.07113,0.018476 0.339791,0.2450997 0.14597,0.1040637 -0.986366,-0.5748405 -0.0052,-0.0031 0.01184,-0.00262 0.01786,-0.00272 5.01e-4,-7.8e-6 0.02298,0.0038 0.02465,0.00435 0.0033,0.00107 0.0062,0.00305 0.0093,0.00457 0.0075,0.021111 0.0077,0.040009 0.0087,0.062471 0.0017,0.038041 4.47e-4,0.076084 -0.0022,0.114057 -0.0036,0.1177554 0.0069,0.2369718 -0.02501,0.3521028 -0.01381,0.067592 -0.01734,0.090952 -0.03657,0.1588504 -0.0084,0.02977 -0.01842,0.05908 -0.02754,0.08865 -0.0097,0.03148 -0.01833,0.06331 -0.02895,0.0945 -0.0309,0.09076 -0.04227,0.111167 -0.08128,0.199478 -0.08792,0.166637 -0.0117,0.03021 -0.111211,0.187154 -0.05955,0.09391 -0.04267,0.07994 -0.108702,0.17048 -0.01944,0.02665 -0.04172,0.05115 -0.06123,0.07775 -0.01755,0.02393 -0.03325,0.04917 -0.04987,0.07376 -0.01683,0.024 -0.03658,0.04619 -0.0505,0.07199 -0.02382,0.04416 -0.04691,0.131567 -0.05929,0.177115 -0.03981,0.146526 -0.07267,0.295034 -0.122121,0.438842 -0.0229,0.06239 -0.04244,0.12612 -0.06869,0.187177 -0.02732,0.06354 -0.0591,0.125135 -0.09179,0.186088 -0.06068,0.113149 -0.112824,0.201047 -0.19727,0.296631 -0.03826,0.04331 -0.09112,0.08517 -0.13684,0.122873 0,0 1.074954,0.565787 1.074954,0.565787 z" />
  <circle
     id="path5613"
     style="fill:#aa87de;stroke:#000000;stroke-width:0.03"
     cx="34.576271"
     cy="19.169491"
     r="0.0021118589" />
</svg>
