<?xml version="1.0" encoding="UTF-8" standalone="no"?>
<!-- Created with Inkscape (http://www.inkscape.org/) -->

<svg
   width="249.582mm"
   height="254.23082mm"
   viewBox="0 0 249.582 254.23082"
   version="1.1"
   id="svg2393"
   inkscape:version="1.2.2 (b0a84865, 2022-12-01)"
   sodipodi:docname="white_logo.svg"
   xmlns:inkscape="http://www.inkscape.org/namespaces/inkscape"
   xmlns:sodipodi="http://sodipodi.sourceforge.net/DTD/sodipodi-0.dtd"
   xmlns="http://www.w3.org/2000/svg"
   xmlns:svg="http://www.w3.org/2000/svg">
  <sodipodi:namedview
     id="namedview2395"
     pagecolor="#505050"
     bordercolor="#eeeeee"
     borderopacity="1"
     inkscape:showpageshadow="0"
     inkscape:pageopacity="0"
     inkscape:pagecheckerboard="0"
     inkscape:deskcolor="#505050"
     inkscape:document-units="mm"
     showgrid="false"
     inkscape:zoom="0.84096521"
     inkscape:cx="316.30322"
     inkscape:cy="467.32017"
     inkscape:window-width="1728"
     inkscape:window-height="966"
     inkscape:window-x="0"
     inkscape:window-y="38"
     inkscape:window-maximized="1"
     inkscape:current-layer="layer1" />
  <defs
     id="defs2390" />
  <g
     inkscape:label="Layer 1"
     inkscape:groupmode="layer"
     id="layer1"
     transform="translate(21.596255,-21.384583)">
    <path
       style="fill:#ffffff;stroke-width:0.352777"
       d="m 95.113441,275.50274 c -8.730562,-0.76787 -16.917926,-2.2311 -24.640267,-4.40364 -36.474611,-10.26147 -66.4387026,-36.93292 -80.832933,-71.95046 -2.26396,-5.50765 -5.06923,-14.12123 -4.70444,-14.44497 0.29022,-0.25755 37.94813,-10.61319 38.08755,-10.47378 0.0414,0.0413 -0.19197,1.34138 -0.51849,2.88896 l -0.59366,2.81377 -11.64124,3.20276 c -6.4026796,1.76152 -13.2684296,3.64752 -15.2572096,4.19111 -1.98878,0.54358 -3.61597,1.14127 -3.61597,1.32818 0,0.82788 4.17017,11.11143 6.20948,15.31242 8.52747,17.56669 21.6988896,33.04102 38.1524396,44.82308 12.708702,9.10044 28.972115,16.08071 45.067241,19.34295 8.710003,1.76538 12.381891,2.09592 23.283338,2.09592 10.90144,0 14.57332,-0.33054 23.28333,-2.09592 26.36462,-5.34366 50.26869,-19.41149 67.19869,-39.54719 15.44605,-18.37076 24.69859,-40.0164 27.58022,-64.52196 0.63576,-5.40658 0.55602,-19.65583 -0.14119,-25.22361 -0.78401,-6.26112 -2.0938,-13.05277 -2.51724,-13.05277 -0.19799,0 -10.25888,2.71709 -22.35756,6.03798 -12.09868,3.32089 -22.07519,5.96038 -22.17004,5.86552 -0.13817,-0.13816 1.81578,-5.50854 2.11463,-5.81206 0.32562,-0.33069 46.2929,-12.70945 46.47128,-12.51448 0.12549,0.13719 0.57211,1.73592 0.99248,3.55275 5.03621,21.76608 4.518,42.71142 -1.58197,63.94065 -1.79652,6.25234 -4.57346,13.25049 -7.96335,20.06852 -12.29619,24.73095 -31.73524,44.1304 -56.22872,56.11416 -12.48074,6.10632 -24.75659,9.79064 -39.33473,11.80544 -3.88366,0.53674 -20.582945,0.98724 -24.341669,0.65667 z m -0.529166,-9.00043 C 75.546964,264.88665 56.838608,258.3964 40.83877,247.85695 33.615383,243.09875 29.153121,239.43041 22.613311,232.87415 13.625101,223.86334 6.7553314,214.30852 1.2940814,203.2223 c -2.81061,-5.70545 -5.50146,-12.09815 -5.2136,-12.38601 0.0861,-0.0861 2.99658996,-0.93253 6.4677,-1.88088 3.4711,-0.94836 8.9858696,-2.46295 12.2550396,-3.36577 3.26917,-0.90282 6.00771,-1.57772 6.08564,-1.49979 0.0779,0.0779 -1.30388,7.00403 -3.0707,15.39133 -1.76682,8.3873 -3.15599,15.30434 -3.08703,15.3712 0.069,0.0668 7.64891,-1.62169 16.844349,-3.75233 l 16.718975,-3.87388 1.892039,1.86853 1.892035,1.86854 7.318153,-2.41272 7.318152,-2.41272 3.018314,1.89364 c 1.660072,1.0415 4.14633,2.43345 5.525021,3.09321 l 2.506705,1.19958 0.774446,3.38653 c 0.425947,1.8626 1.199298,5.20959 1.718553,7.43775 l 0.944094,4.0512 3.516154,0.79207 c 7.440454,1.67605 14.967029,2.55994 21.860589,2.56722 l 2.46946,0.002 3.52777,-6.93342 3.52777,-6.93341 3.91607,-0.96544 c 2.15384,-0.53099 4.86688,-1.31211 6.02896,-1.73582 l 2.11285,-0.7704 6.29034,3.96603 c 3.45966,2.18132 6.46163,3.96412 6.67104,3.96178 0.62461,-0.007 6.10442,-3.56939 10.25854,-6.66903 2.13428,-1.59254 5.67494,-4.61869 7.86807,-6.72478 l 3.98751,-3.82903 -2.43533,-7.24064 -2.43533,-7.24064 2.23504,-3.69547 c 1.22928,-2.03251 2.58336,-4.52726 3.00913,-5.54391 0.42574,-1.01663 1.02338,-1.92228 1.32805,-2.01253 0.30467,-0.0903 3.09396,-0.73407 6.19842,-1.43068 3.10444,-0.69662 6.22707,-1.42087 6.9392,-1.60945 l 1.29479,-0.34288 0.90871,-3.87537 c 1.5693,-6.69236 2.0188,-10.19165 2.21959,-17.27926 l 0.19489,-6.87917 -4.67375,-2.27811 c -3.64514,-1.77674 -4.52872,-2.33888 -4.01471,-2.55416 0.36248,-0.15182 9.94592,-2.81959 21.29655,-5.92836 11.35062,-3.10878 20.89155,-5.73288 21.20204,-5.83132 0.46916,-0.14876 0.66297,0.43316 1.14702,3.44397 0.32039,1.99264 0.76348,5.21048 0.9847,7.15076 0.53851,4.72347 0.5266,17.71955 -0.0209,22.75416 -4.49522,41.33968 -30.28743,76.8647 -67.86181,93.46972 -17.432,7.70359 -37.4418,11.08711 -56.169165,9.49779 z m 1.940269,-40.04582 c -0.485061,-0.0712 -2.072561,-0.29909 -3.527769,-0.5064 -1.455209,-0.20731 -4.032171,-0.69565 -5.726562,-1.08519 -3.574601,-0.82179 -2.919863,0.36108 -5.078439,-9.17483 l -1.330246,-5.87668 -4.251126,-2.12679 c -2.338118,-1.16973 -5.346224,-2.85116 -6.68468,-3.73651 -1.338455,-0.88535 -2.613033,-1.60973 -2.832396,-1.60973 -0.219361,0 -3.439464,1.01655 -7.155783,2.259 -6.34886,2.12256 -6.790174,2.22228 -7.307157,1.65102 -0.510146,-0.5637 -0.390887,-0.68325 1.637747,-1.64164 2.682179,-1.26714 6.488383,-3.71566 9.14812,-5.88495 1.096198,-0.89406 2.632781,-1.81723 3.41463,-2.05147 1.37146,-0.41091 1.483223,-0.38063 3.172338,0.85929 l 1.750793,1.28521 c 1.253176,0.88148 1.400227,1.04677 2.585753,1.77709 1.356691,0.72535 0.651659,0.34338 2.705176,1.45063 1.060551,0.57185 3.344727,1.6762 5.108704,2.39521 l 3.2072,1.30728 1.618324,7.02479 1.618297,7.02479 3.169788,0.61521 c 1.743393,0.33836 5.15837,0.71978 7.588885,0.84759 l 4.419069,0.23239 3.0739,-6.40072 c 1.69067,-3.52039 3.1341,-6.40072 3.20763,-6.40072 0.0735,0 1.54358,-0.24347 3.26676,-0.54104 4.19414,-0.72429 7.6894,-1.71084 12.02515,-3.39416 2.90941,-1.12955 3.73832,-1.3241 4.31855,-1.01357 0.39492,0.21136 3.11034,1.88794 6.03428,3.72573 4.71323,2.96244 5.40379,3.29516 6.0884,2.93342 1.40237,-0.74101 7.08607,-5.10711 9.16649,-7.0415 l 2.04433,-1.90082 -2.29073,-6.81466 -2.29074,-6.81466 1.59642,-2.18117 c 1.55961,-2.13089 1.65833,-2.19745 4.28159,-2.88674 l 2.68518,-0.70555 2.49121,-6.16043 2.49121,-6.16043 4.84836,-1.0986 c 2.66663,-0.60423 4.93262,-1.18283 5.0356,-1.28579 0.56906,-0.56907 1.9341,-10.04724 1.9341,-13.42958 0,-1.50148 -0.0336,-1.54437 -1.94029,-2.47952 -1.06715,-0.52338 -1.94027,-1.10619 -1.94027,-1.29515 0,-0.49467 1.40893,-4.01979 1.74429,-4.36414 0.1555,-0.15966 1.91466,0.52866 3.9093,1.52961 l 3.62659,1.81992 -0.2218,5.34955 c -0.20841,5.02672 -1.09977,11.57903 -2.11947,15.58011 l -0.44953,1.76389 -3.1565,0.76132 c -1.73607,0.41873 -4.98214,1.18143 -7.21345,1.69489 l -4.05693,0.93356 -1.81809,3.77317 c -0.99994,2.07525 -2.70396,5.13316 -3.78669,6.79537 l -1.96858,3.0222 2.32979,6.97966 2.32982,6.97967 -2.24729,2.28529 c -1.23603,1.25691 -3.47038,3.31218 -4.96525,4.56726 -3.52261,2.95753 -10.49885,7.58368 -11.00209,7.2958 -0.21511,-0.12304 -3.06324,-1.89416 -6.32926,-3.93582 l -5.93818,-3.71212 -1.64652,0.63657 c -3.0421,1.1761 -6.91931,2.30374 -10.11534,2.94193 l -3.17288,0.63357 -3.31965,6.60231 -3.31962,6.60232 -4.79425,-0.048 c -2.636842,-0.0264 -5.191129,-0.1063 -5.676216,-0.1775 z M 20.677331,208.43744 c 0,-0.26936 0.23605,-1.55296 0.52456,-2.85244 0.28851,-1.29948 2.83486,-13.39582 5.65856,-26.88075 8.969918,-42.83702 9.729502,-46.38562 9.977808,-46.61405 0.133784,-0.12309 5.561367,-1.44835 12.061299,-2.94504 11.405015,-2.62615 11.942397,-2.716 15.375847,-2.57073 3.06606,0.12973 3.884594,0.30347 5.92229,1.25702 9.459521,4.42664 12.438632,15.74186 8.84056,33.57793 -3.678788,18.23611 -13.151993,32.21899 -26.280636,38.79142 -4.535826,2.27071 -5.893125,2.67238 -20.231385,5.98713 -9.028193,2.08716 -11.848903,2.62267 -11.848903,2.24951 z M 48.035537,185.4176 c 4.387564,-1.88603 8.08396,-8.11919 10.572229,-17.82775 3.183882,-12.42266 2.909339,-20.91985 -0.732018,-22.65629 -1.011362,-0.48229 -1.44908,-0.4955 -3.312562,-0.10005 -1.694656,0.35963 -2.183156,0.61255 -2.31775,1.20001 -0.292132,1.27503 -2.284275,10.73942 -3.349665,15.91378 -0.5593,2.71639 -1.898501,9.14158 -2.976004,14.2782 -1.077502,5.13661 -1.959099,9.54912 -1.959099,9.80557 0,0.58221 1.990378,0.28256 4.074869,-0.61347 z m 29.086241,10.2242 c 0,-0.26423 13.076578,-62.80657 15.413034,-73.71708 l 0.638361,-2.98092 18.267207,-4.21066 c 10.04697,-2.31587 18.32924,-4.14864 18.40505,-4.07283 0.11131,0.11131 -3.3215,17.19564 -3.51859,17.51123 -0.0312,0.05 -3.93168,0.9837 -8.66772,2.07491 -4.73602,1.0912 -8.64688,2.01225 -8.69075,2.04678 -0.18886,0.14853 -2.28647,10.82485 -2.15302,10.95831 0.0812,0.0812 3.54129,-0.64003 7.68917,-1.60264 4.1479,-0.96261 7.80412,-1.75021 8.12498,-1.75021 0.50874,0 0.34928,1.1068 -1.24674,8.65308 -1.00656,4.7592 -1.90553,8.72852 -1.99774,8.82073 -0.0922,0.0922 -3.8531,1.02205 -8.35755,2.06635 -4.50445,1.04429 -8.23624,1.95653 -8.29284,2.02719 -0.24291,0.30325 -2.36291,11.67796 -2.20583,11.83505 0.0954,0.0954 3.95468,-0.702 8.57618,-1.77198 4.62148,-1.06998 8.43134,-1.9168 8.46632,-1.88182 0.11467,0.11468 -3.59018,17.47077 -3.76711,17.64771 -0.0949,0.0949 -8.1888,2.01577 -17.986481,4.26866 -9.797706,2.25288 -18.012423,4.16554 -18.254958,4.25035 -0.242536,0.0848 -0.440973,0.007 -0.440973,-0.17221 z m 54.329832,-48.91099 0.003,-36.64183 9.58583,-2.20077 c 5.27222,-1.21043 9.63769,-2.14893 9.70105,-2.08556 0.0634,0.0634 -0.60663,10.57216 -1.48889,23.35288 -0.88225,12.78072 -1.5577,23.54467 -1.501,23.9199 0.0567,0.37523 4.04754,-10.90156 8.86854,-25.05954 l 8.76543,-25.74177 10.10817,-2.324781 c 5.55951,-1.278628 10.1554,-2.277642 10.21313,-2.220026 0.0577,0.05762 -7.1297,18.191217 -15.97202,40.296887 l -16.07699,40.19214 -10.30991,2.36945 c -5.67047,1.3032 -10.66713,2.46292 -11.10369,2.57716 l -0.79375,0.2077 0.003,-36.64184 z M -17.235969,177.5436 c -1.20036,-3.84945 -2.55093,-10.6929 -3.37149,-17.08369 -4.7479,-36.97781 7.77687,-74.535737 33.82012,-101.41608 20.563144,-21.2241 46.935588,-34.045753 76.389774,-37.13888 6.57434,-0.690403 18.972395,-0.694449 25.442945,-0.0083 44.90257,4.761518 83.2364,32.985495 101.09636,74.433998 1.83568,4.260172 5.77821,15.656922 5.50929,15.925842 -0.21762,0.21762 -40.96721,11.3774 -41.09125,11.25336 -0.0591,-0.0591 0.4236,-1.43213 1.07262,-3.05122 l 1.18002,-2.94378 16.03454,-4.39024 c 8.81899,-2.41464 16.07709,-4.41905 16.12911,-4.45425 0.22209,-0.15032 -2.60731,-7.73117 -4.40368,-11.798808 C 193.52471,58.26932 157.007,31.767804 114.51825,27.163425 c -7.48379,-0.810993 -22.024792,-0.554231 -28.929808,0.510841 -22.37903,3.451871 -42.39469,12.306938 -59.139671,26.1638 -4.3576,3.606022 -12.1179,11.446795 -15.6951,15.857865 -14.9155796,18.392492 -23.54278,38.846089 -26.48633,62.794439 -0.67727,5.51016 -0.56892,20.93212 0.18588,26.45832 0.78297,5.73237 2.01966,12.34811 2.3075,12.34399 0.12448,-0.002 2.76633,-0.70185 5.8707804,-1.55571 27.9250496,-7.6807 33.0577596,-9.06857 33.1579596,-8.96579 0.0632,0.0648 -0.12958,1.34267 -0.42832,2.83976 -0.50949,2.55325 -0.61134,2.74361 -1.64334,3.07131 -0.6051,0.19214 -9.27581,2.58737 -19.2682496,5.32272 -9.99242,2.73536 -18.9295304,5.1966 -19.8602304,5.46943 -1.29986,0.38105 -1.72305,0.39709 -1.82529,0.0692 z m 6.37033,-11.80393 c -1.28467,-6.17558 -2.11732,-17.37627 -1.82375,-24.53297 0.89832,-21.89939 7.1631404,-41.399189 19.1590204,-59.634126 C 24.752001,53.781545 53.737032,35.738875 87.705108,31.004929 c 5.583317,-0.778116 22.255902,-0.884172 27.869432,-0.177279 21.52613,2.710696 40.72634,10.642274 57.85557,23.900032 5.2112,4.033393 15.16819,13.990367 19.20158,19.201574 5.31365,6.865316 10.47609,15.229618 13.68107,22.166347 1.62076,3.50787 4.23839,9.984117 4.08557,10.107987 -0.35283,0.28596 -25.37212,6.95601 -25.52364,6.8045 -0.10293,-0.10294 1.73386,-4.98655 4.0818,-10.85247 2.34794,-5.865908 4.2077,-10.726552 4.13282,-10.801424 -0.0749,-0.07487 -6.30476,1.292013 -13.84419,3.037522 -7.53943,1.745504 -13.88803,3.173648 -14.10795,3.173648 -0.21995,0 -1.19695,-0.992187 -2.17112,-2.20486 -0.97417,-1.212675 -3.31049,-3.82134 -5.19184,-5.797037 l -3.42061,-3.592168 -7.26805,2.451388 -7.26806,2.451389 -2.50827,-1.557401 c -1.37957,-0.856573 -3.88909,-2.23982 -5.57676,-3.07389 l -3.0685,-1.516488 -0.93956,-4.075605 c -0.51679,-2.241584 -1.28771,-5.582216 -1.71316,-7.423631 l -0.77358,-3.348025 -4.02048,-0.949248 c -6.01906,-1.421122 -11.14115,-2.083059 -17.87319,-2.309791 l -6.056917,-0.203994 -2.640436,5.272061 c -1.999297,3.991962 -2.866125,5.374894 -3.569943,5.695582 -0.511255,0.232937 -1.677432,1.122932 -2.591541,1.977761 -1.415627,1.323856 -2.300499,1.762445 -5.969529,2.958875 l -4.307555,1.404636 -6.38231,-4.015889 c -3.51027,-2.208736 -6.445134,-4.015888 -6.521919,-4.015888 -0.07679,0 -1.695722,0.976035 -3.59764,2.168967 -5.390147,3.380835 -9.739823,6.789423 -14.317503,11.219791 l -4.209942,4.074459 2.04057,5.95884 2.040573,5.95884 -1.440265,2.68386 c -1.484328,2.76597 -3.622852,8.41262 -3.622852,9.56593 0,0.35874 -0.211709,0.86203 -0.470466,1.11842 -0.258758,0.25639 -3.667321,1.17813 -7.57459,2.04831 l -7.104124,1.58213 -0.89072,3.79855 c -1.57179,6.70304 -2.01397,10.16343 -2.20582,17.26221 l -0.18753,6.93891 1.89648,0.95283 c 1.04307,0.52405 1.93666,0.98713 1.98576,1.02905 0.0491,0.0419 -0.1163,1.09188 -0.36755,2.33323 l -0.45681,2.25701 -18.1532896,5.00958 c -9.98431,2.75527 -18.41849,5.01997 -18.7426204,5.03267 -0.3678,0.0144 -0.66519,-0.34161 -0.79114,-0.94706 z m 38.48829,-17.60214 c -0.36796,-0.36796 -0.28999,-6.77131 0.12947,-10.63399 0.32189,-2.96418 1.963227,-12.05211 2.223725,-12.31261 0.295638,-0.29564 11.264577,-2.6147 11.656295,-2.46438 0.399995,0.15349 0.86899,1.59431 0.933199,2.86691 0.0093,0.18427 -2.135434,0.83436 -4.766072,1.44464 -2.630641,0.61029 -4.847087,1.1739 -4.925435,1.25247 -0.07835,0.0786 -1.077283,4.57749 -2.219849,9.9976 -1.142573,5.42011 -2.237463,9.90811 -2.433103,9.97332 -0.19563,0.0652 -0.46484,0.009 -0.59823,-0.12396 z m 50.980793,-18.89272 c -0.232833,-0.23283 -0.423333,-0.57979 -0.423333,-0.77101 0,-0.19123 -0.348776,-0.71894 -0.775063,-1.1727 l -0.775062,-0.82502 0.813467,-4.48938 c 0.447405,-2.46916 1.811147,-8.45814 3.03054,-13.30883 1.219385,-4.8507 2.170615,-8.86957 2.113862,-8.930826 -0.05675,-0.06126 -0.793909,0.0796 -1.638115,0.313026 -0.844195,0.23342 -1.73696,0.42907 -1.983914,0.43476 -0.246955,0.006 -0.538853,0.42045 -0.648671,0.92169 -1.130464,5.15997 -3.806386,8.54242 -9.926627,12.54755 -1.32366,0.86622 -1.499304,1.13641 -1.499304,2.30631 0,0.75586 0.275844,1.66581 0.642086,2.1181 1.088842,1.34466 2.858373,0.46584 6.485971,-3.2212 1.689111,-1.71679 3.171233,-2.95944 3.2936,-2.76144 0.494437,0.80001 -3.090572,5.15956 -6.010542,7.30912 -2.039049,1.50107 -2.194042,1.55306 -4.197244,1.40816 -1.855637,-0.13422 -2.207692,-0.28977 -3.263607,-1.44198 -1.127185,-1.22997 -1.184179,-1.42208 -1.195829,-4.03073 l -0.01225,-2.73921 -1.748137,3.35139 c -3.058628,5.86375 -6.676326,9.525 -9.411713,9.525 -1.495181,0 -3.253936,-0.73428 -4.139967,-1.72842 -0.953021,-1.06931 -1.124199,-4.20151 -0.387533,-7.09103 1.297006,-5.08738 5.704735,-12.37615 8.671486,-14.33945 1.382049,-0.9146 2.536108,-0.99314 4.306298,-0.2931 0.467698,0.18497 0.617363,0.0672 0.617363,-0.48571 0,-1.72326 -1.83482,-6.304933 -3.70866,-9.260797 l -2.002885,-3.159424 0.914686,-1.199216 c 0.503076,-0.659567 1.402609,-1.546648 1.998964,-1.971286 l 1.084276,-0.772075 1.062299,1.012057 c 1.399783,1.33359 3.652398,6.032225 4.37515,9.12595 0.43716,1.871266 0.534596,3.537612 0.402243,6.879171 -0.09606,2.42534 -0.286713,4.80659 -0.423672,5.29166 -0.136956,0.48507 0.411914,-0.22294 1.219711,-1.57336 2.859331,-4.78004 6.441525,-8.074666 9.280334,-8.53534 1.292199,-0.209695 3.327649,0.59526 3.653692,1.444916 0.139216,0.362802 0.735786,0.225028 2.586766,-0.597397 2.207736,-0.980938 2.441098,-1.188289 2.834666,-2.518466 1.397053,-4.721831 4.635897,-10.478868 7.251859,-12.890169 1.638538,-1.510371 4.049897,-2.824991 5.207608,-2.839101 0.349621,-0.0043 1.235102,-0.352726 1.967706,-0.774369 0.732632,-0.42164 1.583902,-0.669975 1.891721,-0.551849 0.49681,0.19064 0.46267,0.52447 -0.303639,2.971482 -0.956786,3.055178 -2.25253,5.828416 -2.752434,5.891025 -0.430212,0.05388 -1.251505,-3.97292 -1.017005,-4.986399 0.26162,-1.130757 -0.376502,-0.981456 -1.507807,0.35278 -1.676718,1.977485 -5.95167,11.865546 -5.377921,12.439285 0.120385,0.12039 0.892678,0.03746 1.716167,-0.184283 1.639437,-0.441452 2.085816,-0.169354 2.09632,1.277805 0.0045,0.635101 -0.344832,0.819198 -2.375853,1.251686 l -2.38125,0.507069 -2.862527,9.508035 c -1.574376,5.22942 -3.558751,12.24646 -4.409704,15.59342 -0.850966,3.34697 -1.634514,6.0854 -1.741228,6.08542 -0.106717,2e-5 -0.38453,-0.19047 -0.617363,-0.4233 z m -24.635449,-6.8546 c 1.989376,-2.01788 4.491458,-6.78361 5.636302,-10.73548 1.012921,-3.49648 1.560497,-7.73936 0.998824,-7.73936 -0.660678,0 -4.065291,4.14419 -5.934988,7.22423 -2.179974,3.59117 -3.933854,7.68272 -4.234963,9.87955 -0.1733,1.26434 -0.08547,1.75519 0.412506,2.30545 0.914874,1.01092 1.325687,0.88798 3.122319,-0.93439 z m 17.725464,-13.33449 c 1.767583,-2.01215 3.664432,-5.53034 3.664432,-6.79661 0,-0.75492 -0.07721,-0.79669 -0.778656,-0.42129 -2.375538,1.27135 -6.071552,6.66053 -6.848012,9.98513 l -0.240186,1.02842 1.315453,-1.00334 c 0.723498,-0.55185 2.022634,-1.80838 2.886969,-2.79231 z m 85.895041,-6.15364 c -0.98851,-1.33342 -1.79729,-2.60342 -1.79729,-2.82222 0,-0.218807 -0.13552,-0.35814 -0.30115,-0.309634 -0.16565,0.04851 -1.04161,-0.73203 -1.94659,-1.734529 l -1.64539,-1.82273 -6.88385,2.297811 -6.88383,2.297812 -1.87597,-1.416379 c -3.69112,-2.786819 -7.76367,-5.083421 -12.38959,-6.986749 l -2.82223,-1.161195 -1.59996,-6.981812 -1.59997,-6.981812 -2.98614,-0.605139 c -1.64237,-0.33283 -4.92471,-0.77493 -7.29406,-0.982448 -2.36934,-0.207518 -4.90691,-0.627592 -5.63906,-0.933495 -0.89225,-0.372816 -1.88137,-0.491024 -3.000032,-0.358537 l -1.668885,0.197655 1.134348,-2.315031 1.134321,-2.31503 4.762498,0.240038 c 7.65387,0.385766 17.35804,1.980298 17.94732,2.948993 0.1214,0.199578 0.91829,3.448749 1.77086,7.220381 l 1.55012,6.857516 3.38875,1.607563 c 1.86383,0.884159 4.94181,2.585332 6.83996,3.780383 l 3.45117,2.172819 6.95576,-2.336654 6.95577,-2.336657 3.70676,3.84901 c 4.97805,5.169077 4.88926,4.96594 3.71334,8.49695 -0.52342,1.57164 -1.00295,2.85752 -1.06566,2.85752 -0.0627,0 -0.92281,-1.09098 -1.91132,-2.4244 z M 48.622459,98.006339 c -0.634412,-1.891771 -1.149098,-3.605802 -1.143746,-3.80896 0.0054,-0.203158 0.616194,-0.96157 1.357421,-1.685361 1.271569,-1.241653 1.378098,-1.280568 1.886141,-0.688957 1.102532,1.283899 2.664745,3.840914 3.066497,5.019212 0.358875,1.05255 0.333324,1.262896 -0.188902,1.555152 -0.332155,0.185881 -1.265545,0.947836 -2.074204,1.693225 -0.808662,0.7454 -1.533162,1.35527 -1.610008,1.35527 -0.07685,0 -0.658783,-1.54781 -1.293199,-3.439581 z M 74.984357,92.166435 C 67.17251,87.422821 65.479698,86.193998 63.783568,84.03571 l -1.735486,-2.208364 1.45143,-0.862237 c 0.79829,-0.474234 1.552599,-0.909193 1.676249,-0.966581 0.12365,-0.05739 3.018838,1.657286 6.433751,3.810381 l 6.208935,3.914719 2.494912,-0.899964 c 1.372214,-0.49498 2.567496,-0.899964 2.65621,-0.899964 0.08872,0 -0.215132,0.754062 -0.675216,1.675693 -0.460084,0.921634 -1.112097,2.410807 -1.448885,3.309271 -1.01577,2.70969 -2.829203,3.098842 -5.861111,1.257771 z"
       id="path2352"
       sodipodi:nodetypes="sssscscsssssssssssssssscscssscsssssssscscccccsscsscsccccsscsssccccssssscsscsssssscsccsssscsssssssssccsscccsscsssssssscccsscccscssssscsscsscsscccsssscsscccssssssssssssssssssssssssscsssscssssssssssssssccssssscssscsscccccsscsssscsssssssssccssssscsssssssssssssssscccssccccsscsssscsssscccsssscsscssscssscsssssssscssscssssccssssssssscsssssssscsscsssssssssscsssssssscscsssssssssssssssscsssssscccsscccsssscccssscsscccssssscssssssssscssscssscs" />
    <path
       style="fill:#ffffff;stroke-width:1.68166"
       d="M 41.245496,544.43589 C 38.950066,534.33631 36.921801,516.30346 35.273554,491.34072 29.967988,410.98777 50.068808,325.47763 91.004917,254.25602 112.63595,216.62183 133.9886,188.70545 163.92814,158.91642 216.13123,106.97578 281.2331,69.604453 354.59391,49.465909 395.61002,38.206431 408.01835,36.592761 460.1,35.745121 c 38.24098,-0.622379 50.91025,-0.237594 66.42539,2.01744 76.73413,11.15286 145.31196,39.969091 207.15897,87.047679 17.55637,13.36408 52.37998,47.21381 68.82321,66.89846 25.57446,30.61591 51.46349,73.8718 66.85915,111.70952 l 6.609,16.24289 -3.70038,1.38581 c -7.73294,2.89603 -88.94791,23.92903 -89.6575,23.21944 -0.40947,-0.40945 6.12122,-18.34686 14.51262,-39.86089 8.39141,-21.51403 14.83094,-39.5426 14.31004,-40.06347 -0.52089,-0.5209 -24.20248,4.36367 -52.62577,10.85458 -28.42328,6.49092 -52.43544,11.48365 -53.36035,11.09495 -0.92491,-0.38869 -5.01194,-4.61289 -9.08227,-9.38711 -4.07034,-4.77422 -12.70036,-14.29187 -19.17781,-21.15033 l -11.77719,-12.46993 -27.53138,9.0637 c -24.59978,8.09857 -27.92401,8.81852 -31.2184,6.76113 -2.02786,-1.26642 -11.41905,-6.39492 -20.86931,-11.39666 l -17.18233,-9.09409 -4.48217,-19.67105 c -9.09077,-39.89702 -7.39417,-36.02226 -16.83722,-38.45342 -18.8081,-4.84224 -50.18471,-9.10582 -73.91034,-10.04323 l -25.22483,-0.99665 -9.63638,19.24011 c -8.6677,17.30601 -10.6831,20.05294 -20.04911,27.32631 -9.649,7.49313 -32.50073,17.72977 -39.57898,17.72977 -1.50823,0 -13.09531,-6.43233 -25.74906,-14.29407 -12.65374,-7.86174 -23.89115,-14.29407 -24.972,-14.29407 -3.15805,0 -30.1332,17.93691 -45.65752,30.35958 -7.86173,6.29102 -19.78331,17.00009 -26.49237,23.79791 l -12.19833,12.3597 7.66294,21.72823 7.66293,21.72823 -6.64252,14.38145 c -7.09232,15.35534 -12.03403,28.89613 -12.03403,32.9745 0,3.47917 -4.11368,4.9783 -31.79238,11.5859 -13.32372,3.1807 -24.7892,6.69606 -25.47884,7.81192 -1.7835,2.88576 -8.06211,33.66415 -9.92502,48.65345 -0.8648,6.9583 -1.71336,22.47157 -1.88569,34.47393 l -0.31332,21.82246 7.06605,3.97356 c 6.9308,3.89751 7.04443,4.10676 5.93641,10.93076 -0.6213,3.82646 -1.61931,7.4602 -2.2178,8.07498 -1.269,1.30353 -135.139577,38.40111 -138.574509,38.40111 -0.652378,0 -1.573125,-1.70267 -2.046105,-3.78372 z"
       id="path640"
       transform="matrix(0.26458333,0,0,0.26458333,-21.596255,21.384583)" />
    <path
       style="fill:#ffffff;stroke-width:1.68166"
       d="M 41.432201,541.07258 C 35.37535,507.41376 34.28998,441.07357 39.265552,408.64223 46.073631,364.26639 58.96873,321.7139 77.231392,283.35891 132.49598,167.293 232.36184,84.038189 357.35174,49.832028 399.22007,38.373867 403.39054,37.921226 467.50016,37.87714 c 56.97278,-0.03918 58.43693,0.04497 81.34017,4.674976 67.07506,13.559556 126.78314,40.210734 180.9945,80.788344 21.88444,16.38067 68.47435,63.35575 84.09689,84.79216 16.0809,22.06532 29.83089,44.68296 42.08687,69.22956 7.99417,16.01094 18.44215,39.53891 18.44215,41.53021 0,1.32605 -88.94648,24.92408 -89.96676,23.86871 -0.28938,-0.29934 5.93678,-17.78452 13.83592,-38.85596 7.89914,-21.07143 13.84155,-38.83221 13.20536,-39.46838 -1.16152,-1.16152 -20.32924,2.59282 -74.97026,14.68428 l -29.42896,6.51229 -21.02069,-21.7864 -21.02069,-21.78639 -25.22483,8.41673 c -13.87366,4.62921 -26.73832,8.40947 -28.58814,8.40061 -1.84982,-0.008 -12.03606,-4.76988 -22.63609,-10.58005 l -19.2728,-10.56396 -6.12159,-26.46136 c -3.36688,-14.55375 -6.88362,-27.22339 -7.81497,-28.15475 -4.01847,-4.01846 -40.29704,-10.56253 -68.59704,-12.3738 -8.3242,-0.53276 -20.60011,-1.3605 -27.27983,-1.83941 l -12.14491,-0.87074 -9.12255,18.18984 c -6.54137,13.04309 -11.35934,20.25165 -17.02793,25.47677 -8.64867,7.97205 -33.17575,20.36801 -40.30089,20.36801 -2.59743,0 -13.97995,-5.65541 -27.07707,-13.45325 -12.42772,-7.39928 -24.09556,-13.45324 -25.92855,-13.45324 -10.51682,0 -84.11746,58.41003 -84.11746,66.75625 0,1.39552 3.14862,11.72966 6.99693,22.96473 l 6.99693,20.42744 -7.69528,17.65738 c -4.23241,9.71156 -8.53903,20.85021 -9.57027,24.75255 -1.80381,6.82586 -2.272,7.21573 -12.33447,10.27117 -5.75273,1.7468 -17.41586,4.87105 -25.91808,6.94278 -8.50221,2.07173 -16.67229,4.65427 -18.15572,5.73898 -5.80796,4.24689 -14.12551,61.3816 -14.27689,98.07052 -0.0349,8.47185 0.16104,8.83182 6.85792,12.59567 6.55185,3.68235 6.8509,4.19519 6.02719,10.33641 -0.4767,3.55401 -1.17159,6.76671 -1.5442,7.13932 -1.58381,1.58381 -132.110314,37.72282 -136.246876,37.72282 -1.567061,0 -2.943323,-2.12181 -3.544993,-5.46538 z"
       id="path717"
       transform="matrix(0.26458333,0,0,0.26458333,-21.596255,21.384583)" />
    <path
       style="fill:#ffffff;stroke-width:0.594555"
       d=""
       id="path455"
       transform="matrix(0.26458333,0,0,0.26458333,-21.596255,21.384583)" />
    <path
       style="fill:#ffffff;stroke-width:0.594555"
       d=""
       id="path457"
       transform="matrix(0.26458333,0,0,0.26458333,-21.596255,21.384583)" />
    <path
       style="fill:#ffffff;stroke-width:0.594555"
       d="M 104.64167,382.50556 V 234.53922 l 2.76131,-4.15554 c 36.47824,-54.8965 83.24963,-99.77255 138.1482,-132.549983 40.43782,-24.143566 79.03987,-39.67529 130.66403,-52.573298 19.08887,-4.769246 26.59949,-5.778385 49.18883,-6.609077 20.30623,-0.746735 76.5274,-0.741855 91.39483,0.0079 13.08191,0.659741 22.86985,2.138532 41.20113,6.224789 63.01189,14.046089 120.09574,40.231658 171.22161,78.542969 17.42884,13.06036 54.59619,49.32873 74.88473,73.07339 13.13122,15.36819 30.48794,41.57678 43.84878,66.21162 11.14398,20.54736 26.83042,54.84016 25.62413,56.01797 -1.61535,1.57719 -84.11728,23.73364 -88.37477,23.73364 -0.57642,0 3.18646,-10.78519 13.27582,-38.05151 7.8354,-21.17508 13.08508,-36.73799 13.08627,-38.79471 0,-1.40414 -0.24008,-1.63503 -1.70577,-1.63503 -4.36249,0 -27.36767,4.6691 -75.78513,15.38126 l -26.65734,5.89782 -9.05198,-9.30179 c -4.97856,-5.11599 -14.38673,-14.85229 -20.90703,-21.63622 -6.5203,-6.78394 -12.1298,-12.3356 -12.46556,-12.33702 -0.33577,-0.001 -6.22186,1.87521 -13.08021,4.17029 -14.27214,4.77603 -31.58161,10.18801 -36.92542,11.54511 -3.24714,0.82463 -3.92061,0.82921 -6.15238,0.0418 -3.60164,-1.27073 -15.86679,-7.45532 -28.25287,-14.24624 -5.88609,-3.22718 -10.74605,-5.89124 -10.79989,-5.92014 -0.0539,-0.0289 -1.86818,-7.67771 -4.03185,-16.99736 -4.0552,-17.46708 -6.50634,-27.11927 -8.62549,-33.96568 -1.16534,-3.76489 -1.34565,-3.99475 -4.0424,-5.15326 -7.59401,-3.26233 -30.85003,-7.5531 -53.65712,-9.89982 -4.74157,-0.48788 -16.91509,-1.42855 -27.05225,-2.09039 -10.13716,-0.66183 -19.9476,-1.3627 -21.80098,-1.55749 l -3.36977,-0.35415 -7.1601,14.17338 c -11.02309,21.82016 -15.6017,27.93628 -26.18505,34.97808 -10.90558,7.25621 -26.91823,14.61896 -32.15277,14.78412 -3.25656,0.10274 -12.2143,-4.16133 -27.35048,-13.0194 -14.58385,-8.53484 -24.16263,-13.35382 -26.54365,-13.35382 -4.1777,0 -16.477,7.56934 -34.99278,21.53554 -28.33956,21.37615 -49.05078,40.49639 -49.05078,45.28284 0,2.23263 3.42013,13.47691 9.22754,30.33714 l 4.48673,13.02599 c -11.81742,30.26568 -28.89881,52.51387 -51.46851,58.34806 -15.28582,3.92441 -21.4374,6.04386 -22.88559,7.88493 -3.46526,4.40536 -8.41604,30.24927 -11.25727,58.76477 -1.50315,15.08613 -2.66886,37.47603 -2.20883,42.42529 0.41979,4.51646 1.20458,5.53351 6.86437,8.89593 6.00944,3.57014 6.24998,3.96139 5.80091,9.43512 -0.50714,6.18145 -0.8776,7.27404 -2.70392,7.97481 -3.34598,1.28387 -65.17611,19.01699 -73.34626,21.03598 l -1.63502,0.40405 z"
       id="path459"
       transform="matrix(0.26458333,0,0,0.26458333,-21.596255,21.384583)"
       sodipodi:nodetypes="ccsssssssssssscsscsscssssssssssscssssssssccssssssscc" />
    <path
       style="fill:#ffffff;stroke-width:0.594555"
       d="M 104.64167,382.39637 V 234.44975 l 6.03631,-8.86724 c 39.70653,-58.32825 90.04194,-103.86549 152.11529,-137.615066 30.95037,-16.82786 63.50861,-29.481863 103.12498,-40.08028 32.46371,-8.684893 37.5066,-9.202689 93.96998,-9.648679 60.36425,-0.476801 68.69024,0.08716 98.11177,6.645559 63.03747,14.051791 120.15198,40.250539 171.22161,78.540336 17.44852,13.08215 54.60267,49.3389 74.88473,73.07602 14.98902,17.54247 33.45536,46.09666 48.63994,75.2112 6.7523,12.94676 21.24945,44.77405 21.24945,46.65146 0,0.57143 -2.62573,1.43441 -16.35026,5.37368 -24.20915,6.9486 -71.97753,19.20398 -72.54378,18.61171 -0.28182,-0.29472 4.3906,-13.60521 12.48202,-35.55811 8.92225,-24.20701 13.98376,-39.14651 13.98376,-41.27425 0,-1.29151 -0.26886,-1.53371 -1.70257,-1.53371 -4.283,0 -25.9088,4.39103 -75.88685,15.40848 -13.40722,2.95557 -24.92452,5.44676 -25.59399,5.53599 -0.91537,0.122 -6.34259,-5.14558 -21.88554,-21.24174 -11.36759,-11.77219 -20.91362,-21.49109 -21.21342,-21.59756 -0.29979,-0.10647 -8.24335,2.35342 -17.65234,5.46643 -17.93772,5.93477 -29.56123,9.54305 -33.80534,10.49418 -3.16598,0.70951 -4.89405,0.12882 -15.66129,-5.26276 -5.84969,-2.92917 -26.40367,-13.94778 -28.40731,-15.22864 -0.0671,-0.0429 -2.01428,-8.22796 -4.32696,-18.18898 -6.09425,-26.2487 -8.71866,-35.39898 -10.57067,-36.85577 -1.97507,-1.55359 -7.30407,-3.1574 -17.57963,-5.29073 -17.77988,-3.69132 -35.86993,-5.84607 -65.20495,-7.7667 -9.97366,-0.653 -19.65033,-1.34662 -21.50371,-1.54138 l -3.36977,-0.35412 -7.1601,14.17339 c -11.03434,21.84242 -15.63063,27.97762 -26.18505,34.95218 -11.45917,7.57244 -26.80806,14.65084 -32.08437,14.79626 -3.51686,0.0969 -9.58035,-2.76556 -26.75182,-12.62908 -16.4308,-9.43808 -24.90345,-13.72324 -27.14152,-13.7272 -4.22053,-0.007 -15.72194,7.04266 -34.46742,21.1278 -26.64031,20.01723 -48.11108,39.42717 -49.4311,44.68656 -0.54173,2.1584 0.25494,5.00177 7.29353,26.03111 l 6.16561,18.42114 -4.54466,10.41478 c -8.8287,26.32497 -15.5986,40.32535 -43.6129,46.98031 -18.81581,4.88984 -24.6564,6.84365 -26.15564,8.74962 -3.45202,4.38854 -8.31423,29.82264 -11.28455,59.02925 -1.46132,14.36879 -2.70869,39.23818 -2.1537,42.93912 0.53939,3.59689 1.83246,5.14476 6.72699,8.05255 6.12691,3.63993 6.35658,4.00937 5.93018,9.53887 -0.59018,7.65337 -0.16636,7.23828 -10.61551,10.39684 -13.72314,4.14823 -65.70994,18.85041 -66.65489,18.85041 -0.239,0 -0.43454,-66.57598 -0.43454,-147.94662 z"
       id="path461"
       transform="matrix(0.26458333,0,0,0.26458333,-21.596255,21.384583)"
       sodipodi:nodetypes="scssssssssssssssssssssssssssscsssscssscccssssssss" />
    <path
       style="fill:#ffffff;stroke-width:0.594555"
       d="M 104.64167,382.46984 V 234.46779 l 5.97703,-8.82178 c 37.94046,-55.99812 87.47657,-101.52394 146.22903,-134.390786 34.03725,-19.040858 66.73677,-32.042671 109.07052,-43.36806 34.09815,-9.122147 38.15343,-9.493045 104.07741,-9.518967 52.60414,-0.02069 55.17279,0.0882 71.00981,3.010053 68.44439,12.627667 132.68703,40.465224 186.72975,80.91355 23.10708,17.29451 68.05823,62.27688 85.44581,85.50514 10.25655,13.70184 24.13566,35.4704 33.7376,52.91539 11.00319,19.99073 27.92405,56.80518 26.66062,58.00491 -1.93843,1.84065 -87.45648,24.6603 -88.50111,23.61566 -0.28009,-0.2801 4.03721,-12.56616 12.47989,-35.5146 8.85054,-24.05728 14.00944,-39.28602 14.00944,-41.35512 0,-1.87729 -1.00106,-1.9033 -10.15209,-0.26382 -11.50945,2.06201 -69.88369,14.50831 -90.61552,19.32062 -1.9568,0.45422 -3.72816,0.63431 -3.93637,0.4002 -2.49547,-2.80624 -41.22828,-42.68886 -41.5919,-42.82656 -0.27234,-0.10314 -9.00427,2.61705 -19.40429,6.04484 -10.40003,3.42781 -22.323,7.21089 -26.49549,8.40685 -8.81062,2.52539 -8.10621,2.61734 -18.57406,-2.42461 -4.97555,-2.39653 -30.29887,-15.89151 -31.04818,-16.54581 -0.0722,-0.0631 -1.48563,-5.98625 -3.14087,-13.16264 -6.77422,-29.36985 -9.65453,-39.70351 -11.6123,-41.66128 -2.41093,-2.41093 -17.29569,-5.98996 -36.54451,-8.78709 -13.86713,-2.01509 -24.63588,-3.05938 -46.37528,-4.49721 -9.97366,-0.65965 -19.65033,-1.35871 -21.50371,-1.55347 l -3.36977,-0.35412 -7.1601,14.17339 c -11.03434,21.84242 -15.63063,27.97762 -26.18505,34.95218 -11.45917,7.57244 -26.80806,14.65084 -32.08437,14.79626 -3.52156,0.097 -9.76643,-2.85173 -26.91706,-12.71005 -15.10957,-8.68511 -25.04325,-13.64941 -27.31277,-13.64941 -3.61741,0 -16.49594,7.90253 -32.83188,20.14631 -22.10034,16.5642 -42.71567,34.42595 -48.28671,41.83706 -2.5711,3.42032 -2.75422,3.89246 -2.42927,6.26321 0.19329,1.41022 3.29533,11.45925 6.89343,22.33117 l 6.542,19.76712 c -10.04763,28.25542 -26.70272,51.57798 -50.03118,57.87269 -15.6743,4.13555 -22.01199,6.12028 -23.6153,7.39543 -5.29813,4.21378 -12.86157,53.80444 -14.02196,91.93672 -0.41652,13.68734 -0.26691,14.21333 5.03624,17.70745 2.12553,1.40046 4.771,3.24723 5.87882,4.10395 l 2.01421,1.55765 -0.36701,4.81438 c -0.4842,6.35174 -0.8531,7.46795 -2.70222,8.1763 -4.07098,1.55949 -64.22607,18.81725 -73.34626,21.04214 l -1.63502,0.39887 z"
       id="path463"
       transform="matrix(0.26458333,0,0,0.26458333,-21.596255,21.384583)"
       sodipodi:nodetypes="ccsssssssssssssscsssssssssscsssssssssccsssscssscc" />
    <path
       style="fill:#ffffff;stroke-width:0.840828"
       d="M 42.15467,547.93513 C 39.857021,545.165 35.869213,512.81085 34.417025,485.15754 31.888904,437.01578 39.417997,381.88298 55.085674,333.80857 82.656775,249.20991 137.39509,172.70015 208.05819,119.99325 264.18425,78.129375 329.06946,50.844665 401.4646,38.664422 c 18.00861,-3.02989 37.38135,-4.192522 69.70235,-4.183107 29.32215,0.0085 42.76826,0.834561 61.49735,3.777898 45.73307,7.187099 86.76895,20.134858 127.8058,40.325653 33.88504,16.671983 68.98246,40.226394 93.75228,62.918584 12.28537,11.25489 37.36226,36.64022 46.14607,46.71364 17.93198,20.56469 42.01381,57.13534 56.03898,85.10073 6.30107,12.56396 19.73496,44.28999 19.73496,46.60688 0,1.09217 -93.84146,26.26697 -94.7026,25.40582 -0.45797,-0.45796 4.30575,-13.2196 17.16953,-45.99588 11.88433,-30.28068 13.31608,-34.22747 12.65595,-34.88761 -0.56056,-0.56055 -10.93305,1.65861 -64.61033,13.82322 -20.57926,4.66377 -38.24193,8.66318 -39.25038,8.88757 -1.46233,0.32539 -3.07953,-0.98553 -7.98786,-6.47509 -6.42075,-7.18106 -19.06212,-21.02963 -28.46178,-31.17978 l -5.49091,-5.9293 -27.72178,9.2385 -27.72178,9.2385 -7.98787,-4.93922 c -4.39332,-2.71658 -13.66345,-7.80905 -20.60027,-11.31661 -6.93683,-3.50756 -12.73461,-6.48196 -12.88395,-6.60977 -0.14934,-0.12781 -3.05518,-12.28117 -6.4574,-27.00747 -3.40223,-14.7263 -6.41872,-27.37635 -6.70333,-28.11122 -0.8812,-2.27532 -30.14331,-8.5305 -52.57271,-11.23813 -9.24449,-1.11598 -40.3986,-2.96338 -50.19284,-2.97637 l -3.52691,-0.005 -9.08538,17.86187 c -10.5992,20.83806 -11.38896,21.77496 -29.35464,34.82408 -3.28193,2.38379 -29.74214,12.05778 -32.98032,12.05778 -0.61415,0 -11.03113,-6.21365 -23.14885,-13.80811 -12.1177,-7.59445 -23.03688,-14.26586 -24.26484,-14.82536 -2.61485,-1.19141 -3.7417,-0.62003 -21.13548,10.71691 -19.7985,12.90428 -33.2768,23.84689 -52.19969,42.37922 l -12.55927,12.30007 7.68123,22.43408 7.68124,22.43409 -4.50127,8.58317 c -5.38193,10.26244 -11.67527,25.8642 -13.78671,34.17849 -0.84075,3.31067 -2.06386,6.54367 -2.71801,7.18446 -1.35883,1.33104 -14.41321,4.89041 -33.98165,9.26534 -20.03021,4.47816 -21.24476,4.95256 -22.21508,8.67714 -2.25501,8.65587 -6.86305,31.04685 -7.99032,38.82589 -1.38771,9.57628 -2.83486,32.89229 -3.21832,51.85272 l -0.24094,11.91342 5.52817,2.67435 c 3.04049,1.4709 6.3668,3.30694 7.39179,4.08009 l 1.86363,1.40574 -1.59971,7.79929 c -0.87984,4.28962 -1.73963,7.93285 -1.91064,8.09608 -0.327,0.31212 -3.28401,1.1331 -71.78128,19.92926 -62.391887,17.1208 -67.459819,18.39847 -68.41416,17.24788 z"
       id="path465"
       transform="matrix(0.26458333,0,0,0.26458333,-21.596255,21.384583)" />
  </g>
</svg>
